<svg id="Group_77" data-name="Group 77" xmlns="http://www.w3.org/2000/svg" width="22.253" height="22.253" viewBox="0 0 22.253 22.253">
  <path id="Path_135" data-name="Path 135" d="M195.475,176.809h.006v-8.161c0-3.993-.86-7.068-5.527-7.068a4.845,4.845,0,0,0-4.364,2.4h-.065v-2.026H181.1v14.856h4.608v-7.356c0-1.937.367-3.81,2.766-3.81,2.363,0,2.4,2.21,2.4,3.934v7.233Z" transform="translate(-173.228 -154.556)" fill="#a2b0ba"/>
  <path id="Path_136" data-name="Path 136" d="M8.448,170.176h4.614v14.856H8.448Z" transform="translate(-8.081 -162.78)" fill="#a2b0ba"/>
  <path id="Path_137" data-name="Path 137" d="M2.672,0A2.685,2.685,0,1,0,5.344,2.672,2.673,2.673,0,0,0,2.672,0Z" fill="#a2b0ba"/>
</svg>
