<?xml version="1.0" encoding="utf-8"?>
<!-- Generator: Adobe Illustrator 24.0.1, SVG Export Plug-In . SVG Version: 6.00 Build 0)  -->
<svg version="1.1" id="Layer_1" xmlns="http://www.w3.org/2000/svg" xmlns:xlink="http://www.w3.org/1999/xlink" x="0px" y="0px"
	 viewBox="0 0 1000 1162.73" style="enable-background:new 0 0 1000 1162.73;" xml:space="preserve">
<style type="text/css">
	.st0{fill-rule:evenodd;clip-rule:evenodd;fill:#F4F7FA;}
	.st1{fill-rule:evenodd;clip-rule:evenodd;fill:#FCB813;}
	.st2{fill-rule:evenodd;clip-rule:evenodd;fill:#263843;}
	.st3{fill:none;}
</style>
<g id="Group_59" transform="translate(2311.72 -750.433)">
	<path id="Path_88" class="st0" d="M-1350.9,1878.5c-23.94,7.78-48.99,11.62-74.16,11.35c-14.47,0.1-28.75,2.46-43.25,2.02
		c-9.05-0.29-20.8,6.17-25.61-4.73c-2.93-6.61-1.25-7.68-9.18-9.73c-4.74-1.22-9.58-2.08-14.45-2.56
		c-12.05-1.31-23.13-7.55-35.09-9.84c-26.97-5.17-52.1-16.61-77.78-25.93c-6.5-2.36-13.23-4.17-19.62-6.75
		c-5.94-2.37-11.19-6.12-17.08-8.61c-11.42-4.85-24.08-6.53-35.82-10.53c-10.79-4.02-21.3-8.75-31.46-14.15
		c-10.25-5.1-21.5-5.05-30.27-13.27c-9.62-9.78-17.52-21.1-23.4-33.5c-2.37-4.75-3.18-10.28-5.69-14.89
		c-3.11-5.72-8.24-6.11-13.1-9.79c-8.02-6.06-12.67-17.9-21.21-22.73c-10.83-6.12-19.45,1.94-27.27,8.31
		c-5.42,3.55-10.4,7.75-14.81,12.5c-3.64,4.85-3.03,8.82-3.64,14.33c-0.64,5.7-2.02,21.35-9.09,14.91c-0.15,3.11-1.37,6.08-3.45,8.4
		c-2.49,3.84-3.36,8.51-2.43,12.99c-1.39-0.93-2.79-1.84-4.17-2.76c0.4,2.43,1.04,4.29-0.6,6.41c-1.94-2.24-2.83-11.88-7.99-5.85
		c-2.05,2.86-1.41,6.84,1.45,8.89c0.34,0.25,0.71,0.46,1.09,0.63c-2.6-0.35-5.25-0.12-7.76,0.68c-1.21,0.45-2.54,1.94-3.92,2.43
		c-1.8,0.62-2.62-1.43-5.72,0.59c-1.66,1.49-3.21,3.09-4.63,4.81c-10.83,9.7-24.66,15.07-38.07,19.79
		c-28.84,10.13-54.88,26.15-81.19,41.27c-21.02,12.08-39.27,27.74-60.6,39.47c-11.86,6.51-23.69,15.51-37.48,16.94
		c-12,1.5-24.13,1.69-36.17,0.55c-27.22-3.35-55.17-0.96-82.3-6.92c-21.57-4.73-48.51-14.82-52.02-39.61
		c-3.51-24.79,19.3-43.15,33.61-60.27c16.98-20.32,38.21-32.74,60.11-47.14c24.14-15.85,47.19-33.9,69.69-51.95
		c21.1-16.68,39.95-36.01,56.09-57.52c-2.2-0.34-6.14-2.27-8.29-1.46c-1.48,0.55-3.4,4.36-4.51,4.26c-0.96-0.08-0.93-1.43-2.93-1.58
		c-2.68,0.05-5.36-0.07-8.02-0.35c-2.55-0.18-5.07-0.57-7.55-1.18c-1.21-0.52-2.51-2.12-3.45-2.49c-2.64-1.03-5.2,1.03-7.98-0.05
		c-1.87-0.72-2.59-3.11-4.73-3.2c-1.9-0.07-2.34,2.34-3.97,2.46c-2.05,0.15-4.41-2.1-6.33-2.83c-4.85-1.77-10.78-3.03-15.7-4.43
		c-4.09-1.18-8.46-2.1-12.53-3.01c-8.04-1.77-16,1.39-23.97,1.55c-5.74,0.12-23.89,0.57-24.68-7.28c-2.78,1.31-6.85,3.87-9.94,1.81
		c-2.43-1.62-0.99-3.11-1.88-5.47c-2.3,1.58-2.02,4.11-2.22,6.53c-2.58-2.29-5.69-3.89-9.05-4.66c-1.03,0.55-2.09,1.08-3.15,1.56
		c-1.62-0.38-3.16-1.05-4.54-1.97c-2.59-0.47-4.51,0.64-7.07,0.22c-2.12-0.37-4.85-1.62-6.93-2.17c-6.63-1.68-9.91-7.68-16.6-10.11
		c-2.5-0.55-4.94-1.32-7.3-2.32c-2.86-1.62-2.74-3.43-6.68-4.24c0.51,0.71,3.23,3.23,2.29,4.43c-4.66-3.14-10.08-4.53-13.07-9.96
		c-4.69-8.49,1.95-14.5,8.33-19.67c13.77-10.54,29.94-17.52,47.06-20.31c18.19-3.48,35.7-5.85,53-12.84
		c16.48-6.56,33.79-10.81,51.43-12.64c-3.97-17.7-10.68-34.52-13.8-52.52c-1.48-8.56-2.29-17.26-3.38-25.87
		c-0.72-5.6,0.51-16.57-6.75-17.35c-3,0.09-5.99,0.45-8.93,1.06c-1.52,0.19-2.36-0.59-3.92-0.12c-2.52,0.77-4.02,3.1-7.2,3.8
		c-6.63,1.5-10.91-0.2-17.16-0.68c-5.72-0.44-10.77,0.4-16.22-2.32c-11.57-5.01-21.3-13.48-27.84-24.25
		c-7.64-13.26-12.71-27.83-14.96-42.97c-2.38-16.74-3.63-33.62-3.72-50.53c-0.25-16-0.97-33.85,3.6-49.38
		c3.4-11.56,5.96-24.43,12.58-34.57c1.53-2.36,2.02-5.28,3.45-7.47c1.36-2.05,2.69-1.72,3.79-4.17c0.87-1.97,0.74-5.13,1.62-7.37
		c1.36-3.52,3.26-6.87,4.83-10.3c0.86,1.31,1.73,2.64,2.59,3.97c0.81-5.43,0.64-9.98,3.72-14.67c2.41-3.69,5.11-6.98,7.38-10.83
		c5.55-9.37,10.23-18.93,15.17-28.62c3.87-7.59,9.66-14.69,12.99-21.92c4.49-8.74,10.18-16.8,16.93-23.94
		c11.98-13.83,21.48-30.32,34.39-43.36c10.95-11.04,20.58-22.98,31.56-34.04c13.04-14.09,27.21-27.1,42.36-38.88
		c15.8-11.44,31.75-22.86,48.13-33.8c15.51-10.25,31.61-19.6,48.2-27.98c10.45-5.37,20.95-10.61,31.59-15.58
		c8.19-3.33,16.81-5.47,25.61-6.36c6.49-0.77,12.18-4.72,15.17-10.53c3.46-5.57,5.8-15.04,11.42-18.86
		c3.26-2.22,7.64-1.88,11.24-3.31c3.97-1.58,7.53-4.19,11.44-5.95c6.38-2.89,18.46-3.95,22.85-9.66c-1.97-1.48-6.8-7.42-9.83-6.69
		c-2.83,0.69-0.96,2.22-2.34,3.46c-2.1,1.88-2.2,1.48-4.88,1.92c-3.99,0.69-10.42-0.08-12.7-3.79c-2.51-4.11,0.46-6.65,2.59-10.61
		c-6.44-2.72-17.06-5.52-20.71-12.22c-3.23-5.99,2.32-11.42,2.27-17.73c-0.08-9.18,3.16-12.13,9.27-18.96
		c4.89-5.45,1.62-8.6,5.85-14.3c4.24-5.7,7.2-3.67,12.43-6.51s1.08-4.85,1.52-9.66c0.4-4.37,6.82-12.03,9.86-15.17
		c4.95-5.11,7.52-3.21,10.75,2.02c2.02,3.3,3.77,9.15,6.96,10.91c7.1,3.87,9.09-3.28,12.85-6.19c5.3-4.11,10.11,1.21,15.31,2.69
		s12.01-1.1,16.72,1.88c6.44,4.07,4.64,11.72,6.43,17.66c1.7,5.66,5.59,3.16,9.79,5.45c4.37,2.37,3.5,5.63,3.52,10.31
		c0.16,2.36,0.18,4.73,0.07,7.1c-0.45,4.17-1.87,3.88-3.48,6.76c-4.09,7.32,3.94,7.59,7.1,14c1.62,3.23,0.84,2.47,0.57,5.06
		c0-0.72-1.75,3.59-1.67,3.59c-1.1,1.85,1.08,1.5-1.33,3.06c-0.64,0.4-2.26-0.32-3-0.08c-2.12,0.73-4.06,1.9-5.7,3.43
		c-5.47,4.17-6.9,2.24-11.81-2.12c-1.12,2.66-1.34,5.6-0.62,8.4c0.4,1.18,3.13,3.77,3.03,4.69c-0.08,0.77-3.33,1.94-4.02,2.78
		c-1.18,1.49-1.88,3.3-2.02,5.2c-4.85-2.14-7.42,0.45-2.24,2.93c5.72,2.72,15.06,1.88,21.3,2.79c7.19,0.68,14.21,2.57,20.76,5.6
		c5.88,3.83,11.19,8.48,15.76,13.81c4.94,4.04,8.67,9.37,10.78,15.39c1.43,5.08,0.91,11.54,6.66,13.59
		c5.15,1.85,14.15-0.77,19.56-0.64c8.75,0.28,17.45,1.29,26.03,3.03c56.97,11.04,108.3,43.19,155.79,75.39
		c23.04,15.59,45.04,34.49,60.8,57.42c8.41,12.22,19.37,22.61,28.03,34.71c8.31,11.63,16.44,23.55,23.97,35.7
		c7.04,12.61,13.22,25.68,18.49,39.13c6.14,13.71,12.62,27.29,18.15,41.29c2.83,7.22,5.35,14.55,7.89,21.87
		c1.09,3.14,2.54,6.29,3.42,9.49c0.27,2.19,0.42,4.4,0.45,6.61c0.97,5.28,3.7,10.61,4.85,16.3c1.38,6.93,3.15,13.71,4.21,20.71
		c2.42,14.75,3.5,29.69,3.23,44.63c-0.25,7.54-1.01,15.04-1.16,22.6c-0.1,5.43,1.36,12.13-0.61,17.35c-1.01,2.68-3.4,3.99-4.47,6.43
		c-0.69,2.64-0.93,5.37-0.72,8.08c-0.7,4.36-2.28,8.53-4.63,12.26c-4.81,9.62-12.05,16.14-12.62,28.03
		c-2.34-1.23-4.68-2.44-7.02-3.64c0,4.02,1.21,5.6-1.7,8.58c-1.38,0.04-2.73,0.36-3.97,0.96c-0.4,0.62-0.68,1.32-0.81,2.05
		c-0.2,0.19-1.77,1.52-1.77,1.52c-2.66,2.29-2.66,3.13-3.33,7.2c-3.7-0.08-2.62-3.92-4.83-5.75c-0.23,1.19-0.33,2.39-0.3,3.6
		c-0.08,0.13-2.26,2.49-2.37,2.66c-0.37,0.54,0.3,1.21-0.3,1.98c-1.99,2.21-4.64,3.72-7.55,4.33c-6.42,1.26-12.91,2.11-19.43,2.54
		c-5.69,0.97-11.64-1.88-17.09-1.33c-3.01,0.3-3.31-0.22-4.73,3.52c-0.86,3.64-1.41,7.34-1.62,11.07
		c-3.02,17.61-7.61,34.92-13.71,51.72c-2.09,5.63-14.67,23.13-6.09,26.55c4.41,1.75,11.51-1.92,16.22-1.92
		c8.16,0.51,16.25,1.82,24.16,3.88c17.13,3.23,33.96,7.93,50.29,14.05c6.9,2.64,13.05,6.91,17.95,12.43
		c1.79,2.67,3.95,5.07,6.41,7.13c2.72,1.73,4.68,1.18,6.96,3.92c8.55,10.21-2.15,25.47-13.51,27.46c-2.49,0.44-5.33-2.02-7.32-0.4
		c-1.43,1.14-1.97,4.04-3.3,5.59c-1.75,2.02-7.45,7.11-9.09,3.13c-0.94-2.29,3.45-3.03,1.3-5.33c-1.42-1.53-4.54,1.62-5.23,2.64
		c-3.01,4.41-1.33,8.56-8.51,4.85c2.68-0.96,3.03-1.73,1.06-2.34c-0.34-0.75-0.93-1.35-1.67-1.71c-3.64,1.62-0.52,3.7-2.51,5.62
		c-1.81,1.73-4.85,0.4-7.05,0.61c-3.7,0.4-4.45,2.17-8.58,0.81c2.05-4.49-0.62-3.77-4.71-5.32c-1.21,2.02,0.87,3.23,2.12,4.36
		c-2.53,1.48-5.3,2.47-8.19,2.93c-0.86-3.84-0.88-6.78-5.7-4.68c-0.54,0.23-1.97-0.08-2.43,0.37c-0.99,1.04,1.08,3.01,0.44,3.73
		c-2.76,3.1-1.75,0.81-5.06,0.35c-3.6-0.16-7.21,0.05-10.77,0.64c-10.35,0.74-20.76-0.52-31.16,0.3c-3.75,0.35-7.43,1.26-10.91,2.71
		c-3.84,1.38-3.79,2.68-5.38-2.02c-1.7,3.4-2.59,0.86-5.06,2.51c-1.41,0.93-2.62,2.71-4.07,3.48c-4.75,2.54-7.99,0.15-12.72,0.27
		c1.45,2.59,4.04,2.43,1.62,4.49c-0.89,0.76-6.76,0.08-8.34,0.69c-2.22,0.86-3.74,3.11-5.94,3.88c-1.43,0.51-3.13-0.07-4.56,0.3
		c-2.6,0.78-5.31,1.14-8.02,1.06c1.55,5.49-9.77,2.49-11.58,2.69c-5.49,0.62-8.98,6.58-15.12,7.59c1.46,5.21,9.4,10.4,13.09,13.98
		c3.86,4.06,7.96,7.89,12.26,11.48c10.01,7.64,21.65,14.22,32.34,21.02c21.83,13.95,47.08,22.16,70.23,33.95
		c12.03,6.45,23.47,13.96,34.17,22.44c9.64,7.3,20.16,12.77,29.69,20.07c21.06,16.1,43.36,32.77,59.12,54.21
		C-1298.35,1850.05-1326.34,1870.15-1350.9,1878.5z"/>
	<g id="react-group-59" transform="translate(-2311.72 750.433)">
		<g id="react-group-60">
			<path id="react-path-63" class="st1" d="M264.32,262.83c-1.19,19.4-2.37,38.81-3.56,58.21c7.64-2.2,56.21-16.49,53.21-2
				c-2.15,10.39-15.81,21.63-22.77,28.87c-6.4,6.66-12.99,13.15-19.76,19.45c12.43-4.76,24.96-9.25,37.59-13.48
				c9.55-3.19,19.17-6.3,28.96-8.69c3.64-0.89,13.44-4.51,16.88-2.02c9.02,6.49-39.91,54.29-46.61,61.04
				c9.48-4.43,19.18-8.39,29.05-11.85c7.13-2.48,29.14-11.96,35.45-3.86c6.75,8.66-9.97,28.55-14.61,34.86
				c-6.67,9.03-13.82,17.71-21.4,25.99c31.58,29.05,67.98,52.37,107.58,68.91c27.66,11.49,58.16,14.31,87.47,8.08
				c31.16-7.11,61.27-18.19,89.61-32.97c16.79-8.23,33.12-17.37,48.91-27.39c-6.47-7.88-12.76-15.91-18.88-24.09
				c-8.72-11.66-19.44-24.4-24.41-38.28c-4.85-13.58,13.39-10.91,22.15-10.19c12.7,1.2,25.32,3.22,37.76,6.06
				c-8.79-6.11-17.41-12.46-25.87-19.03c-11.02-8.55-25.72-18.22-32.93-30.53c-6.34-10.82,7.58-8.08,14.01-6.67
				c15.32,3.8,30.33,8.73,44.92,14.76c10.72,4.12,21.36,8.44,31.93,12.96c-6.55-5.69-12.86-11.64-18.96-17.84
				c-8.18-8.31-19.2-18.46-22.87-29.91c-7.47-23.31,42.75-5.73,51.34-2.13c-1.58-24.15-3.17-48.3-4.75-72.45l-199.48,53.08
				c-7.19,1.91-16.17,6.06-23.68,6.3c-6.79,0.2-14.98-2.85-21.61-4.12l-120.33-22.99l-94.32-18.02L264.32,262.83z"/>
			<g id="react-group-61">
				<path id="react-path-64" class="st2" d="M992.93,1071.84c-15.76-21.42-38.06-38.11-59.12-54.21
					c-9.54-7.3-20.05-12.77-29.69-20.07c-10.7-8.48-22.13-15.99-34.17-22.44c-23.15-11.8-48.39-20-70.23-33.95
					c-10.67-6.8-22.31-13.38-32.34-21.02c-4.31-3.58-8.4-7.41-12.26-11.48c-3.69-3.58-11.63-8.76-13.09-13.98
					c6.14-1.01,9.64-6.96,15.12-7.59c1.8-0.2,13.13,2.79,11.58-2.69c2.71,0.08,5.42-0.27,8.02-1.06c1.43-0.37,3.13,0.2,4.56-0.3
					c2.2-0.77,3.72-3.03,5.94-3.88c1.58-0.61,7.45,0.07,8.34-0.69c2.43-2.09-0.15-1.9-1.62-4.49c4.73-0.12,7.97,2.27,12.72-0.27
					c1.45-0.78,2.66-2.56,4.07-3.48c2.47-1.65,3.37,0.89,5.06-2.51c1.62,4.69,1.55,3.4,5.38,2.02c3.48-1.45,7.16-2.36,10.91-2.71
					c10.4-0.81,20.81,0.44,31.16-0.3c3.56-0.59,7.17-0.8,10.77-0.64c3.31,0.44,2.3,2.74,5.06-0.35c0.64-0.72-1.43-2.69-0.44-3.74
					c0.44-0.45,1.87-0.13,2.43-0.37c4.83-2.1,4.85,0.84,5.7,4.68c2.89-0.46,5.67-1.45,8.19-2.93c-1.25-1.11-3.33-2.34-2.12-4.36
					c4.09,1.55,6.76,0.81,4.71,5.32c4.12,1.36,4.88-0.4,8.58-0.81c2.19-0.22,5.23,1.13,7.05-0.61c1.98-1.92-1.14-3.99,2.51-5.62
					c0.74,0.36,1.32,0.97,1.67,1.71c1.97,0.61,1.62,1.38-1.06,2.34c7.18,3.72,5.5-0.44,8.51-4.85c0.69-1.01,3.82-4.17,5.23-2.64
					c2.15,2.3-2.24,3.04-1.3,5.33c1.62,3.99,7.34-1.11,9.09-3.13c1.33-1.53,1.87-4.45,3.3-5.59c1.98-1.58,4.83,0.86,7.32,0.4
					c11.35-1.98,22.06-17.24,13.51-27.46c-2.29-2.74-4.24-2.19-6.96-3.92c-2.46-2.07-4.62-4.47-6.41-7.13
					c-4.9-5.53-11.05-9.79-17.95-12.43c-16.33-6.12-33.15-10.82-50.29-14.05c-7.91-2.07-16-3.37-24.16-3.88
					c-4.71,0-11.81,3.67-16.22,1.92c-8.58-3.42,4.01-20.91,6.09-26.55c6.11-16.78,10.71-34.08,13.74-51.68
					c0.21-3.73,0.75-7.44,1.62-11.07c1.41-3.74,1.71-3.23,4.73-3.52c5.45-0.55,11.41,2.3,17.09,1.33
					c6.52-0.43,13.01-1.28,19.43-2.54c2.91-0.6,5.56-2.12,7.55-4.33c0.61-0.77-0.07-1.45,0.3-1.98c0.12-0.17,2.29-2.52,2.37-2.66
					c-0.03-1.21,0.08-2.41,0.3-3.6c2.2,1.84,1.13,5.66,4.83,5.75c0.68-4.07,0.68-4.91,3.33-7.2c0,0,1.56-1.33,1.77-1.52
					c0.13-0.73,0.41-1.43,0.81-2.05c1.24-0.59,2.59-0.92,3.97-0.96c2.89-2.98,1.7-4.56,1.7-8.58c2.34,1.21,4.68,2.42,7.02,3.64
					c0.57-11.9,7.81-18.4,12.62-28.03c2.35-3.74,3.93-7.91,4.63-12.26c-0.21-2.72,0.03-5.45,0.72-8.08
					c1.08-2.43,3.46-3.75,4.47-6.43c1.97-5.23,0.51-11.91,0.61-17.35c0.15-7.55,0.91-15.06,1.16-22.6
					c0.27-14.95-0.81-29.88-3.23-44.63c-1.06-7-2.83-13.78-4.21-20.71c-1.16-5.69-3.88-11.02-4.85-16.3
					c-0.03-2.21-0.18-4.42-0.45-6.61c-0.87-3.2-2.32-6.34-3.42-9.49c-2.54-7.34-5.05-14.65-7.89-21.87
					c-5.53-14-12.01-27.58-18.15-41.29c-5.27-13.45-11.45-26.52-18.49-39.13c-7.54-12.15-15.66-24.08-23.97-35.7
					c-8.67-12.09-19.62-22.49-28.03-34.71c-15.76-22.93-37.77-41.82-60.8-57.42c-47.5-32.2-98.82-64.35-155.79-75.39
					c-8.57-1.74-17.28-2.75-26.03-3.03c-5.43-0.13-14.42,2.49-19.56,0.64c-5.76-2.05-5.23-8.51-6.66-13.59
					c-2.11-6.02-5.85-11.35-10.78-15.39c-4.57-5.33-9.88-9.98-15.76-13.81c-6.55-3.03-13.57-4.92-20.76-5.6
					c-6.24-0.91-15.58-0.07-21.3-2.79c-5.18-2.47-2.62-5.06,2.24-2.93c0.14-1.9,0.84-3.71,2.02-5.2c0.69-0.84,3.94-2.02,4.02-2.78
					c0.1-0.93-2.64-3.52-3.03-4.69c-0.72-2.79-0.5-5.74,0.62-8.4c4.91,4.36,6.34,6.29,11.81,2.12c1.64-1.53,3.58-2.7,5.7-3.43
					c0.74-0.23,2.36,0.51,3,0.08c2.43-1.56,0.24-1.21,1.33-3.06c-0.08,0,1.67-4.31,1.67-3.59c0.27-2.59,1.03-1.82-0.57-5.06
					c-3.16-6.41-11.19-6.68-7.1-14c1.62-2.88,3.03-2.59,3.48-6.76c0.11-2.37,0.09-4.74-0.07-7.1c0-4.68,0.86-7.94-3.52-10.31
					c-4.2-2.29-8.08,0.22-9.79-5.45c-1.78-5.95,0-13.59-6.43-17.66c-4.71-2.98-11.52-0.44-16.72-1.88
					c-5.2-1.45-10.01-6.8-15.31-2.69c-3.77,2.91-5.76,10.06-12.85,6.19c-3.2-1.75-4.96-7.6-6.96-10.91
					c-3.23-5.23-5.8-7.13-10.75-2.02c-3.04,3.14-9.47,10.8-9.86,15.17c-0.44,4.81,3.77,6.82-1.52,9.66s-8.18,0.76-12.43,6.51
					s-0.96,8.85-5.85,14.3c-6.11,6.83-9.35,9.77-9.27,18.96c0.05,6.31-5.52,11.74-2.27,17.73c3.64,6.7,14.27,9.49,20.71,12.22
					c-2.13,3.97-5.1,6.51-2.59,10.61c2.29,3.7,8.72,4.47,12.71,3.79c2.68-0.44,2.78-0.03,4.88-1.92c1.38-1.24-0.51-2.78,2.34-3.46
					c3.03-0.72,7.86,5.21,9.83,6.69c-4.39,5.7-16.47,6.76-22.85,9.66c-3.91,1.77-7.47,4.37-11.44,5.95
					c-3.6,1.43-7.97,1.1-11.24,3.31c-5.62,3.82-7.96,13.29-11.42,18.86c-3,5.81-8.68,9.76-15.17,10.53
					c-8.8,0.89-17.42,3.03-25.61,6.36c-10.65,4.96-21.14,10.21-31.59,15.58c-16.6,8.38-32.69,17.73-48.2,27.98
					c-16.39,10.93-32.34,22.36-48.13,33.8c-15.16,11.78-29.32,24.79-42.36,38.88c-10.99,11.06-20.62,23-31.56,34.04
					c-12.9,13.06-22.41,29.51-34.39,43.36c-6.74,7.14-12.44,15.2-16.92,23.94c-3.33,7.24-9.12,14.33-12.99,21.92
					c-4.94,9.7-9.62,19.25-15.17,28.62c-2.27,3.85-4.98,7.15-7.38,10.83c-3.08,4.69-2.89,9.24-3.72,14.67
					c-0.86-1.33-1.73-2.66-2.59-3.97c-1.56,3.42-3.46,6.78-4.83,10.3c-0.86,2.24-0.72,5.4-1.62,7.37c-1.1,2.46-2.43,2.12-3.79,4.17
					c-1.45,2.19-1.92,5.11-3.45,7.47c-6.63,10.15-9.19,23.02-12.58,34.57c-4.58,15.53-3.85,33.38-3.6,49.38
					c0.09,16.91,1.34,33.79,3.72,50.53c2.24,15.14,7.32,29.71,14.96,42.97c6.55,10.77,16.27,19.25,27.84,24.25
					c5.45,2.72,10.51,1.88,16.22,2.32c6.26,0.47,10.53,2.17,17.16,0.67c3.18-0.71,4.68-3.03,7.2-3.8c1.56-0.47,2.43,0.3,3.92,0.12
					c2.94-0.61,5.93-0.97,8.93-1.06c7.25,0.81,6.02,11.74,6.75,17.35c1.1,8.61,1.9,17.31,3.38,25.87c3.11,18,9.83,34.83,13.8,52.52
					c-17.64,1.83-34.95,6.08-51.43,12.64c-17.3,6.98-34.79,9.35-53,12.84c-17.12,2.79-33.28,9.77-47.06,20.31
					c-6.37,5.17-13.02,11.19-8.33,19.67c3,5.43,8.41,6.82,13.07,9.96c0.94-1.21-1.78-3.72-2.29-4.43c3.94,0.81,3.82,2.64,6.68,4.24
					c2.36,1,4.8,1.77,7.3,2.32c6.69,2.43,9.98,8.41,16.61,10.11c2.09,0.54,4.81,1.8,6.93,2.17c2.56,0.4,4.47-0.69,7.07-0.22
					c1.39,0.92,2.92,1.59,4.54,1.97c1.06-0.49,2.12-1.01,3.15-1.56c3.36,0.77,6.47,2.37,9.05,4.66c0.22-2.43-0.08-4.95,2.22-6.53
					c0.89,2.36-0.55,3.85,1.88,5.47c3.1,2.05,7.17-0.51,9.94-1.81c0.81,7.84,18.95,7.39,24.68,7.28c7.97-0.15,15.93-3.31,23.97-1.55
					c4.09,0.91,8.46,1.84,12.53,3.01c4.91,1.39,10.85,2.66,15.7,4.43c1.92,0.71,4.27,2.96,6.33,2.83c1.62-0.12,2.07-2.52,3.97-2.46
					c2.14,0.08,2.86,2.47,4.73,3.2c2.78,1.08,5.33-0.97,7.97,0.05c0.94,0.37,2.24,1.97,3.45,2.49c2.48,0.6,5.01,1,7.55,1.18
					c2.66,0.28,5.34,0.4,8.02,0.35c2.02,0.15,1.97,1.5,2.93,1.58c1.11,0.1,3.03-3.7,4.51-4.26c2.15-0.81,6.09,1.13,8.29,1.46
					c-16.14,21.51-34.99,40.84-56.09,57.52c-22.49,18.05-45.54,36.11-69.69,51.95c-21.9,14.39-43.12,26.82-60.11,47.14
					C22.2,1070-0.62,1088.34,2.9,1113.15c3.52,24.82,30.45,34.89,52.02,39.61c27.14,5.96,55.08,3.57,82.3,6.92
					c12.04,1.14,24.17,0.95,36.17-0.55c13.8-1.43,25.62-10.43,37.48-16.94c21.34-11.72,39.59-27.39,60.6-39.47
					c26.31-15.13,52.36-31.13,81.19-41.27c13.42-4.71,27.24-10.11,38.07-19.79c1.42-1.72,2.97-3.32,4.63-4.81
					c3.1-2.02,3.92,0.04,5.72-0.59c1.38-0.47,2.72-1.95,3.92-2.43c2.5-0.8,5.15-1.03,7.76-0.68c-3.2-1.45-4.63-5.23-3.17-8.43
					c0.17-0.38,0.39-0.75,0.63-1.09c5.17-6.02,6.06,3.62,7.99,5.85c1.65-2.12,1.03-4.01,0.6-6.41c1.38,0.93,2.78,1.84,4.17,2.76
					c-0.94-4.48-0.06-9.15,2.43-12.99c2.08-2.32,3.3-5.28,3.45-8.4c7.07,6.44,8.45-9.2,9.09-14.91c0.61-5.52,0-9.49,3.64-14.33
					c4.41-4.75,9.38-8.95,14.81-12.5c7.82-6.38,16.44-14.43,27.27-8.31c8.55,4.83,13.19,16.65,21.21,22.73
					c4.85,3.68,9.99,4.07,13.1,9.79c2.51,4.61,3.31,10.15,5.69,14.89c5.88,12.39,13.79,23.72,23.4,33.5
					c8.77,8.23,20.02,8.18,30.27,13.27c10.16,5.4,20.67,10.13,31.46,14.15c11.74,4,24.39,5.69,35.82,10.53
					c5.89,2.49,11.14,6.24,17.08,8.61c6.39,2.57,13.12,4.39,19.62,6.75c25.67,9.32,50.81,20.76,77.78,25.93
					c11.96,2.29,23.04,8.53,35.09,9.84c4.88,0.48,9.71,1.34,14.45,2.56c7.94,2.02,6.26,3.11,9.18,9.73
					c4.81,10.91,16.57,4.45,25.61,4.73c14.48,0.44,28.77-1.92,43.25-2.02c25.17,0.26,50.22-3.57,74.16-11.35
					C985.38,1119.72,1013.37,1099.62,992.93,1071.84z M821.38,763.28c-6.06,12.99-11.58,28.67-22.81,38.24
					c-2.46,2.1-12.93,10.31-16.92,8.93c-3.38-1.16-1.53-8.01-0.94-10.93c1.95-13.5,9.24-25.66,20.24-33.73
					c5-3.92,11.41-8.95,17.83-9.91C825.7,754.85,823.72,758.29,821.38,763.28L821.38,763.28z M830.43,740.9
					c-2.83,9.79-5.79,7.28-14.71,9.17c-8.92,1.89-15.12,9.49-23,13.56c2.73-5.77,4.43-12.82,9.02-17.51
					c1.04-1.1,7.54-3.23,3.84-5.74c-3.23-2.19-7.87,4.93-9.25,6.87c-6.61,9.98-11.84,20.81-15.55,32.2
					c-1.97,5.38-3.45,10.93-4.41,16.57c-0.81,5.05,0.07,10.33-0.76,15.26c-1.35,7.92-12.13,7.96-18.59,10.01
					c-5.8,2.04-11.75,3.66-17.79,4.85c-5.26,0.86-10.73-0.71-15.85,0.32c-5.53,1.13-8.03,4.41-14.32,3.67
					c-5.11-0.61-9.93-2.96-15.13-3.2c-4.85-0.22-9.7,1.46-14.55,0.1c-4.85-1.36-4.64-1.92-3.53-6.71c0.69,1.29,1.38,2.59,2.09,3.87
					c1.94-1.51,3.28-6.16,4.47-8.34c1.85-3.38,3.35-4.56,2.68-8.76c-1.01-6.22-6.63-10.65-7.89-16.57
					c-1.33-6.16,3.23-11.22,5.92-16.37c3.57-5.99,3.78-13.4,0.55-19.58c2.32,0.62,4.66,1.21,7,1.85c-3.2-6.93-14.03-4.12-19.46-2.07
					c-2.74,1.03-7.07,5.1-9.99,4.98c-4.04-0.13-6.16-5.45-7.89-8.36c-5.1-8.52-10.67-16.75-16.69-24.66
					c-1.62-2.15-3.77-3.55-3.21-6.01c0.49-2.09,5.17-5.05,6.69-6.34c5.69-4.81,12.93-7.49,18.29-12.55
					c8.08-7.68,17.41-13.16,25.69-20.66c8.61-7.82,17.48-15.02,26.46-22.41c9.09-7.49,16.98-16.32,26-23.87
					c2.34,4.24,6.87,19.4,12.05,20.58c6.04,1.38,5.85-5.77,5.55-10.08c-0.4-6.12-3.82-12.08-4.2-17.94
					c-0.4-6.26,5.62-9.05,10.16-12.67c7.01-5.6,22.54-18.34,14.2-28.82c-7.2-9.02-30.59,8.29-37.03,13.49
					c-4.93,4.43-10.25,8.42-15.88,11.91c-4.34,2.46-11.61,11.9-16.76,11.02c-6.11-1.04-8.49-7.72-15.98-7.5
					c-7.32,0.22-13.53,5.49-18.05,10.77c-10.25,11.96-13.78,27.94-23.12,40.42c-4.61,6.14-10.58,11.2-15.56,17.01
					c-5.5,6.37-6.66,13.74-12.06,19.97c-15.48-20.62-32.34-40.14-48.67-60.08c-8.14-9.96-16.13-20.04-24.11-30.13
					c-3-3.79-6.36-7.35-9.1-11.32c-3.75-5.43-3.06-9.81-4.54-15.88c-0.66-2.69-3.7-5.92-2.89-8.49c1.11-3.45,8.83-6.16,11.63-7.57
					c11.15-6.05,21.93-12.75,32.3-20.05c19.65-13.07,39.52-25.32,60.42-36.49c-0.35,4.81-3.48,9.79-1.38,14.62
					c0.97-2.78,2.52-15.14,6.23-15.66c-0.46,6.03-0.31,12.1,0.46,18.1c1.24,6.59,7.04,11.34,13.74,11.26
					c13.53-0.08,25.64-14.81,33.15-24.55c5.51-6.57,9.53-14.25,11.76-22.53c1.62-7.4-0.17-12.57,7.54-16.32
					c15.52-7.79,31.84-13.87,48.67-18.12c-0.76,7.28-2.88,16.27,3.75,21.5c7.3,5.79,16.87,0.64,23.76-3.2
					c6.82-3.78,17.33-14.2,25.34-11.17c7.89,2.96,13.34,12.85,17.79,19.4c3.89,5.77,8.13,9.94,3.64,16.39
					c-4.63,7.08-8.76,14.47-12.37,22.12c-1.55,3.01-3.03,4.98-1.94,8.08c1.55,2.8,3.39,5.42,5.5,7.82
					c7.02,5.45,16.49-4.93,21.5-8.86c1.77,16.98,2.17,33.87,2.88,50.91c0.52,12.47,5.35,24.75-4.88,33.87
					c-10.25,8.55-18.75,19.02-25.02,30.81c-3.33,6.6-6.33,13.34-9.93,19.81c-2.43,4.33-7.49,10.65-4.37,15.71
					c3.28-3.11,4.26-7.84,6.98-11.34c1.65,7.28,3.3,15.36,10.99,18.44c8.87,3.55,17.68-2.59,25.52-6.01
					C840.94,703.06,836.34,722.18,830.43,740.9L830.43,740.9z M672.68,781.03c-2.15-3.84-7.94-9.52-6.63-14.45
					c1.01-3.77,10.05-8.82,13.83-6.66c5.03,2.88-2.25,21.76-7.19,21.12L672.68,781.03z M655.8,798.98
					c-6.65,0.4-3.33-9.64-2.68-13.64C654.72,788.13,663.18,798.56,655.8,798.98L655.8,798.98z M687.07,635.96
					c-3.18,3.21-22.33,19.33-25.42,16.84C667.89,643.87,675.08,633.89,687.07,635.96L687.07,635.96z M674.69,629.21
					c4.68-6.8,20.09-15.98,26.68-5.84c3.18,4.88-4.53,7.39-9.17,6.12c-2.33-1.04-4.77-1.81-7.28-2.29
					C681.43,627.08,678.02,629.82,674.69,629.21L674.69,629.21z M623.83,744.1c-3.55,8.49-31.9,20.76-26.61,3.67
					c2.34-7.57,4.54-13.31,13.38-13.88C615.67,733.57,626.94,736.66,623.83,744.1L623.83,744.1z M512.13,557.91
					c-7.2,1.52-9.64,0.13-14.39-5.37c-3.12-3.84-6.45-7.49-9.98-10.95c-3.7-3.43-12.82-11.68-1.21-6.92
					c9.76,4.58,20.63,6.24,31.31,4.79c13.34-1.95,25.74-7.57,38.88-10.43c-7.2,6.31-14.35,12.67-21.57,18.95
					C527.58,554.63,521.81,555.86,512.13,557.91L512.13,557.91z M529.97,587.42c-1.62,3.28-6.33-4.91-7.49-6.44
					c2.17,0.02,9.14,3.15,7.48,6.46L529.97,587.42z M509.11,563.22c1.45-0.47,7.52-3.99,8.89-2.02s-10.51,8.8-8.9,2.04
					L509.11,563.22z M513.77,608.57c-15.76,11.86-47.48,10.58-36.78-15.51c1.65-3.97,3.84-7.7,6.51-11.07
					c1.02-1.57,2.26-2.99,3.68-4.22c3.48-2.12,2.52-2.37,5.87,1.14c2.88,3.07,25.47,27.92,20.71,29.68L513.77,608.57z
					 M491.19,299.02c1.81-0.12,21.55-2.66,21.45-0.2c-0.33,7.39-19.49,1.6-21.44,0.22L491.19,299.02z M357.09,285.39
					c14.77,3.2,28.67,8.72,43.62,11.19c15.11,2.51,29.91,6.34,45.05,8.73c13.81,2.17,27.02,5.8,40.7,8.58
					c13.31,2.71,26.97-3.23,39.97-6.24c29.1-6.73,58.23-13.63,87.38-20.17c33.65-7.54,68.66-14,100.86-26.57
					c0.62,16.76,1.96,33.47,4.02,50.15c-14.22-6.73-35.33-15.49-49.72-3.46c-5.63,5.08-7.7,13.03-5.26,20.21
					c2.47,7.68,10.06,11.25,15.06,17.06c-15.23-3.9-54.51-31.43-61.51-3.62c-4.93,19.65,19.16,32.34,30.94,43.41
					c-11.69-2.29-27.36-11.64-34.24,3.4c-5.94,12.99,1.21,27.12,8.55,37.84c3.97,5.8,8.43,11.27,12.65,16.91
					c2.22,2.98,4.41,5.99,6.75,8.89c2.34,2.9,6.79,5.92,8.43,9.03c3.33,6.29-3.36,6.68-8.58,8.95c-6.29,3.33-12.31,7.14-18.02,11.39
					c-13.61,8.7-25.51,16.78-41.61,19.55c-16.57,2.86-32.5,5.84-48.84,9.83c-16.34,3.99-29.59,7.81-46.25,2.66
					c-6.96-2.7-14.36-4.06-21.83-3.99c-8.46,0.47-13.39,0.03-20.36-5.21c-29.91-22.53-62.42-41.03-93.31-62.32
					c10.43-12.85,27.27-26.75,27.49-44.74c0.37-26.45-28.99-13.26-43.76-12.15c7.81-7.68,47.04-39.86,23.85-51.28
					c-6.68-3.28-16.17-0.08-22.85,1.65c-11.88,3.04-22.92,8.34-34.57,12.01c8.33-8.86,22.73-18.96,22.26-32.39
					c-0.57-16.37-14-12.42-25.62-10.01c-4.45,0.93-24.38,8.85-28.13,3.46c-1.36-1.97,0.84-4.47,1.31-6.22
					c0.6-2.41,0.81-4.9,0.61-7.37c0.05-6.39,4.31-14.62,0.84-20.58c-0.78,1.35-1.46,2.76-2.02,4.22c-1.14-3.46-0.37-7.13-1.52-10.6
					c28.98,7.42,58.44,11.46,87.63,17.79L357.09,285.39z M646.11,509.14c2.05-4.61,5.95-5.57,10.15-8.01
					c12.82-7.15,26.13-13.39,39.82-18.69c2.3,11.1-8.93,25.47-15.87,33.06c-5.57,6.58-12.34,12.03-19.95,16.07
					c-8.21,3.82-17.18,2.14-16.79-8.6c0.15-4.71,1.04-9.37,2.63-13.81L646.11,509.14z M332.77,402.32
					c9.89-4.12,24.92-8.93,35.73-7.12c-3.36,7.65-8.33,14.49-14.58,20.04c-5.28,5.11-11.9,12.82-18.29,16.37
					c-5.8,3.23-12.53-1.88-18.27-4.04c-6.29-2.36-14.96-3.45-19.75-8.63c11.57-5.78,23.21-11.6,35.15-16.6L332.77,402.32z
					 M300.52,448.23c5.77-2.43,18.15,5.63,23.4,7.72c10.47,3.74,20.45,8.74,29.73,14.89c-10.82,13.1-23.88,24.19-38.56,32.74
					c-9.81,5.4-26.35,11.63-35.62,1.78c-11.63-12.35,2.36-37.52,10.6-48.1c0.27,1.82,0.54,3.64,0.81,5.43
					c2.62-4.18,4.64-12.38,9.63-14.45L300.52,448.23z M770.91,455.92c2.62-0.15,5.16,0.25,7.75,0.08c1.73-0.33,3.5-0.43,5.26-0.29
					c0.25,0.37,0.51,0.72,0.76,1.09c0.34,2.47,1.63,2.74,3.89,0.81c2.87,0.48,5.64,1.45,8.19,2.86
					c-8.11,5.85-17.98,12.65-27.93,14.62C753.1,478.2,757.44,456.66,770.91,455.92L770.91,455.92z M836.8,510.86
					c2.74,6.18,5.49,11.32,0.4,16.84c-2.3,2.49-9.81,7.94-13.21,6.73c-10.92-3.88,9.84-20.79,12.79-23.56L836.8,510.86z
					 M845.41,672.91c-6.78,14.07-36.57,15.68-32.54-5.13c1.98-10.19,10.38-16.46,17.6-23.13c3.35-3.08,11.51-14.1,16.67-12.33
					c-0.23,7.94-0.71,15.9-0.69,23.82c0,5.31,1.33,11.8-1.06,16.78L845.41,672.91z M824.91,641.19c2.2-9.09,14.64-19.7,22.58-23.72
					c-4.02,9.92-14.68,16.69-22.59,23.74L824.91,641.19z M933.64,565.2c0.55,7.52,0.12,15.11,1.11,22.6
					c0.78,5.69,3.08,10.99,3.31,16.76c0.63,12.74-3.8,25.21-12.33,34.69c-8.53,8.99-19.07,15.82-30.76,19.94
					c-4.94,1.65-10.11,5.33-14.9,6.68c-5.32,1.52-10.38-1.77-14.75,4.11c-2.93-25.15-0.81-51.41-1.03-76.72s0.05-50.71-4.24-75.78
					c-3.82-22.34-11.35-47.46-25.24-65.73c-5.76-7.24-12.45-13.69-19.89-19.2c-3.72-3.11-7.67-5.93-11.83-8.43
					c-6.51-3.6-12.06-3.1-19.15-4.12c-9.8-2.1-19.95-2.05-29.73,0.15c-9.8,2.4-19.31,5.86-28.36,10.31
					c-8.46,4.59-18.27,6.5-27.04,10.6c-5.97,2.83-18.36,12.18-24.98,10.48c-6.41-1.62-15.88-12.5-19.97-17.38
					c-5.23-6.22-9.56-13.44-14.2-20.14c-2.37-2.62-4.19-5.68-5.37-9c-0.74-5.25,1.36-3.53,6.36-2.94
					c12.68,1.38,25.19,4.04,37.33,7.96c6.14,2.02,18.14,10.16,24.28,5.28c9.39-7.47-4.85-20.29-10.08-24.6
					c-8.89-7.35-19.23-12.8-28.7-19.33c-10.08-6.93-23.38-14.32-29.86-24.99c18.91,5.59,37.82,11.98,56.19,19.18
					c8.44,3.17,16.65,6.9,24.6,11.15c4.45,2.46,13.39,9.12,18.74,5.92c11.59-6.92-15.06-27.05-18.91-31.16
					c-5.97-6.39-11.83-12.72-18.39-18.53c-4.45-3.9-11.41-6.66-13.46-12.42c7.35,2.66,13.31,7.87,20.19,11.41
					c3.39,1.8,7.08,2.99,10.89,3.5c2.89,0.35,5.66,1.37,8.08,2.98c2.62,1.55,5.37,2.88,8.21,3.97c2.58,0.35,5.11,0.99,7.54,1.92
					c0.94,1.33,1.9,2.64,2.89,3.92c1.11,0.34,2.2,0.71,3.28,1.14c1.62,1.43,2.57,3.42,4.14,4.91
					c11.41,10.78,26.68,18.51,39.47,27.54c12.1,8.55,24.93,16.29,36.56,25.61c13.83,10.62,26.76,22.39,38.63,35.17
					c6.21,7.48,11.93,15.36,17.11,23.59c3.91,5.82,9.59,10.67,12.97,16.67c7.37,13.1,13.49,27.26,21.42,40.14
					c8.07,13.15,18.59,26.2,19.82,42.18L933.64,565.2z M914.98,451.06c-4.59,2.19-5.74-3.04-9.03-3.26c3.87-2.41,3.87-2.41,9,3.26
					L914.98,451.06z M648.31,195.22c2.03,0.06,4.04,0.4,5.99,0.99c1.29,0.54,1.7,2.37,3.3,2.76c0.77,0.2,2.62-1.55,3.5-1.29
					c3.45,0.97,0.72,1.21,2.91,2.64c1.73,1.13,1.58,2.57,4.76,2.02c1.42-0.23,2.94-2.43,3.68-2.47c0.94-0.07,0.72-1.21,2.17-0.89
					c2.62,0.62,2.39,4.01,3.28,5.66c0.93,1.78-0.4,4.14,2.43,5.11c2.12,0.72,2.66-1.52,4.45-1.35c1.64,0.51,3.12,1.41,4.34,2.62
					c3.39,3.44,7.29,6.32,11.58,8.55c-0.4-0.4,1.98-1.41,1.42-1.65c-0.4-0.15,2.12,0.45,2.09,0.44c2.43,0.55,3.7,4.27,4.91,5.62
					c2.45,2.72,5.49,4.84,8.89,6.21c5.45,1.9,5.3-0.37,7.28,6.11c3.87-6.09,5.37,4.11,10.16,5.23c2.49,0.59,2.2-0.49,4.47,0.81
					c1.55,0.89,2.57,3.64,3.75,4.95l1.52-5.7c3.45,6.54,10.93,16.98,19.13,15.07c0,1.78-0.74,3.94,0.64,5.45
					c0.97,1.08,2.54-0.13,3.3,0.49c0.66,0.54,2.24,2.69,2.74,3.04c1.01,0.71,2.83,1.21,3.69,1.92c0.76,0.61,1.14,3.53,1.98,4.59
					c1.62,2.02,4.34,2.39,5.66,4.78c0.29-2.36,0.59-4.71,0.87-7.07c2.05,1.54,3.31,3.91,3.45,6.47c0.89,4.16-0.3,3.18,2.57,4.95
					c2.83,1.71,4.27,1.53,6.87,4.53c2.52,2.93,2.56,4.73,6.21,1.68c0.3,2.5,1.23,4.88,2.71,6.92c1.36,1.31,7.03,1.36,7.59,4.45
					c-10.67-9-3.64,4.66,0,0c0.77,4.98,4.41,6.58,8.56,10.11c3.87,3.3,4.51,3.06,5.82,8.6c0.75,0.36,1.46,0.81,2.09,1.36
					c-3.77,0.54,2.09,4.75,3.08,5.52c0.72,0.57,1.65-0.77,2.86,0.13c1.37,1.48,2.57,3.1,3.6,4.83c2.59,3.63,5.41,7.09,8.44,10.36
					c3.43,3.4,5.1,7.68,8.4,11.66c3.2,4.57,6.11,9.33,8.7,14.26c3.15,4.31,6.54,8.45,10.15,12.38c5.37,6.65,7.2,21.25,17.2,21.63
					c-0.57,0.61,0.23,5.15,0.34,5.97c-0.13,4.09,0.76,8.15,2.59,11.81c0.55-4.26,2.78-2.62,4.71-0.4c3.21,3.72,0.4,2.78,0.55,6.54
					c0.22,4.56,0.72,1.03,2.47,5.01c1.28,2.75,2.23,5.64,2.83,8.61c-5.66,0.45-8.24-4.17-10.33-8.65c-0.87-1.87-1.18-4.95-2.71-6.41
					c-1.65-1.56-3.92-1.68-5.6-3.42c-3.23-3.35-4.66-8.55-8.49-11.81c-3.33-2.9-6.3-6.19-8.85-9.79
					c-3.95-4.85-9.42-8.26-13.56-12.94c-4.14-4.67-3.82-2.14-9.03-3.84c-5.55-1.81-14.52-19.27-21.5-12.53
					c0.27-4.41-6.31-8.53-9.62-10.13c-1.45-0.69-3.11-0.07-4.56-1.1c-1.56-1.13-1.67-3.28-3.23-4.63c-0.94,0.27-1.92,0.38-2.89,0.34
					c-1.01-0.51-1.01-2.29-1.89-2.88c-2.43-1.62-5.35-3.33-7.92-4.71c-6.29-3.38-11.84-7.52-17.9-11.58
					c-5.2-3.48-11.47-9.76-17.48-11.59c-5.26-1.62-8.55-0.81-12.84-3.99c-2.34-1.75-1.65-2.34-5.4-3.42
					c-3.58-1.03-5.59-0.51-7.49-4.29c-3.31-6.65-1.21-19.6-1.87-27.05c-0.48-7.98-1.67-15.9-3.55-23.67
					c-0.67-3.5-2.2-6.77-4.45-9.54c-0.3-0.32-0.63-0.62-0.97-0.89c-2.96-1.92-6.63-2.38-9.98-1.26c-19.3,4.24-38.36,8.28-57.74,12
					c-38.63,7.42-76.6,19.53-114.37,30.28c-2.88,0.81-18.93,4.49-15.65-3.8c1.5-3.84,11.66-5.25,15.06-6.47
					c18.68-6.61,37.43-13.34,56.53-18.69c22.49-6.7,45.69-10.77,69.12-12.13c10.7-0.52,21.05-0.19,31.63-0.1
					c6.09,0.07,10.73-4.85,5.87-10.51c-6.75-7.82-27.27-4.85-36.38-5.2c-23.71-1.23-47.43,2.12-69.87,9.88
					c2.45-4.51,8.31-5.08,12.35-7.42c4.79-2.98,8.45-7.47,10.4-12.77c5.47-13.59-0.05-26.38-5.79-38.81
					c11.26,3.14,22.92,9.79,34.25,11.47L648.31,195.22z M581.75,247.21v-7.84c2.83,1.53,5.64,3.08,8.46,4.61L581.75,247.21z
					 M595.85,178.25c-3.5,2.27-7.01,4.54-10.51,6.8c-1.77-7.83,4.15-8.87,10.48-6.8L595.85,178.25z M578.47,202.5
					c2.46,2.02,7.44-2.83,9.52-3.8c3.73-1.9,7.87-2.85,12.06-2.76c7.13,0.8,12.27,7.22,11.48,14.36c-0.03,0.28-0.07,0.56-0.12,0.83
					c-2.27,12.38-19.92,18.24-29.64,23.08c-0.32-4.39-1.73-9.67,1.33-13.46c2.68-3.3,7.86-3.06,10.33-6.58
					c6.21-8.82-10.61-9.61-14.37-2.59c-1.48-4.49-2.98-8.97-4.45-13.44c3.56-0.58,2,2.85,3.85,4.37L578.47,202.5z M406.96,226.43
					c0.25-7.07,0.34-14.15,1.21-21.2c5.89,7.28,11.19,9.44,18.59,2.64c7.11-6.53,8.7-9.93,17.7-3.8c6.95,5.11,16.37,5.27,23.49,0.4
					c5.06-2.83,13.19-14.43,18.5-12.05c2.52,1.14,4.37,5.72,6.95,7.42c3.69,2.11,7.7,3.59,11.88,4.39
					c8.84,1.94,14.1-3.74,19.65-9.83c8.02-8.82,7.79-3.69,15.26,2.43c8.31,6.82,15.26,3.48,22.79-2.34
					c4.17,13.73,6.71,27.89,7.59,42.21c0.44,4.76,2.09,11.52-2.19,14.87c-3.03,2.39-9.41,2.47-13.04,3.79
					c-13.06,4.66-25.3,11.36-36.25,19.85c-4.24,3.31-7.91,7.37-13.68,6.61c-5.5-0.71-10.85-5.32-15.28-8.36
					c-4.65-3.67-9.79-6.66-15.28-8.89c-3.28-1.08-8.55-0.68-11.42-2.66c-5.35-3.67,0.94-13.29-0.4-19.75
					c-1.01-4.91-3.84-15.14-10.58-12.26c-10.06,4.27-4.21,20.98,1.31,26.19c-11.78-2.03-23.39-4.93-34.74-8.67
					c-8.39-2.84-12.38-12.37-12.08-21L406.96,226.43z M424.42,266.21c12.87,3.31,25.55,7.31,38,11.98c4.49,1.75,9.4,2.37,13.8,4.34
					c4.19,1.87,4.83,1.68,3.33,5.35c-4.17,10.28-14.06,8.51-22.73,6.93c-13.56-2.46-26.84-5.87-40.23-9.09
					c-13.09-3.14-26.45-5.2-39.33-9.14c-13.05-4.19-26.32-7.7-39.74-10.51c-3.97-0.77-35.38-3.67-35.14-6.95
					c19.79-2.57,40.16-0.03,60.03,0.23c20.88-0.31,41.71,1.99,62.01,6.84L424.42,266.21z M393.47,174.66v11.45
					c-3.85-2.2-7.7-4.4-11.56-6.58c3.84-1.62,7.69-3.25,11.54-4.87L393.47,174.66z M362.44,205.06c6.64-8.41,17.75-11.9,28-8.78
					c12.4,3.55,7.17,12.2,5.3,21.8c-4.2-5.91-10.71-9.76-17.91-10.58c-9.34-0.23-5.8,7.56-0.19,10.35c5.1,2.54,13.85,3.23,17.5,7.86
					c3.55,4.49,2.19,11.83,2.76,17.11c-2.76-0.4-5.52-0.81-8.28-1.21c2.3-12.35-7.89-12.94-17.41-16.44
					c-9.64-3.53-17.67-10.47-9.77-20.11L362.44,205.06z M272.57,249.22c0.44-1.68,8.99-6.11,11.09-7.54
					c3.15-2.17,7.82-7.47,11.34-5.37c1.42-5.18,5.19-9.38,10.18-11.35c6.19-1.91,12.03-4.83,17.26-8.65
					c1.35-1.01,1.78-2.51,3.37-3.46c2.74-1.67,5.47-0.76,8.11-3.03c0.4-0.34,4.04-6.33,4.21-6.33c0.19,0.65,0.37,1.31,0.51,1.97
					c2.58-1.17,4.94-2.78,6.98-4.75c0.4-0.44-2.13-1.62-1.35-2.47c0.99-1.1,3.18,0.12,4.17-0.91c-3.08,15.36-0.81,35.11,14.79,42.9
					c-18.52,2.02-36.61-3.57-55.35-0.15c-9.11,1.55-17.96,4.39-26.27,8.44c-5.01,2.54-11.41,11.59-16.39,7.2
					c2.27-2.37,4.73-4.54,7.35-6.5L272.57,249.22z M159.56,348.48c1.31-1.21,3.97,0.29,5.47-0.68c1.04-0.68,0.69-1.35,1.18-1.75
					c0.1-0.08,1.53-2.96,2.11-3.6c1.03-1.16,3.27-1.87,4.53-2.91c3.18-3.02,5.78-6.6,7.66-10.57c1.45-3.38,4.23-6.01,7.68-7.28
					c2.84-1.44,5.4-3.37,7.55-5.72c2.72-2.86,2.52-4.9,4.78-8.02c1.1-1.53,2.69-1.73,3.99-2.96c1.55-1.5,2.34-3.57,3.77-5.06
					c0.61-0.65,2.59-0.65,2.98-1.21c0.47-0.71,0.84-3.52,1.3-4.04c0.84,1.16,1.7,2.32,2.56,3.46c2.57-5.77,6.5-10.83,11.46-14.75
					c5.92-4.14,11.02-10.19,17.14-13.91c1.36-0.81,4.17-1.18,5.21-2.43c1.78-2.07,0.23-3.92,1.53-5.69c1.48-2.02,4.33-0.4,6.19-1.24
					c2.36-1.1,3.03-4.27,6.06-3.92c-10.01,11.83-9.88,30.25-10.41,45.04c-0.22,6.37,3.79,9.59-2.14,14.25
					c-5.03,3.99-12.13,2.83-18.1,5.42c-7.47,3.3-15.48,5.05-23.12,7.91c-7.89,2.96-14.23,8.15-21.83,11.58
					c-6.03,3.31-11.84,7.01-17.38,11.07c-2.29,1.38-5.82,3.4-8.53,1.73c-1.74-0.99-3.88-2.71-1.64-4.71L159.56,348.48z
					 M161.09,353.43c-0.54,1.46-2.83,5.99-4.49,2.83c-0.55-1.03,3.37-2.4,4.48-2.83L161.09,353.43z M68.39,592.43
					c5.33,3.52,5.89,7.66,6.06,13.71C68.06,604.03,68.96,597.85,68.39,592.43L68.39,592.43z M66.42,589.34
					c0.62-2.26,1.21-4.53,1.85-6.78c0.76,2.1,4.16,4.41,4.22,6.41c0.04,1.31-5.41,0.66-6.09,0.37L66.42,589.34z M76.36,610.76
					c-1.04,0.84-2.48,0.99-3.67,0.37c-0.88-0.86,1.42-4.17,1.78-4.85c0.88,0.69,2.96,2.96,1.87,4.49L76.36,610.76z M111.47,669.66
					c-0.46-1.85-0.88-3.53-1.4-5.63c4.63,2.87,4.63,2.87,1.39,5.65L111.47,669.66z M157.12,467.42c-3.15,8.26-5.69,16.76-8.76,25.06
					c-1.23,3.36-3.11,6.45-5.53,9.08c-2.14,2.43-4.68,3.04-4.59,6.9c2.55-0.7,4.91-1.94,6.93-3.64c-0.52,7.6-3.21,15.81-4.52,23.4
					c-1.66,9.07-2.77,18.23-3.33,27.44c-1.06,20.07-1.06,40.07-0.62,60.16c0.22,10.23,0.32,20.47,0.87,30.69
					c0.29,5.1,0.59,10.19,1.21,15.26c0.27,2.02,1.75,6.37,0.81,8.29c-3.58,7.5-19.5-13.12-26.42-10.11c0.99-5.7-1.31-4.45-5.13-7.28
					c-1.87-1.36-3.06-3.68-5-4.9c-0.59-0.62-1.24-1.19-1.94-1.68c-0.81-1.1-1.65-0.97-2.54,0.35c-7.79-4.66-9.79-14.59-13.98-21.27
					c-2.15-3.43-4.22-3.95-4.59-8.7c-0.32-4.14,0.3-8.36,0.13-12.5c-0.02-4.85-0.61-9.68-1.77-14.39c-1.53-5.25-3.64-4.85-7.72-7.66
					c1.22-0.49,2.14-1.52,2.49-2.78c-1.3,0.23-5.26,1.85-6.26,0.69c-1.94-2.27,2.64-2.58,3.85-3.5c-5.13-2.27-4.04-4.14-2.19-8.31
					c0.54-1.18,1.03-2.94,1.48-3.94c0.97-2.17,1.53-0.81,1.85-3.5c-0.44-3.56-1.34-7.05-2.66-10.38c-1.31-4.34-1.57-8.92-0.74-13.38
					c1.38-3.71,2.45-7.52,3.2-11.41c0.03-1.11-1.67-1.48-1.7-2.58c-0.03-1.58,1.45-2.27,1.84-3.74c0.38-3.81,1.12-7.58,2.22-11.25
					c1.91-3.58,4.16-6.96,6.71-10.11c1.5-1.92,5.17-4.11,5.57-6.65c0.25-1.68-2.37-1.5-2.26-2.76c0.17-1.73,1.62-2.29,2.02-3.57
					c0.49-3.51,1.94-6.82,4.19-9.57c3.55-3.38,5.1-1.95,5.26-7.54c0.07-2.72-2.12-3.14-0.94-6.29c0.62-1.7,2.51-2.71,3.7-3.92
					c3.34-3.31,6.2-7.08,8.49-11.19c2.24-3.92,5.8-6.19,8.08-9.57c3-4.41-1.48-6.6,4.58-7.82c-0.86-2.74-1.77-4.95,0.51-7.28
					c1.41-1.46,5.05-0.57,6.31-2.26c1.45-1.94-0.69-6.53,1.5-7.79c1.77-1.03,4.45,2.12,7.24,0.57c2.88-2.61,4.56-6.29,4.64-10.18
					c5.5,3.1,4.14,0.97,6.76-3c0.59-0.89,2.39-1.1,2.89-1.98c1.01-1.8,0.81-3.64,2.26-5.1c2.43-2.43,6.43-1.8,9.1-3.53
					c2.22-1.43,2.1-2.98,3.88-4.34c1.52-1.14,3.99-1.38,5.47-2.57c2.88-2.34,2.91-4.83,6.51-6.85c4.2-2.16,8.19-4.7,11.93-7.59
					c2.53-2.07,4.93-5.74,7.89-7.1c3.91-1.21,7.68-2.78,11.29-4.71c2.89-1.95,5.64-5.15,8.49-6.8c2.03-0.87,4.16-1.45,6.34-1.73
					c4.85-1.38,6.06-5.95,10.02-7.82c2.73-1.28,6.68-0.12,9.68-0.81c9.3-2.09,18.5-6.59,27.84-9.09
					c11.41-3.04,22.88-5.72,34.36-8.41c-10.98,14.3-23.61,27.25-37.64,38.58c-4.47,3.74-29,20.74-15.8,28.01
					c5.32,2.91,16.84-6.51,21.13-8.8c8.66-4.47,17.53-8.51,26.6-12.09c14.62-6.06,33.65-16.84,49.89-15.98
					c-9.88,12.13-22.23,21.87-33.55,32.59c-10.4,9.84-26.04,19.08-21.15,35.2c-14.58-3.72-27.71-8.11-42.88-7.13
					c-6.8,0.44-13.59-0.4-20.36,0.57c-7.25,1.32-14.39,3.21-21.35,5.66c-5.6,1.7-11.78,1.84-16.92,4.68
					c-2.71,1.51-5.32,3.19-7.81,5.05c-2.34,1.92-4.36,4.21-5.99,6.76c-8.37,10.74-16.44,20.77-21.41,33.81L157.12,467.42z
					 M254.13,444.49c-3.6,14.81-31.7,30.96-31.98,6.71c-0.12-9.03,4.96-8.31,12.37-9.17c4.21-0.5,21.67-5.99,19.6,2.47
					L254.13,444.49z M170.65,524.93c1.26-6.14,4.37-28.92,11.86-29.91c26.89-3.46-4.09,25.41-11.86,29.94L170.65,524.93z
					 M164.59,615.8c3.33-2.66,12.26,0.72,16.13,0.96l-15.95,13.93c-0.38-3.17-3.29-12.43-0.21-14.86L164.59,615.8z M166.31,651.57
					c-1.48-12.5,3.3-21.37,14.6-27.93c8.06-4.68,14.55,1.71,13.46,10.23c-1.68,12.99-15.55,27.42-26.13,34.18
					c-0.72-5.46-1.31-10.96-1.97-16.46L166.31,651.57z M209.06,797.9c-4.3-6.39-8.14-13.09-12.38-19.52
					c-2.57-3.94-5.77-8.14-3.57-12.94c3.7-8.08,16.79-9.52,23.91-6.01c16.11,8.04,1.12,30.95-7.99,38.47L209.06,797.9z
					 M391.92,921.01c-0.55,18.25-2.02,36.46-2.57,54.7c-0.25,8.43-1.73,16.46-2.72,24.77c-0.84,7.05-0.4,13.95-4.85,19.95
					c-6.98,9.49-20.56,12.22-31.09,15.71c-7.74,2.59-15.58,4.93-23.22,7.79c-6.87,2.57-12.42,6.47-18.96,9.54
					c-5.84,2.74-12.16,4.37-17.98,7.28c-6.02,3.03-10.78,6.7-16.98,9.39c-7.12,3.84-13.85,8.36-20.11,13.49
					c-6,3.5-11.66,7.56-16.91,12.13c-4.68,4.73-10.6,6.8-15.9,10.99c-5.59,4.07-11.49,7.68-17.67,10.8
					c-12.68,7.12-29.8,19.3-45.05,12.36c4.36-5.57,13.29-10.93,13.97-18.59c0.89-10.01-7.83-6.33-12.87-3.13
					c-6.7,4.81-12.65,10.58-17.67,17.13c-6.82,7.56-15.4,2.47-23.72,0.35c5.7-5.11,11.34-10.3,17.01-15.43
					c4.79-4.33,12.13-9,15.06-14.99c2.09-4.29,1.98-10.15-3.06-12.37c-5.62-2.49-12,2.74-16.17,5.87
					c-10.38,8.4-19.08,18.69-25.64,30.32c-3.87,6.14-5.66,5.66-12.77,4.45c-7.54-1.3-15.07-2.69-22.68-3.6
					c10.78-10.29,20.59-21.55,29.29-33.65c2.57-3.92,5.92-14.25-1.92-15.21c-3.23-0.4-9.67,6.22-12.18,8.01
					c-11.28,7.79-20.99,17.64-28.62,29.02c-2.39,3.75-3.13,7.92-7.76,8.24c-6.04,0.4-17.26-5.37-23.1-7.15
					c10.78-14.32,22.55-27.88,35.21-40.56c11.59-10.76,24.29-20.27,37.87-28.36c14.84-9.53,29.1-19.94,42.7-31.17
					c13.17-10.58,26.93-20.56,39.06-32.37c24.31-23.84,45.68-50.5,63.65-79.43c4.22-6.69,8.06-13.62,11.51-20.74
					c3.2-6.71,4.68-14.74,8.98-20.83c1.5-2.12,3.59-3.68,4.91-5.87c1.26-2.09,0.81-4.58,2.74-6.41c4.41-4.24,12.45-1.7,16.57,1.28
					c6.12,5.26,12.57,10.13,19.3,14.58c7.38,3.99,15.25,6.99,23.4,8.92c19,4.63,37.82,8.41,57.17,11.22
					c-1.98,7.39,2.91,8.55,4.53,15.19c1.99,8.08-0.54,18.2-0.79,26.41L391.92,921.01z M228.66,887.77c1.13-5.42,4.3-8.61,6.33-13.55
					c2.31,5.99-3.18,9.5-6.36,13.56L228.66,887.77z M312.21,801.78c9.75-3.44,16.46-12.43,16.98-22.76
					c1.33-13.27,9.67-20.26,14.7-32.18c1.92-4.58,4.17-19.63,11.63-15.33c2.57,1.48,4.09,7.05,5.42,9.56
					c3.23,6.06,6.9,11.96,10.33,17.92c2.79,4.85,6.96,9.74,5.74,15.59c-1.73,5.29-3.92,10.42-6.54,15.33
					c-4.78,11.35-11.06,21.8-16.29,32.91c-2.12,4.47-4.61,15.09-11.07,15.02c-5.11-0.03-4.54-5.62-7.91-7.54
					c-4.24-2.43-9.07,2.19-12.53,4.09c3.69-6.81,11.28-10.55,18.93-9.34c-9.46-9.42-15.83,3.28-23.94,6.11
					c-7.68,2.68-21.32-9.96-27.79-13.54c2.03-4.65,5.1-8.78,8.97-12.06c4-2.61,8.96-2.2,13.37-3.76L312.21,801.78z M305.48,797.79
					c4.98-8.65,13.49-16,20.07-23.55c0.37,12.45-8.53,20.94-20.1,23.57L305.48,797.79z M339.11,656.66
					c-0.97-3.57-3.21-3.43-2.43-7.86c0.91-3.06,2.47-5.89,4.58-8.29c3.56-4.58,8-8.4,13.05-11.24c10.49-6.04,24.9-8.55,34.29,0.91
					c-8.78,1.4-35.7,10.06-35.87,22.07c9.76-1.88,17.45-11.69,27.24-14.79c8.08-2.5,16.74-2.39,24.75,0.32
					c21.9,7.34,12.8,26.27,0.44,38.54c-7.35,7.22-16.11,12.84-25.74,16.5c-3.62,1.64-7.69,2.01-11.56,1.06
					c-0.81-0.17-1.78-1.68-2.76-2.02c-2.43-0.81-1.73,1.94-3.75,0.69c-2.62-3.04-4.87-6.39-6.68-9.98c-1.49-3.15-3.19-6.19-5.11-9.1
					c-2.34-2.88-3.46-6.73-5.64-9.34c-1.03-1.26-3.87-1.21-4.64-2.43c-1.15-1.81,0.31-3.16-0.2-5.04L339.11,656.66z M381.69,776.06
					c2.54,5.77,4.93,7.39-1.14,11.19c1.17-1.1-1.72-10.25,1.11-11.17L381.69,776.06z M393.25,796.44c2.62,4.45,7,8.82,6.33,14.4
					c-1.23,4.43-3.68,8.43-7.08,11.52c-4.53,4.88-14.55,14.23-21.1,7.76c-5.47-5.4-3.57-20.29-1.01-26.38
					c3.59-8.68,16.59-17.89,22.83-7.27L393.25,796.44z M374.75,789.61c1.01-3.2,2.1-6.37,3.35-9.51c2.07,6.67,3.16,6.88-3.38,9.52
					L374.75,789.61z M299.76,764.83c-3.62,8.33-10.91,16.23-15.98,23.79c-2.88-6.06-4.89-20.02,1.92-24.51
					c2.54-1.68,16.33-4.52,14.03,0.74L299.76,764.83z M426.53,849.72c-21.63-1.19-43.17-3.64-64.51-7.35
					c-7.55-1.41-13.9-1.21-9.57-9.89c1.43-2.88,10.05-20.85,12-20.34c1.14,0.3,0.89,12.67,1.21,14.08c1.52,6.36,5.8,12.3,13.04,11.9
					c11.83-0.65,19.45-15.95,25.67-24.16c4.98,6.71,8.6,14.15,13.61,20.74c2.37,3.17,10.72,10.51,8.51,15.03L426.53,849.72z
					 M473.17,867.18c-6.47-3.6-6.12-14.06-8.38-20.17c-1.29-3.52-3.87-6.06-3.11-9.98c0.89-4.56,6.71-9.64,9.81-12.94
					c9.76-10.36,26.94-24.53,42.65-22.16c19.99,3.03,6.43,29.86-0.37,39.12c-5.83,7.88-28.19,33.07-40.62,26.14L473.17,867.18z
					 M463.36,826.26c4.45-14.29,30.65-39.76,47.23-31.78c-19.35,4.05-34.65,17.27-47.27,31.79L463.36,826.26z M529.34,881.61
					c-8.72,2.61-16.77,2.37-25.51,4.16c-3.55,0.72-13.14,5.91-16.61,4.75c-3.47-1.16-8.4-11.8-10.36-14.55
					c15.29-5.65,28.72-15.42,38.81-28.23c8.08-10.75,16.77-26.87,11.69-40.77c-5.76-15.65-25.56-19.05-38.75-12.5
					c-6.38,3.04-12.29,6.96-17.58,11.64c-5.89,5.38-8.21,11.27-12.03,17.92c-3.85,6.71-6.56,2.98-10.41-2.72
					c-3.3-4.88-2.86-9.81-6.98-14.62c-2.61-2.26-4.79-4.96-6.44-7.99c-0.69-2.02,0.77-5.59-0.54-7.17c-1.87-2.22-4.12,0.4-5.66-1.62
					c-1.13-1.43-0.76-4.73-1.92-6.53c-1-1.02-2.14-1.9-3.38-2.62c-1.5-0.76-1.78-1.68-0.81-2.83c-1.21-2.2-0.05-2.96-2.61-5.66
					c-4.03-3.96-7.56-8.39-10.51-13.21c-1.3-2.27-1.18-5.66-2.79-7.62c-2.22-2.69-5.91-2.29-7.82-5.63
					c-1.7-2.98-0.55-8.19-3.37-10.89c-1.48-0.4-2.96-0.84-4.42-1.24c-1.1-1.04-1.8-2.43-1.95-3.94c-1.14-2.65-2.42-5.23-3.84-7.74
					c-3.75-4.85-8.82-9.32-12.13-14.43c-3.48-5.37-1.62-6.26,4.42-8.18c5.41-1.5,10.62-3.61,15.55-6.29
					c23.45-13.66,45.68-49.85,8.46-60.9c-13.81-4.1-25.15-15.14-40.48-10.8c-6.73,2.05-12.87,5.7-17.89,10.63
					c-3.42,3.28-6.6,12.06-10.78,13.74c-7.55,3.03-4.38-4.53-6.51-8.01c-1.03-1.65-5.15-3.57-6.68-5.06
					c-1.85-1.85-3.45-3.93-4.76-6.19c-1.82-3.56-4.2-6.81-7.05-9.62c-1.26-1.26-7.54-7.7-1.88-6.87c-2.29-6.98,1.06-8.02,5.66-13.12
					c5.43-5.99,11.04-14.32,11.07-22.7c0.05-16.12-19.03-23.34-31.02-13.78c-2.43,1.95-16.86,20.74-13.91,8.76
					c1.62-6.47,16.34-23.34,23.17-18.96c-7.66-11.17-25.25,15.93-29.36,21.47c-3.5-6.43-3.74-11.46-9.52-16.46
					c-4.71,7.55-2.22-0.69-3.26-2.37c-2.24-3.62-1.01,0.52-2.22-0.77c-1.94-1.54-3.79-3.2-5.52-4.98c-2.76,3.74-1.65-0.29-2.51-1.68
					c-1.97-3.28-1.21-5.17-4.59-8.01c-3.04-2.7-6.7-4.62-10.65-5.59c-3.82-0.34-4.88,1.13-8.78,0.05c-4.96-1.38-11.2-3.5-8.8,4.79
					c1.73,6.02,8.83,9.45,10.38,15.61s-4.58,12.45-7.54,17.55c-3.84,6.51-6.95,5.99-13.88,7.45c-4.43,0.94-10.32,2.96-6.53,8.31
					c2.71,3.84,9.05,3.03,12.64,5.3c5.01,3.2,4.95,11.04,11.34,12.4c7.05,1.52,11.09-6.34,17.05-8.23
					c4.22-1.36,17.31-1.21,20.64,1.97c4.53,4.33,0.61,12.58,1.75,17.95c1.7,7.98,7.08,8.46,13.9,8.72
					c8.4,0.3,11.34,8.36,15.87,14.75c10.57,14.96,19.75,30.92,30.57,45.68c4.79,6.54,11.81,12.35,15.73,19.45
					c4.85,8.76-1.88,13.83-7.68,20.12c-7.11,8.46-13.72,17.33-19.81,26.55c-5.85,7.99-13.13,6.01-22.46,6.01
					c2.09-4.29,4.59-6.98,9.7-6.47c-5.35-6.53-9.64,0.94-13.1,5.1c-5.03,5.99-11.59,7.44-18.03,11.37
					c-2.29,1.39-14.74,10.43-10.95,13.51c0.4,0.36,21.02-13.19,23.37-14.43c-0.49,5.04-0.62,10.11-0.4,15.17
					c0.51,3.64,3.08,7.45,2.53,11.24c-1.03,7.17-10.28,12.8-14.25,18.37c-3,4.21-2.27,7.52-3.8,12.01
					c-1.38,4.12-0.66,2.88-4.11,4.14c-8.44,2.34-17.44,1.45-25.27-2.47c-3.77-2.58-7.2-5.62-10.19-9.07
					c-2.43-2.43-8.51-6.5-9.19-9.84c-1.16-5.79,10.3-16.5,12.57-22.46c6.41-16.81-4.58-29.88-21.67-30.82
					c5.26-4.07,11.8-1.01,17.35,0.54c-9.49-13.16-25.71-2.32-33.77,6.61c-4.93-14.03-8.8-28.41-11.59-43.02
					c-2.29-9.88-11-27.51-7.11-37.69c1.87-4.91,7.18-7.66,10.85-11.07c4.15-3.95,7.77-8.42,10.78-13.29
					c7.18-11.32,11.34-25.56,1.45-36.7c3.01-0.49,6.01-0.99,9.02-1.48c-4.89-4.59-12.6-2.36-18.95-3.72
					c-4.02-0.86-15.61-0.3-18.29-2.57c-3.23-2.74-1.16-15.36-1.06-19.08c0.27-8.72,1.01-17.09,1.97-25.76
					c0.91-8.18,0.72-17.03,2.43-25.06c1.36-6.53,5.76-8.51,10.82-12.35c12.1-9.2,21.96-20.39,17.83-36.22l4.39-0.71
					c-4.75-3.42-10.87-2.17-16.13-3.99c4.85-13.61,15.53-37.54,32.89-38.83c0.61,6.09,0.2,13.34,4.3,18.36
					c4.89,5.37,12.8,6.72,19.2,3.28c6.04-3.16,10.88-8.19,13.8-14.35c1.78-3.9,1.46-10.51,4.61-13.61c4.22-4.14,33.3-1.65,32.4,5.37
					c-0.52,4.12-8.31,11.04-10.48,14.69c-4.1,6.64-7.02,13.95-8.61,21.59c-2.22,11.64-0.94,27.03,10.91,33.15
					c13.46,6.96,29.85-1.9,40.88-9.56c6.09-4.22,11.93-8.8,17.48-13.71c3.01-2.55,5.85-5.3,8.51-8.21c1.92-2.17,3.45-5.69,5.8-7.3
					c5.59-3.85,11.05,2.68,15.76,5.97c7.57,5.43,15.45,10.42,23.59,14.96c16.59,9.57,32.29,20.62,46.89,33.02
					c14.91,12.01,30.27,24.36,42.35,39.32c-7.32,4.51-6.01,5.66-9.27,13.7c-2.3,5.69-5.49,10.53-5.85,16.86
					c-0.77,10.73,6.49,20.39,17.01,22.64c5.79,1.19,11.81,0.44,17.13-2.15c4.29-1.88,8.55-6.54,13.02-7.7
					c8.33-2.14,14.96,13.58,19.65,19.11c20.7,24.58,42.58,48.18,62.08,73.77c2.17,2.83,8.58,8.38,9.1,12.13
					c0.74,5.38-7.72,10.51-11.24,13.61c-1.85,1.62-21.42,20.04-14.86,22.96c1.87,0.81,7.35-10.47,8.73-11.44
					c5.13-3.62,1.25,3.48,0.94,7.07c-0.76,8.89,5.35,13.74,13.97,12.64c9.17-1.21,17.35-8.46,23.04-15.31
					c7.12,8.26,18.24,20.71,20.31,31.73c1.31,7.03-4.78,24.25,6.6,25.69c1.73,0.22,8.01-4.45,9.17-1.78c0.99,2.2-5.8,5.97-6.78,6.71
					c-3.73,3.04-7.12,6.47-10.11,10.25c-3.95,4.45-9.37,8.18-13.83,12.43c-4.71,4.47-14,16.64-20.21,10.77
					c-3.11-2.96-2.29-6.82-7.28-8.55c-4.95-0.95-10.07-0.18-14.52,2.17c-4.76,1.97-20.43,9.17-22.16,15.09
					c-2.43,8.16,10.55-1.65,12.84-3.1c-2.61,6.66-4.07,16.32-10.75,20.21c-6.28,3.01-12.86,5.35-19.63,7
					c-7.65,2.33-15.14,2.63-22.81,4.94L529.34,881.61z M300.5,599.39c-10.63,1.8-17.67-16.57-15.76-24.6
					c1.67-7.08,9.91-11.04,16.47-12.08c6.36-1.01,15.21,0.37,17.09,7.7c1.65,6.49-10.75,27.79-17.83,28.98L300.5,599.39z
					 M271.6,618.24c-8.72,1.48-7.76-9.42-7.49-14.96c1.8,2.26,14.25,13.82,7.45,14.96L271.6,618.24z M222.4,575.18
					c-4.59-1.39-0.91-2.86,0.68-4.56c2.06-2.4,4.32-4.63,6.75-6.66c6.31-3.33,11.19,9.1,14.2,13.14
					c-7.19-0.63-14.69,0.19-21.65-1.91L222.4,575.18z M232.33,595.12c-5.95,3.28-11.51,5.2-15.01-1.85
					c2.56-0.51,14.3-2.08,14.97,1.86L232.33,595.12z M609.95,850.36c-1.77,4.31-8.38,5.18-12.13,6.87c-5.09,2.75-10.4,5.1-15.87,7
					c1.62-9.66,10.61-24.25,22.17-22.64c3.47,0,6.29,2.81,6.3,6.28c0,0.86-0.17,1.7-0.51,2.49L609.95,850.36z M979,1093.5
					c-7.42,4.12-15.34,7.29-23.55,9.42c-4.68,1.24-12.42,5.1-16.54,1.56c-1.97-1.7-2.43-5.55-3.6-7.79
					c-1.99-3.45-4.31-6.71-6.92-9.73c-5.95-7.59-12.13-14.91-18.64-22.04c-3.06-3.38-8.68-11.27-14.08-10.75
					c-6.75,0.64-6.6,9.98-4.89,14.75c5.38,15.19,21.67,28.43,32.34,39.87c-2.71,4.16-17.56,3.67-21.7,2.69
					c-6.29-1.5-6.93-5.97-9.81-11.1c-6.73-12-20.38-18.71-31.59-25.76c-4.09-2.58-12.77-9.7-18.11-7.91
					c-5.05,1.7-4.83,8.14-3.23,12.37c2.43,6.36,9.35,10.78,14.45,14.81c6.8,5.31,13.08,11.27,18.74,17.79
					c-8.19,0.67-16.35,1.84-24.51,2.51c-9.88,0.81-18.12-4.61-27.2-7.68c-8.45-2.86-16.88-5.25-25.19-8.56
					c-9.32-3.69-19.1-4.96-28.5-8.21c-36.93-12.72-73.1-28.7-108.7-44.84c-16.94-7.68-33.55-15.36-51.23-21.38
					c-12.87-4.39-33.11-13.12-36.19-28.47c-1.62-8.08,4.3-16.81,5.18-24.9c1.07-9.8,0.16-19.72-2.69-29.16
					c-2.56-8.04-6.8-15.49-10.13-23.23c-3.91-9-0.4-8.86,7.15-9.89c9.03-1.21,19.6-6.31,28.11-9.62c9.9-4.05,19.42-8.96,28.47-14.67
					c8.03-5.08,15.31-11.25,21.65-18.32c6.56-7.07,10.82-15.45,17.18-22.7c23.45,28.84,45.75,58.13,70.66,85.72
					c11.61,12.76,24.72,24.08,39.05,33.7c5.93,4.47,12.15,8.52,18.64,12.13c8.25,4.09,17.46,6.63,25.94,10.36
					c32.31,14.05,63.65,30.23,93.81,48.44c14.15,8.97,27.49,19.14,39.89,30.4c3.98,3.46,36.91,23.8,25.72,30.19L979,1093.5z"/>
				<path id="react-path-65" class="st3" d="M700.41,220.65C700.76,221,701.57,221.21,700.41,220.65"/>
				<path id="react-path-66" class="st2" d="M285.34,682.16c-2.53-2.68-6.71-3.42-9.05-5.95c-3.1-3.35-0.67-7.68-6.87-6.93
					c-4.29,0.51-9.44,4.37-13.61,5.77c-4.95,1.46-9.65,3.67-13.93,6.56c-0.99,0.71-14,11.46-8.25,11.98
					c4.66,0.4,10.01-7.07,13.53-9.61c1.56,2.43-8.7,15.61-9.83,18.62c-2.83,7.54-4.39,17.06-0.54,24.58
					c11.22,21.96,39.96-9.41,47.14-20.36C288.96,699.17,292.44,689.66,285.34,682.16z M273.96,673.19c0.72,3.08-4.54,2.02-5.99,1.29
					C267.29,673.09,273.25,670.1,273.96,673.19L273.96,673.19z M258.73,722.81c-9.84,6.06-21.86,7.2-20.13-8.02
					c1.94-11.52,7.57-22.09,16.04-30.13c5.5-5.57,28.89-4.45,30.65,5.53C287.26,701.31,266.37,718.09,258.73,722.81L258.73,722.81z"
					/>
				<path id="react-path-67" class="st2" d="M553.32,675.73c-9.94-7.68-23.66-11.24-35.17-5.13c-3.77,2.02-18.84,10.82-14.25,16.79
					c6.18-4.79,11.52-11.44,19.55-13.04c-1.35,6.23-9.07,11.83-11.78,17.9c-3.3,7.19-4.81,15.07-4.41,22.96
					c0.93,13.87,10.21,24.63,24.58,22.73c13.16-1.75,24.66-11.83,30.94-23.17C571.15,699.64,566.42,685.89,553.32,675.73z
					 M529.68,732.12c-15.66,0.59-20.74-15.81-17.97-28.9c2.36-11.16,12-30.53,25.76-28.4c10.82,1.67,28.33,13.21,25.83,26.13
					c-2.93,15.09-17.88,30.57-33.62,31.19V732.12z"/>
				<path id="react-path-68" class="st2" d="M469.03,724.59c-2.43-10.33-14.43-11.41-23.02-12.35c2.53-2.83,13.74-14.96,15.28-5.5
					c3.23-3.73,0.68-6.85-3.45-7.24c-4.98-0.49-10.43,5.07-14.03,7.82c-7.19,5.27-13.3,11.86-18,19.43
					c-5.42,8.78-19.21,28.6-7.13,37.3c13.04,9.41,32.03-7.98,40.19-16.92C464.1,741.4,471.01,732.98,469.03,724.59z M461.07,735.26
					c-7.07,10.47-17.85,20.32-30.32,23.55c-16.17,4.19-11.61-9.15-6.79-18.73c4.27-8.46,11.59-23.02,22.73-22.95
					c4.94,0.29,9.76,1.61,14.15,3.88C467.36,725.01,464.79,729.74,461.07,735.26L461.07,735.26z"/>
				<path id="react-path-69" class="st2" d="M389.57,520.33c-8.55-2.94-11.91-4.07-20.21,0.62c-6.69,3.84-12.54,8.99-17.18,15.16
					c-6.85,9.07-13.74,29.44,3.84,32C375.3,570.9,421.23,531.28,389.57,520.33z M390.34,543.48c-7.3,8.33-22.12,20.46-34.36,19.03
					c-11.14-1.3-6.78-13.81-2.83-19.87c5.92-9.09,13.86-17.63,25.34-18.14c4.95-0.2,11.36-0.1,15.19,3.64
					C398.92,533.27,394.19,539.07,390.34,543.48z"/>
				<path id="react-path-70" class="st2" d="M423.03,552.6c-4.61-2.3-3.15-3.88-8.49-2.07c-4.69,1.52-9.1,3.79-13.06,6.73
					c-1.92,1.56-7.87,7.07-7.15,9.88c1.33,5.1,5.77-2.71,6.95-4.22c2.02,1.62-8.25,16.3-8.85,18.71c-2.27,9,4.78,9.94,11.69,7
					C413.44,584.66,441.05,561.62,423.03,552.6z M423.57,563.13c-0.25,3.36-5.5,6.96-7.68,9.2c-5.45,5.92-12.56,10.07-20.41,11.9
					c3.35-7.47,10.83-23.79,19.69-26.08C419.25,557.1,423.91,558.48,423.57,563.13L423.57,563.13z"/>
				<path id="react-path-71" class="st2" d="M565.08,775.21c-13.63,5.57-8.61,39.42,2.78,32.74
					C580.88,800.35,589.07,765.42,565.08,775.21z M568.1,801.49c-6.34,4.36-7.55-1.08-8.4-7.08c0.69-5.95,1.67-12.26,7.13-15.62
					c4.93-3.01,10.03-2.57,10.77,3.62C578.29,788.15,572.65,798.35,568.1,801.49L568.1,801.49z"/>
				<path id="react-path-72" class="st2" d="M459.73,652.78c-2.95,2.96-9.7,7.47-8.76,12.53c0.87,4.63,4.41,4.36,7.62,2.93
					c6.73-3.03,10.48-16.29,17.53-17.53C468.29,645.77,466.47,646.01,459.73,652.78z M456.72,663.15c1.69-3.57,4.79-6.26,8.56-7.44
					C462.5,658.32,459.67,660.74,456.72,663.15L456.72,663.15z"/>
				<path id="react-path-73" class="st2" d="M460.75,389.51c0.38,14.12,0.72,28.23,1.01,42.35c0.11,4.96-1.08,12.03,0.4,16.79
					c0.66,2.09,6.61,11.17,8.72,11.75c7.38,2.05,4.74-16.45,4.79-21.02c0.18-15.36-0.05-30.76-0.11-46.13
					c-0.04-7.92,2.2-74.35-8.08-74.03c-1.77,0.06-6.13,7.65-6.79,9.18c-2.07,4.78-1.31,11.87-1.26,16.98
					c0.14,14.71,0.9,29.43,1.29,44.13L460.75,389.51z"/>
				<path id="react-path-74" class="st2" d="M523,430.67c0.58,3.9,0.27,10.41,4.67,12.43c3.82,1.76,5.29-0.33,6.72-3.61
					c3.29-7.52,2.1-19.03,2.02-26.8c-0.12-15.42-1.86-30.77-3.06-46.13c-0.53-6.74,0.57-13.51-0.27-20.56
					c-0.37-3.09-0.74-15.54-6.47-14.96c-5.19,0.52-4.72,13.57-5,16.93C518.82,375.5,519.28,403.26,523,430.67L523,430.67z"/>
				<path id="react-path-75" class="st2" d="M749.3,731.88c-2.52,0.59-23.45,15.26-23.91,15.26c-1.84-1.84,11.51-21.76,12.89-23.49
					c11.32-14.35,18.84-3.48,25.93,7.79c-1.51-6.73-5.66-16.5-12.6-19.36c-8.75-3.59-15.58,5.28-19.79,11.66
					c-5.49,9.05-9.7,18.81-12.53,29.01c-1.47,4.77-3.51,9.34-6.06,13.63c-2.62,4.31-7.25,9.07-6.56,14.55
					c3.38-2.52,6.14-5.78,8.08-9.52c2.64,1.08,1.73,9.47,2.27,11.61c1.04,5.38,5.29,9.56,10.68,10.51
					c10.58,1.71,22.01-8.08,29.1-14.72c7.45-7,15.48-16.61,15.41-27.39C772.15,740.12,761.06,729.09,749.3,731.88z M720.72,780.52
					c-5.35-12.99,6.26-27.12,15.31-34.64c5.6-4.66,12.62-9.22,20.26-7.81c6.47,1.21,12.93,6.83,11.54,13.96
					C765.62,763.27,729.75,802.4,720.72,780.52L720.72,780.52z"/>
				<path id="react-path-76" class="st2" d="M773.56,536.25c-12.3-0.47-22.21,8.43-31.38,15.53c2.04-8.64,6.7-16.43,13.34-22.33
					c8.99-7.22,17.49-2.74,26.93,0.88c-2.32-7.37-12.79-10.01-19.46-8.97c-8.43,1.31-14.48,8.51-18.74,15.46
					c-5.08,8.31-6.83,18.1-12.82,25.89c-2.72,3.57-19.7,16.91-15.87,22.36c6.34-6.74,12.67-13.47,19-20.19
					c1.65,7.96,3.46,17.01,13.61,16.23c8.11-0.62,17.38-7.5,23.28-12.77C779.13,561.52,794.21,537.02,773.56,536.25z M777.99,551.27
					c-6.01,9.19-16.54,20.21-27.69,22.34c-8.18,1.56-13.58-4.49-10.3-12.68c2.78-6.92,12.25-11.29,18.44-14.33
					C763.35,544.19,786.28,538.57,777.99,551.27L777.99,551.27z"/>
				<path id="react-path-77" class="st2" d="M618.58,574.28c-1.58-4.83,1.65-12.42-6.16-12.77c-4.42-0.19-12.53,4.3-16.39,6.12
					c-5.57,2.41-10.19,6.57-13.17,11.84c-2.59,5.05-0.74,6.37,3.21,2.19c0.47,0.32-8.93,24.58-9,27
					c-1.02,8.25,4.85,15.76,13.09,16.78c1.81,0.22,3.65,0.11,5.43-0.32c10.15-1.81,19.3-10.11,24.88-18.49
					c3.05-4.19,4.9-9.13,5.35-14.29C626.15,584.4,620.85,581.2,618.58,574.28z M613.26,566.7c4.24,0.96,4.76,6.34-0.55,4.27
					C608.74,569.42,607.81,565.47,613.26,566.7L613.26,566.7z M601.3,614.7c-5.2,2.39-16.67,5.66-19.58-1.55
					c-4.04-9.99,8.97-27.52,15.17-34.19c3.8-4.09,6.39-6.21,11.72-3.57c5.25,2.91,9.48,7.37,12.1,12.77
					C624.2,598.09,609.47,610.94,601.3,614.7L601.3,614.7z"/>
				<path id="react-path-78" class="st2" d="M681.77,552.14c-8.89-4.04-18.79,9.83-14.52,18.07
					C672.87,581.01,700.26,560.59,681.77,552.14z M671.17,567.65c-1.83-3.28,10.7-8.12,12.68-8.21c-0.98,1.82-10.15,12.72-12.7,8.21
					L671.17,567.65z"/>
				<path id="react-path-79" class="st2" d="M77.29,544.21c-0.5-3.51-8.37,1.58-8.32,3.85C70.26,545.45,78.32,551.52,77.29,544.21z"
					/>
				<path id="react-path-80" class="st2" d="M507.75,278.86c10.02-0.74-2.75-51.29-10.05-46.82
					C489.78,236.89,498.56,279.54,507.75,278.86z"/>
				<path id="react-path-81" class="st2" d="M526.46,255.26c9.39,1.35,7.89-20.21,2.83-24.07
					C519.97,224.06,515.04,253.62,526.46,255.26z"/>
			</g>
		</g>
	</g>
</g>
</svg>
