<?xml version="1.0" encoding="utf-8"?>
<!-- Generator: Adobe Illustrator 24.0.1, SVG Export Plug-In . SVG Version: 6.00 Build 0)  -->
<svg version="1.1" id="Layer_1" xmlns="http://www.w3.org/2000/svg" xmlns:xlink="http://www.w3.org/1999/xlink" x="0px" y="0px"
	 viewBox="0 0 1000 811.11" style="enable-background:new 0 0 1000 811.11;" xml:space="preserve">
<style type="text/css">
	.st0{fill:#263843;}
	.st1{fill:#FCB813;}
	.st2{fill:#F4F7FA;}
</style>
<g id="Group_112" transform="translate(-47.083 853.725)">
	<g id="Group_103" transform="translate(47.083 -787.052)">
		<path id="Path_423" class="st0" d="M598.62,583.41C597.75,583.28,597.31,583.41,598.62,583.41z"/>
		<path id="Path_424" class="st0" d="M723.33,720.43l-0.65,0.08c-0.38,0.46-0.8,0.9-1.24,1.31L723.33,720.43z"/>
		<path id="Path_425" class="st0" d="M614.99,727.98l-0.67-0.07C614.4,728.16,614.3,728.46,614.99,727.98z"/>
		<path id="Path_426" class="st0" d="M985.26,688.25c-0.68,0.45-1.39,0.84-2.14,1.16C983.91,689.18,984.64,688.79,985.26,688.25z"/>
		<path id="Path_427" class="st0" d="M399.34,579.96h0.48l-1.17-0.3L399.34,579.96z"/>
		<path id="Path_428" class="st0" d="M399.82,579.92c2.62,0.64,5.32,0.82,8,0.53c0-0.72-5.09-0.69-6.28-1.25
			C403.94,579.58,400.87,579.84,399.82,579.92z"/>
		<path id="Path_429" class="st0" d="M94.38,607.4l0.37-1.24C94.31,606.73,94.26,607.11,94.38,607.4z"/>
		<path id="Path_430" class="st0" d="M514.77,736.52c-0.09-0.34-0.31-0.64-0.61-0.84h-0.28L514.77,736.52z"/>
		<path id="Path_431" class="st0" d="M13.81,671.78l2.63-0.27c-0.81-0.14-1.62-0.19-2.44-0.15
			C13.89,671.48,13.82,671.63,13.81,671.78z"/>
		<path id="Path_432" class="st0" d="M375.47,735.65c-0.13,0.13-0.47,0.23-0.5,0.38c5.55,0.68,11.14,1,16.73,0.96l0.52-1.39
			L375.47,735.65z"/>
		<path id="Path_433" class="st0" d="M170.08,592.28c0.33-0.07,0.64-0.17,0.96-0.24C170.44,592.09,170.17,592.19,170.08,592.28z"/>
		<path id="Path_434" class="st0" d="M978.35,625.9l0.65-1.92c-2.41-0.78-4.7-1.89-6.82-3.28c-2.06-1.21-4.49-2.53-6.82-3.84
			c-4.39-2.24-8.42-3.64-8.32-1.87c-5.1-2.49-10.61-4.01-16.26-4.49c-5.51-0.75-9.44-1.21-7.19-2.99
			c-23.93-2.53-33.93,3.46-56.92-2.53c-15.64-5.91-31.78-10.41-48.22-13.45c-29.58-4.57-59.54-6.23-89.44-4.96
			c-20.1-4.86-49.44,1.12-70.56-1.92l-5.89,1.78c-14.02-3.27-35.61-0.28-55.42-3.74c-4.86,0.56-7.39,0.75-8.5,0.75
			c0.85,0.18,2.24,0.56,2.61,1.68c-5.61-0.96-17.1-0.37-16.26-2.61l1.5-0.18c0.96-2.33-17.19,0.47-23.46-1.78l3.36,2.61l-10.75-0.85
			l2.88-0.37c-46.82,3.84-67.67-4.86-111.78-0.96c5.89-2.61-8.65,1.12-9.25-1.78c-11.03-3.93-20.56,0.47-29.72,1.31
			c0,0.1-0.1,0.28-0.65,0.47l-15.89-0.56c7.68-2.99-4.3,0.75-4.86,0.75c0.68-0.37,1.4-0.65,2.15-0.85
			c-41.58-3.18-95.89,0.75-144.21,2.99l2.24,0.75c-12.24,0.85-27.39,2.99-36.72,2.43c-8.07,0.61-16.01,2.41-23.55,5.33
			c-5.24,1.86-10.93,2.02-16.26,0.47c-11.21,3.71-22.76,6.31-34.49,7.75c-5.76-2.88-40,11.03-41.21,7.39l-0.1,0.37
			c-9.57,0.86-18.99,2.94-28.04,6.17c-9.48,3.11-19.16,5.58-28.97,7.39c0.07-0.08,0.14-0.18,0.18-0.28l-36.5,22.53l15.24,7.85
			c1.68-0.1,3.28-0.18,4.96-0.18c-1.21,0.65-2.43,1.31-4.02,2.06c-4.83,2.15-9.45,4.73-13.83,7.68c-1.12,0.85-1.4,2.24-0.85,2.8
			c0.36,0.5,0.8,0.94,1.31,1.31c0.85,0.75,1.68,1.31,2.24,1.87c-10.65-3.64-3.93-0.65-2.8,0.65l1.92-0.28
			c6.45,2.25,4.67,3.55,8.5,4.96c0.14-0.11,0.21-0.29,0.18-0.47l-0.75,0.1c-0.1-0.37,0.37-0.47,0.96-0.56
			c0.28-0.28,0.96-0.47,3.08,0.1l-0.56,0.1c3.55,0.56,9.15,1.92,11.78,2.53l-0.37,1.4c8.68,0.71,17.27,2.34,25.61,4.86
			c5.51,1.34,11.15,2.12,16.82,2.33c4.86,0.37,8.88,0.37,11.03,0.47c8.88,1.4,19.9-0.37,30.85,1.4c17.57,2.24,8.65,2.99,17.19,5.33
			c10.75,2.43-1.92-1.92,2.43-1.5l12.71,4.11c-7.57-1.12-3.64,0.37-2.33,1.12c11.21,2.15,28.22,8.65,32.33,6.64
			c14.86,4.86,14.67,6.07,21.13,7.76c-2.06-1.03-6.17-2.53-6.17-3.08c5.76,2.61,2.99,0.37,0.56-0.47
			c9.35,1.03,47.29,16.64,50.1,13.93l-0.1,0.56c2.71-1.78-0.37-4.67,6.45-4.58l4.21,1.92l6.92,0.37c4.3,1.58,1.92,1.78,1.92,2.06
			c11.03,1.03,25.94,4.86,39.25,7.1l-13.08-8.32c10.85,3.28,30.74,8.65,33.18,6.92l6.54,2.8c22.15,6.26,15.89-0.18,24.76,1.78
			l11.21,2.99l-11.31-0.75c11.21,1.92,15.7,2.88,24.76,4.86l0.1-0.1c-0.65-0.1-1.03-0.18-1.12-0.37h1.59
			c4.99-1.51,10.24-1.96,15.42-1.31c12.78-0.33,25.57,0.02,38.32,1.03l4.49-2.43l13.55,1.03l0.1,1.87
			c-13.28,0.47-38.42,1.5-55.61,1.12l-0.37,0.85c10.28,0.28,21.87-0.56,28.6-0.47c3.08,0.37,10.57,1.87,6.64,3.28l5.24-1.68
			c34.02-1.31,34.21-1.4,69.53-1.68l-3.08-0.75c5.18-1.41,10.6-1.66,15.89-0.75c18.9-1.6,37.87-2,56.82-1.21l2.8-2.53
			c4.39-0.28,11.4,2.33,13.18-0.96l9.35-1.87c5.49-0.97,11.06-1.44,16.64-1.4h0.1c0.37,0,0.85,0.1,1.31,0.1l-0.1-0.1
			c13.74-0.37-0.37-1.92,15.42-2.24c5.14,1.03,5.33-3.36,12.99-3.55l7.94,2.43c14.02,0.47,16.07-2.88,36.07-4.86
			c9.72,0.18,14.58,2.43,8.5,5.42c4.71-2.59,9.89-4.23,15.24-4.8c1.87,1.03,0.65,1.4-1.78,2.71c10.47,0.37,6.26-1.68,14.02-2.43
			c2.06-2.43,4.3-6.26,6.82-6.64l-3.08-0.37c8.73-2.23,17.71-3.33,26.72-3.27l-0.18,1.21l10.1-1.58l0.75,1.4l14.58-1.87l-2.06-0.18
			c6.96-1.07,13.99-1.71,21.03-1.92l-0.18,0.85c18.41,0.75,32.99-4.02,54.11-6.26l-2.61,1.87c7.39,0.96,1.78-2.71,10.47-2.71
			l0.56,1.92c7.39-3.36,9.9-0.37,15.14,0.1l-2.61-2.33l9.82-0.47c10.93-0.18,7.01,2.71,5.51,4.21l7.19-2.71l1.68,2.15
			c5.14-3.28,5.42-0.1,14.67-2.43c0.96,0.75-1.4,1.5,1.78,1.58l15.24-4.8l-9.25,2.33l0.85-3.46c9.53-3.55,13.28-0.96,20.17-2.53
			l-4.67,1.4c6.1-1.14,12.36-1.27,18.5-0.37c-2.06-0.47-5.14-1.12-0.65-1.92c1.18-0.25,2.41-0.18,3.55,0.18
			c1.42,0.59,2.97,0.78,4.49,0.56c0.56-2.61,15.04-3.64,24.39-7.2c0.17,0.35,0.09,0.76-0.18,1.03c2.04-1.6,4.16-3.1,6.36-4.49
			l0.18,3.18c1.38-1.97,2.51-4.11,3.36-6.36l0.47-1.31c4.49-5.04,2.33-14.49,4.02-13.18c0.18,1.12,0.28,2.33,0.37,3.55
			C1000.45,652.38,992.35,636,978.35,625.9z M23.02,655.99c-0.85,0.47-2.71,1.21-2.88,2.15c-0.18,0-0.28-1.03,0.75-1.78
			C22.74,655.7,24.05,655.32,23.02,655.99z M46.48,660.66h-0.47C45.92,660.01,46.67,659.73,46.48,660.66z"/>
		<path id="Path_435" class="st0" d="M46.49,660.71h-0.47C45.95,660.01,46.67,659.75,46.49,660.71z"/>
		<path id="Path_436" class="st0" d="M299.68,725.9l-0.83-0.14l2.88,1.82L299.68,725.9z"/>
		<path id="Path_437" class="st0" d="M142.16,693.6c-2.18-0.46-4.4-0.71-6.63-0.75C142.73,694.38,143.12,694.16,142.16,693.6z"/>
		<path id="Path_438" class="st0" d="M23.02,656.03c-0.85,0.47-2.71,1.22-2.88,2.15c-0.18,0-0.28-1.03,0.75-1.78
			C22.74,655.71,24.05,655.34,23.02,656.03z"/>
		<path id="Path_439" class="st0" d="M3.16,667.55l-2.38,0.27C3.18,668.18,3.52,667.97,3.16,667.55z"/>
	</g>
	<path id="Path_440" class="st1" d="M893.96-251.16l44.97-41.9l39.98-171.56l8.55-186.54l-58.6-23.05l-144.87-12.31l-77.33,318.19
		l148.59,127.55L893.96-251.16z"/>
	<g id="Group_104" transform="translate(59.928 -841.578)">
		<path id="Path_441" class="st0" d="M911.71,198.88C911.78,199.21,911.99,199.29,911.71,198.88z"/>
		<path id="Path_442" class="st0" d="M420.57,155.03h-0.52c-0.33,0.41-0.68,0.79-1.07,1.15L420.57,155.03z"/>
		<path id="Path_443" class="st0" d="M337.93,149.8l-0.51-0.14C337.45,149.92,337.34,150.19,337.93,149.8z"/>
		<path id="Path_444" class="st0" d="M611.32,156.06c0.48,0.07,0.96,0.01,1.4-0.18C612.26,155.99,611.79,156.05,611.32,156.06z"/>
		<path id="Path_445" class="st0" d="M899.84,339.47v-0.37l-0.34,0.87L899.84,339.47z"/>
		<path id="Path_446" class="st0" d="M899.16,337.77c0.47-1.8,0.62,0.54,0.66,1.34c0.73-1.92,1-3.98,0.81-6.02
			C899.9,333.05,899.76,336.91,899.16,337.77z"/>
		<path id="Path_447" class="st0" d="M856.11,610.37l-0.29-0.85C855.88,609.82,855.98,610.11,856.11,610.37z"/>
		<path id="Path_448" class="st0" d="M604.22,120.44l1.25-0.14C605.04,120.25,604.62,120.3,604.22,120.44z"/>
		<path id="Path_449" class="st0" d="M858.37,566l-1.1-0.58C857.52,565.78,857.93,565.99,858.37,566z"/>
		<path id="Path_450" class="st0" d="M419,156.18l-0.61,0.43C418.61,156.49,418.81,156.34,419,156.18z"/>
		<path id="Path_451" class="st0" d="M261.5,146.88c-0.03-0.33-0.16-0.64-0.38-0.88h-0.21L261.5,146.88z"/>
		<path id="Path_452" class="st0" d="M129.43,459.4c0.17,0,0.33-0.05,0.48-0.12l-0.53-1.66C129.3,458.2,129.32,458.81,129.43,459.4z
			"/>
		<path id="Path_453" class="st0" d="M205.91,189.95c0.11,0.12,0.14,0.39,0.28,0.46c1.62-3.81,2.97-7.73,4.03-11.73l-1.23-0.78
			L205.91,189.95z"/>
		<path id="Path_454" class="st0" d="M144.99,292.59l5.4-10.27c-7.16,35.39-13.66,51.16-18.02,81.82l-0.24-1.81
			c-1.54,4.3,3.84,7.95-13.62,55.11l-0.28-0.06c0.02,1.75-0.37,3.47-1.14,5.04l3.38-8.11c0.02,5.56-0.32,11.12-1.02,16.64
			c-0.58,1.37-1.24,1.76-1.71,1.82l-2.67,16.67l-2.74,4.8c0.08,5.29,4.28,3.63-0.22,16.9c3.54-4.69,0.4,7.03,2.06,5.58
			c-0.43,0.64-1.17,2.14-1.82,3.33c-1.42,9.27-1.91,18.67-1.48,28.04c0,0,2.34-8.09,5.41-16.9c2.55-7.65,5.57-15.14,9.04-22.42
			c-2.7,11.19-0.2,3.04,1.08,0.96l-0.52-0.85c1.83-6.67,3.49-6.37,4.54-9.66c-0.17,0-0.35,0.04-0.5,0.12l0.15,0.48
			c-0.36,0.26-0.52,0-0.62-0.36c-0.37,0-0.6-0.35-0.17-2.17l0.12,0.38c0.46-3.3,1.11-6.57,1.97-9.79l1.39,0.22
			c-1.78-5.53,10.57-32.78,11.98-39.38c2.23-7.68,4.01-15.49,5.34-23.38c3.28-13.24,3.45-6.23,6.07-12.66
			c2.68-8.16-1.97,1.35-1.34-2.03l4.09-9.61c-1.1,5.84,0.42,2.88,1.19,1.92c2.07-8.65,7.68-21.6,5.57-24.88
			c3.95-11.34,5.03-11.11,6.35-16.06c-0.88,1.56-2.13,4.8-2.68,4.67c2.3-4.37,0.22-2.3-0.5-0.46c0.47-7.39,13.62-35.61,11.07-37.78
			l0.54,0.13c-1.83-2.19-4.65-0.08-4.67-5.32l1.81-3.05l0.25-5.21c1.55-3.15,1.74-1.36,2.01-1.3c1.93-9.83,4.57-19.51,7.88-28.97
			l-8.72,8.8c3.46-7.93,10.26-22,8.77-24.16l3.36-4.38c8.29-15.37,1.5-11.92,4.48-18.16l4.54-7.58l-2.36,8.16
			c2.45-5.82,5.29-11.47,8.47-16.93v-0.09c-0.23,0.41-0.42,0.66-0.57,0.68l0.29-1.14c-0.58-3.88-0.03-7.84,1.57-11.42
			c2.18-9.18,5.62-18.01,10.22-26.23l-0.96-3.92c0.93-2.11,2.37-3.95,4.2-5.36l1.41,1.3c-0.42,0.48-0.78,1.01-1.08,1.58
			c-0.33,0.62-0.47,1.2-1.02,2.62l-3.59,9.61c-2.22,7.08-4.54,14.51-6.42,20.51l0.75,0.48c2.21-7.2,4.3-15.37,6.02-20.03
			c1.17-2.11,5.18-6.83,4.8-2.43l-0.09-4.8l1.34-3.52c0.15-0.49,0.35-0.96,0.6-1.4c0.37-0.69,0.88-1.29,1.48-1.79
			c0.94-0.8,2.11-1.27,3.34-1.34l22.93,2.32l-2.29-0.96c5.31-0.4,10.57-0.8,12.03,0.77c14.42,0.41,28.77,2.11,42.89,5.06l2.34-2.13
			c3.37,0.21,8.36,3.68,10.09,0.65l7.25-0.78c4.24-0.37,8.52-0.19,12.72,0.54l0,0l0.96,0.29c-0.01-0.06-0.03-0.13-0.06-0.18
			c10.44,1.27,0-1.97,11.9-0.37c3.84,1.67,4.33-2.67,10.16-2.01l5.76,3.31c10.57,2.11,12.43-0.96,27.76-0.58
			c7.33,1.34,10.81,4.13,5.86,6.38c3.7-1.97,7.84-2.98,12.04-2.94c1.33,1.23,0.37,1.45-1.61,2.47c7.85,1.61,4.9-0.96,10.85-0.7
			c1.8-2.2,3.84-5.7,5.82-5.76l-2.28-0.77c6.79-1.18,13.74-1.18,20.53,0l-0.31,1.11l7.82-0.35l0.45,1.46l11.05-0.13l-1.53-0.43
			c5.38-0.29,10.77-0.12,16.11,0.53l-0.2,0.8c13.78,2.88,25.3-0.06,41.53,0.14l-2.17,1.58c5.48,1.79,1.58-2.48,8.15-1.48l0.27,2.02
			c5.87-2.48,7.47,0.78,11.44,1.92l-1.8-2.68l7.51,0.77c8.26,1.1,5,3.47,3.74,4.8l5.7-1.92l1.04,2.35c4.2-2.59,4.11,0.55,11.37-0.7
			c0.57,0.89-1.27,1.35,1.18,1.8l12-2.94l-7.22,1.24l0.96-3.36c7.55-2.36,10.13,0.65,15.49-0.14l-3.71,0.89
			c4.76-0.41,9.56,0.2,14.07,1.78c-1.51-0.67-3.84-1.67-0.27-2.02c2.59-0.12,1.37,1.23,3.84,1.67c0.64-2.24,6.95-3.28,12.56-2.04
			c-0.06,0.35-0.27,0.66-0.59,0.83c1.5-0.59,3.14-0.68,4.7-0.26l-1.55,2.47l4.88-2.23c3.18,0.8,7.89-0.85,7.42,0.83l-1.83,0.43
			c8.04,0.52,15.99,1.11,23.87,1.87l0.18,2.04c2.57-2.63,12.67,2.11,12.23-1.37c4.21,2.23,17.45,0.75,14.41,4.29
			c14.45,0.68,28.8,2.67,42.88,5.96c6.12,4.57,25.15,7.35,37.88,9.9c25.15,2.88,41.39,3.64,66.87,5.13
			c14.89,6.13,38.17,1.58,54.32,5.09l4.59-1.58c2.94,0.89,5.97,1.44,9.04,1.65l5.15,0.32c1.27,0.16,1.92,0.06,2.88,0.26
			c3.79,0.29,7.07,2.72,8.45,6.26c1.04,0.41,1.96,1.07,2.68,1.92c-0.06-0.68,0.26-1.35,0.84-1.72c0.74,2.26,2.82,6.47,0.4,6.61
			c-0.1-0.16-0.23-0.31-0.36-0.45c-2.15,0.41,2.01,4.98-1.44,9.21c0.96-0.61,2.11-1.67,2.88-1.72l-2.24,7.9l0.06-2.35
			c-1.37,14.99-3.53,29.9-6.47,44.66c-2.9,13.95-3.91,28.22-3,42.44c-2.38-4.67,0.9,6.72-2.06,6.95
			c-4.33,8.22-0.27,15.71,0.27,22.67c0.14,0,0.31,0.11,0.52,0.51l-1.18,11.98c-3.26-7.43,2.52,8.85-0.22,2.06
			c-5,30.91-5.58,71.44-16.71,104.41l1.33-1.21c-1.92,8.78-4.84,17.31-8.7,25.43c-2.33,5.75-3.51,11.9-3.47,18.11
			c-0.96,7.95-6.1,14.05-4.98,10.8c-0.87,9.59-2.31,19.11-4.3,28.53c-4.28,3.57-1.34,32.36-4.58,32.31l0.29,0.15
			c-3.73,14.91,0.28,29.15-2.02,45.04c-0.21-0.26-0.38-0.54-0.51-0.85c3.63,10.83,7.46,21.45,11.3,32.05l11.82-9.33
			c3.08-9.29,6.22-18.48,9.5-27.48c-0.98-23.88,0.34-47.8,3.94-71.42c5.62-18.43,12.45-36.47,20.44-54.01
			c7.98-24.49,13.51-49.7,16.51-75.28c3.19-25.16,4.46-49.95,5.9-74.21l-2-10.57c6.63-28.05,4.15-64.53,14.27-92.22l-2.13-1.11
			c0.36-2.39,1.12-4.71,2.24-6.85c0.71-1.24,1.33-2.52,1.87-3.84c2.74-16.09-2.05-32.56-13-44.67c-5.42-6-12.16-10.65-19.68-13.6
			c-3.75-1.44-7.64-2.47-11.61-3.07l-5.76-0.54l-3.78-0.13c-20.22-0.71-40.35-1.62-60.02-3.14c-19.67-1.52-39.04-3.63-57.7-6.63
			c-18.66-3-36.67-7.08-54.64-11.35c-6.59-2.93-28.36-5.99-33.88-8.36l-74.93-3.33l0.9-0.23l-11.22,0.12
			c-0.47-0.2-0.52-0.48-0.16-0.64c-16,0.7-32.02-0.03-47.89-2.18l0.9-0.22c-90.07-2.97-173.81-0.96-263.05-6.72
			c-10.36-1.24-21.13-1.92-32.27-2.33l-16.89-0.43l-8.65-0.12h-4.32h-3.47c-1.39,0-2.78,0.12-4.16,0.21
			c-11.19,1.12-21.39,6.9-28.11,15.91c-2.82,3.99-5.04,8.37-6.59,13.01l-3.54,9.04c-4.11,11.47-8.22,22.95-12.49,34.85
			c-6.74,18.06-12.24,36.56-16.44,55.37C150.93,262.44,145.47,288.32,144.99,292.59z"/>
		<path id="Path_455" class="st0" d="M117.72,432.78l0.06-0.37C116.82,432.23,117.08,432.85,117.72,432.78z"/>
		<path id="Path_456" class="st0" d="M187.86,244.15l-0.18,0.61l1.92-1.92L187.86,244.15z"/>
		<path id="Path_457" class="st0" d="M159.27,368.11c1.53-5.52,1.34-5.83,0.8-5.13C159.6,364.65,159.33,366.37,159.27,368.11z"/>
		<path id="Path_458" class="st0" d="M111.2,479.72c-0.55,3.03,0.2,1.92,1.13,0.28l0.64-5.27L111.2,479.72z"/>
		<path id="Path_459" class="st0" d="M126.39,469.68l0.61,1.07C127.12,468.96,126.83,468.99,126.39,469.68z"/>
	</g>
	<path id="Path_460" class="st2" d="M595.41-741.91l-47.07-91.26l-163.53,68.33L162.65-625.96l-4.27,60.76l77.67,105.01
		l385.83-32.44L595.41-741.91z"/>
	<path id="Path_461" class="st2" d="M844.01-521.1l31.81-154.12l-20.55-57.16l-130.12-2.43l-90.3,12.49l37.74,239.58L844.01-521.1z"
		/>
	<g id="Group_105" transform="translate(56.711 -853.725)">
		<path id="Path_462" class="st0" d="M382.26,88.88C382.63,88.78,382.73,88.56,382.26,88.88z"/>
		<path id="Path_463" class="st0" d="M134.87,234l-0.14,0.16l0.57,1.11L134.87,234z"/>
		<path id="Path_464" class="st0" d="M119.04,262.41l-0.12,0.17C119.2,262.58,119.51,262.6,119.04,262.41z"/>
		<path id="Path_465" class="st0" d="M219.57,176.43c0.27-0.1,0.49-0.31,0.59-0.59C219.99,176.07,219.79,176.27,219.57,176.43z"/>
		<path id="Path_466" class="st0" d="M456.83,46.6l-0.15,0.12l0.53,0.07L456.83,46.6z"/>
		<path id="Path_467" class="st0" d="M456.38,47.67c-1.01,0.1,0-0.71,0.3-0.96c-1.11-0.14-2.22,0.21-3.05,0.96
			C453.94,48.37,455.72,47.39,456.38,47.67z"/>
		<path id="Path_468" class="st0" d="M528.2,134.47l-0.5-0.28C527.85,134.32,528.02,134.41,528.2,134.47z"/>
		<path id="Path_469" class="st0" d="M198.15,147.79l0.54-0.49C198.45,147.39,198.25,147.56,198.15,147.79z"/>
		<path id="Path_470" class="st0" d="M517.23,111.56l-1.15,0.25C516.48,111.85,516.88,111.76,517.23,111.56z"/>
		<path id="Path_471" class="st0" d="M135.3,235.29l0.17,0.49C135.44,235.61,135.38,235.45,135.3,235.29z"/>
		<path id="Path_472" class="st0" d="M130.49,294.97c-0.26,0.16-0.47,0.37-0.64,0.62l0.06,0.12L130.49,294.97z"/>
		<path id="Path_473" class="st0" d="M231.6,490.56c0.12-0.1,0.22-0.22,0.31-0.36l-1.2-0.23
			C230.95,490.24,231.26,490.45,231.6,490.56z"/>
		<path id="Path_474" class="st0" d="M156.06,349.03c0.14,0,0.32,0,0.45,0c-0.82-2.25-1.93-4.39-3.29-6.37l-1.31,0.54L156.06,349.03
			z"/>
		<path id="Path_475" class="st0" d="M162.61,422.1l-1.06-6.96c12.17,16.74,15.02,26.39,26.7,39.9l-1.05-0.49
			c0.9,2.52,6.85,0.23,16.39,28.13l-0.23,0.15c0.6,0.8,1.06,0.47,1.55,2.53l-1.33-5.04c2.62,1.91,5.03,4.1,7.18,6.53
			c0.2,0.62,0.03,1.29-0.42,1.75l5.85,7.68l0.18,3.47c2.5,1.85,4.89-1.45,7.68,6.23c0.49-3.98,3.54,2.27,4.1,0.69
			c0,0.52,0.07,1.54,0.12,2.4c3.14,4.28,6.86,8.1,11.05,11.36c-2.67-7.79-4.82-15.75-6.43-23.82c3.16,5.76,1.26,1.23,1.25-0.35h-0.8
			c-1.71-3.6-0.33-4.56-1.07-6.43c-0.12,0.1-0.23,0.22-0.32,0.36l0.33,0.08c-0.08,0.24-0.34,0.38-0.58,0.3
			c-0.02-0.01-0.04-0.01-0.06-0.02c-0.26,0.24-0.6,0.26-1.13-0.67l0.26,0.07c-1.21-1.49-2.25-3.1-3.13-4.8l1.15-0.83
			c-3.84-0.86-7.68-18.42-9.77-21.69c-0.74-4.23-5.25-7.04-7.23-11.58c-3.96-6.72-0.46-4.37-1.59-8.31
			c-1.92-4.55-0.84,1.74-1.98,0.16l-1.58-5.97c2.01,2.74,1.7,0.74,1.82-0.09c-2.58-4.33-4.8-12.41-7.95-12.18
			c-2.57-6.44-1.65-7.06-3.1-9.61c0.1,1.1,0.76,2.98,0.29,3.3c-0.44-2.95-0.96-0.96-0.59,0.15c-3.29-2.83-7.31-20.91-10.36-20.01
			l0.48-0.3c-2.46,0.41-3.53,2.88-6.14,1.14l-0.17-2.19l-2.39-1.92c-0.41-2.06,0.61-1.57,0.86-1.72c-3.46-4.58-6.37-9.56-8.65-14.83
			l-2.11,8.48c-1.36-4.89-3.42-13.92-5.66-13.69l0.28-3.59c-1.63-10.41-5.01-4.92-6-8.88l-0.56-5.37l2.48,4.2
			c-1.17-3.56-2.04-7.21-2.58-10.91h-0.08c0.06,0.28,0,0.49-0.06,0.59l-0.39-0.56c-1.28,0.09-3.26-1.7-4.94-4.68
			c-3.35-4.41-5.86-9.4-7.42-14.72l-3.02-0.46l-1.72-5.76l1.61-0.96c2.78,5,8.79,13.95,12.62,20.17l0.81-0.32
			c-2.24-3.74-5.45-7.59-6.72-10.17c-0.39-1.4-0.52-5.48,1.92-3.84l-2.93-1.39c-5.48-8.33-9.92-17.3-13.23-26.71l-0.17,1.6
			c-1.92-2.34-3.91-4.69-2.99-6.16c-3.95-6.3-6.05-13.58-6.08-21.01l-2.41-0.19c-0.37-1.5,2.25-4.3-0.85-4.13l-1.56-2.58
			c-0.08-1.74-1.53-2.74-0.27-4.72l0,0l0.24-0.37h-0.18c1.12-3.78-2.13,0-0.45-4.46c1.81-1.2-2.58-2.07-1.51-4.41
			c1.17-0.56,2.49-1.05,3.68-1.49c3.07-3.36,0.2-5.24,3.58-11.21c2.71-2.25,5.76-1.83,6.62,1.16c-0.81-3.84-0.96-2.11,0.31-5.97
			c1.29,0.27,1.23,0.77,1.57,2.07c3.14-1.67,0.43-2.28,2.19-4.14c-1.17-2.05-3.13-5.2-2.56-5.98l-1.29,0.31
			c1.27-3.31,3.81-5.97,7.05-7.39l0.61,0.96l2.72-2.88l1.08,0.96l4.33-3.75l-0.86,0.15c2.03-2,4.43-3.59,7.07-4.69l0.36,0.73
			c7.53-1.83,11.23-7.79,19.21-12.56l-0.25,2.01c3.57-0.11-0.5-2.6,3.21-3.7l1.16,1.65c1.59-3.84,4.02-1.57,6.52-1.8l-2.24-1.78
			l4.04-1.58c4.57-1.51,4.19,1.51,4.27,3.04l1.8-3.35l1.7,1.72c0.72-3.48,2.27-0.75,5.17-3.99c0.73,0.61,0.07,1.55,1.48,1.2
			l4.34-6.11l-2.88,3.24l-1.23-3.2c2.48-4.3,5.25-2.46,7.45-4.75l-1.34,1.92c3.97-3.1,4.91-1.97,7.74-2.66
			c-1.08-0.14-2.7-0.32-1.15-1.66c1.2-0.87,1.28,0.65,2.69,0.31c-0.82-2.13,1.73-4.9,5.09-5.51c0.14,0.27,0.19,0.58,0.13,0.87
			c0.54-0.71,0.63-1.43,2.16-1.64l0.49,2.59l1.25-3.41c1.92-0.29,3.43-3.17,4.04-1.57l-0.67,0.96l12.55-6.19l1.15,1.67
			c-0.13-3.08,7.19-2.74,5.1-5.54c3.24,0.38,8.45-6.14,8.99-1.99c8.18-4.14,10.73-9.81,21.43-13.51c5.07,0.96,14.1-5.17,20.55-8.3
			c11.61-7.93,18.95-13.37,31-21.13c9.72-0.09,18.08-11.71,27.51-13.77l1.37-2.81c6.82-0.35,13.45-7.94,22.41-9.52
			c0.82-1.01,1.74-1.93,2.76-2.75c-0.39,0.12-1.09,0.09-1.8-0.85c2.56-0.45,6.48-3.71,7.27-1.5l-0.44,0.52
			c0.78,2.22,6.09-4.51,9.48-4.03l-2.51-1.49l4.32-1.84l-0.87,1.02c15.31-14.49,27.14-11.85,41.58-25.33
			c-0.96,3.58,2.63-3.03,4.23-0.51c5.9,1.1,7.19-4.67,10.1-7.18c-0.08-0.19-0.08-0.41,0-0.6l5.9-2.29
			c-1.92,4.89,2.88-4.59,0.96-0.34l11.95-2.81c1.99-0.46,3.97-0.81,5.94-1.1c1.6-0.25,1.84-0.25,2.88-0.35
			c1.58-0.15,3.84-0.16,4.55,1.7c0.39,0.98,0.71,1.98,0.96,3.01l1.68,5.98l0.61-1.21c2.23,4.98,3.89,10.19,4.95,15.54
			c0,4.43,5.53,7.53,6.22,8.95c3.22,3.55,1.69,8.58,1.13,6.72c2.26,4.3,7.17,7.1,8.5,13.78c-2.02,3.44,10.4,15.19,7.32,16.86
			l0.31-0.07c1.46,8.82,8.97,14.03,11.34,23.16c-0.23-0.03-0.46-0.09-0.67-0.18c6.15,3.77,12.38,7.35,18.6,10.8l7.76-10.51
			c0.22-6.11,0.56-12.19,1.01-18.25c-7.13-11.83-13.84-23.96-20.02-36.37c-3.27-10.64-6.19-21.34-8.75-32.09l-8.49-23.55
			c-2.01-6.03-5.87-11.28-11.03-14.99c-5.34-3.59-11.6-5.57-18.03-5.7c-3.33-0.16-6.67-0.11-9.99,0.14
			c-1.6,0.15-3.51,0.24-4.86,0.43l-3.47,0.57c-4.35,0.8-8.64,1.9-12.83,3.29c-7.6,2.57-14.99,5.74-22.09,9.48l-4.44,5.29
			c-17.08,3.71-32.79,18.36-50.05,23.76l0.78,2.23c-1.69,1.33-3.91,1.8-5.99,1.27c-40.67,22.18-81.15,47.92-119.23,65.46
			c-4.28,0.59-14.6,7.28-18.16,7.38c-10.88,8.7-22.71,16.14-35.25,22.18l0.33-0.47l-5.4,3.46c-0.33,0-0.5-0.25-0.4-0.52
			c-7.46,5.41-15.72,9.62-24.49,12.49l0.33-0.48c-11.45,6.21-22.24,12.07-33.47,19.21c-12.06,7.33-23.12,16.2-32.91,26.37
			c-10.85,11.43-18.65,25.42-22.65,40.66c-2.06,8.37-2.6,17.03-1.59,25.59c1.07,8.04,3.14,15.93,6.16,23.46
			c4.49,12.62,10.57,24.61,18.1,35.68c7.49,11.45,14.23,23.37,20.17,35.7C128.2,372.17,158.9,418.66,162.61,422.1z"/>
		<path id="Path_476" class="st0" d="M210.33,488.61l-0.13-0.17C209.39,489.01,209.88,489.06,210.33,488.61z"/>
		<path id="Path_477" class="st0" d="M170.55,378.43l0.16,0.32l0.47-1.92L170.55,378.43z"/>
		<path id="Path_478" class="st0" d="M210.32,439.19c-1.55-2.88-1.83-2.88-1.92-2.29C208.87,437.79,209.52,438.57,210.32,439.19z"/>
		<path id="Path_479" class="st0" d="M227.24,509.69c0.96,1.47,1.04,0.59,0.96-0.62l-1.86-2.35
			C226.73,507.64,226.87,508.73,227.24,509.69z"/>
		<path id="Path_480" class="st0" d="M234.09,496.26h0.96C234.31,495.53,234.1,495.72,234.09,496.26z"/>
	</g>
	<g id="Group_106" transform="translate(107.832 -843.299)">
		<path id="Path_481" class="st0" d="M747.42,108.8C747.1,108.44,746.82,108.41,747.42,108.8z"/>
		<path id="Path_482" class="st0" d="M775.85,359.59v0.23l1.19,0.47L775.85,359.59z"/>
		<path id="Path_483" class="st0" d="M773.64,398.71l-0.12,0.24C773.8,398.92,774.08,398.97,773.64,398.71z"/>
		<path id="Path_484" class="st0" d="M769.58,269.95c0.03-0.24-0.06-0.49-0.24-0.65C769.46,269.5,769.54,269.72,769.58,269.95z"/>
		<path id="Path_485" class="st0" d="M667.3,96.38h0.17l-0.42-0.29L667.3,96.38z"/>
		<path id="Path_486" class="st0" d="M668.09,95.59c0.86,0.35-0.24,0.65-0.61,0.76c0.84,0.59,1.91,0.73,2.88,0.39
			C670.33,96.02,668.51,96.11,668.09,95.59z"/>
		<path id="Path_487" class="st0" d="M537.89,98.14l0.39-0.3C538.14,97.92,538,98.02,537.89,98.14z"/>
		<path id="Path_488" class="st0" d="M734.25,274.56l-0.17-0.58C734.04,274.19,734.1,274.4,734.25,274.56z"/>
		<path id="Path_489" class="st0" d="M558.32,98.89l0.22-1.14C558.37,98.1,558.3,98.5,558.32,98.89z"/>
		<path id="Path_490" class="st0" d="M777.08,360.29l0.45,0.27C777.39,360.45,777.24,360.36,777.08,360.29z"/>
		<path id="Path_491" class="st0" d="M772.32,437.04c-0.3-0.02-0.6,0.02-0.88,0.12v0.12L772.32,437.04z"/>
		<path id="Path_492" class="st0" d="M598.71,474.5c0.02,0.15,0.06,0.31,0.12,0.45l0.7-0.84
			C599.23,474.16,598.94,474.3,598.71,474.5z"/>
		<path id="Path_493" class="st0" d="M732.92,478.96c0.07,0.12,0.08,0.27,0.17,0.37c1.11-0.44,2.15-1.02,3.09-1.75l-0.6-1.27
			C734.62,477.1,733.72,477.99,732.92,478.96z"/>
		<path id="Path_494" class="st0" d="M679.68,460l4.99,3.68c-17.53-1.52-25.41-5.2-40.61-4.13l0.86-0.55
			c-2.24-0.69-3.59,5.04-27.58-3.28v-0.28c-0.85,0-0.85,0.61-2.53-0.15l4.18,1.77c-2.58,1.07-5.28,1.81-8.05,2.19
			c-0.56-0.23-0.95-0.73-1.03-1.33l-8.17,0.58l-2.56-1.76c-2.49,1.06-1.2,4.8-7.96,2.99c2.63,2.57-3.23,1.75-2.33,3.06
			c-0.57-0.42-1.16-0.82-1.78-1.18c-4.5,0.36-8.9,1.5-13.02,3.36c6.82,1.81,13.47,4.23,19.86,7.24c-5.46-0.49-1.41,0.39-0.31,1.24
			l0.34-0.68c3.28,0.51,3.32,2.21,4.96,2.63c-0.02-0.16-0.05-0.32-0.11-0.47l-0.2,0.23c-0.14-0.22-0.1-0.51,0.1-0.68
			c-0.06-0.36,0.1-0.64,0.96-0.57l-0.16,0.18c1.56-0.19,3.14-0.19,4.71,0v1.4c2.4-2.76,16.07,4.02,19.21,4.31
			c3.13,1.84,7.17-0.18,11.11,0.9c6.31,0.84,3.05,2.23,6.12,3.65c3.84,1.19-0.67-1.7,0.96-1.67l4.57,2.32
			c-2.75,0-1.33,0.96-0.87,1.5c4.06,0.57,10.16,3.78,11.7,1.14c5.32,1.92,5.17,3.1,7.47,3.53c-0.71-0.61-2.21-1.27-2.15-1.83
			c2.03,1.52,1.09-0.17,0.22-0.56c3.56-0.87,16.43,7.51,17.58,4.63l-0.1,0.56c1.16-2.14,0.29-4.56,2.82-5.41l1.37,1.29l2.51-0.55
			c1.43,1.02,0.55,1.48,0.5,1.76c4.02-0.47,9,2.32,16.33,2.37c-2.36-1.81-4.41-4-6.04-6.48c3.95,2.21,8.58,2.89,13,1.92
			c0.68-0.34,1.09-0.72,1.11-1.17c1.2,0.27,2.41,0.45,3.64,0.53c5.66-1.08,6.92-3.24,6.95-4.24c0.16-1.21-0.48-2.18,1.18-2.96
			l4.51-1.3l-2.88,2.88c2.46-1.65,5.23-2.76,8.15-3.26v-0.07c-0.15,0.05-0.31,0.02-0.44-0.07l0.27-0.31
			c-0.42-1.45,0.32-2.99,1.72-3.56c3.84-2.6,8.16-4.42,12.7-5.36l0.53-3.15c2.09-0.88,4.09-1.97,5.96-3.26l1.34,1.31
			c-3.11,3.14-6.65,5.82-10.52,7.96c-3.84,2.15-6.86,3.64-8.46,4.68l0.37,0.78c2.56-1.73,5.22-3.29,7.97-4.68
			c1.32-0.19,6-0.69,3.96,1.92l1.86-3.27c5.23-3.59,9.63-8.25,12.93-13.67c3.19-4.91,5.77-10.19,7.68-15.73l-1.21,1.18
			c0.19-3.29,0.08-6.32,1.69-6.95c0.75-7.66,2.34-15.21,4.73-22.52l-2.22-1.06c0.1-1.58,3.37-4.02,0.28-4.8l-1.03-3.4
			c0.12-2.19-1.16-3.51,0.07-6l0,0l0,0l0.25-0.47h-0.18c0.88-4.96-1.97,0.08-0.81-5.6c1.54-1.83-2.83-1.97-2.38-4.73l3.11-2.81
			c1.73-5.01-1.46-5.82-1.59-13.05c1.07-3.5,3.73-5.23,6.17-2.96c-2.95-3.11-1.92-1.4-3.37-5.58c1.18-0.66,1.44-0.22,2.53,0.68
			c1.33-3.76-1.12-2.28-1.1-5.09c-2.26-0.78-5.85-1.64-6.01-2.56l-0.68,1.1c-1.43-3.02-1.71-6.45-0.8-9.66l1.12,0.11l-0.63-3.66
			l1.43-0.26l-0.56-5.23l-0.37,0.73c-0.51-2.5-0.54-5.07-0.11-7.58l0.81,0.07c2.35-6.58-1.04-11.88-1.48-19.49l1.66,0.96
			c1.57-2.63-2.54-0.65-1.8-3.78l2.01-0.19c-2.7-2.67,0.49-3.54,1.44-5.44l-2.61,0.96l0.48-3.55c0.8-3.92,3.27-2.47,4.66-1.92
			l-2.13-2.6l2.31-0.57c-2.74-1.92,0.39-1.92-1.13-5.32c0.86-0.3,1.39,0.55,1.75-0.61l-3.4-5.53l1.53,3.34l-3.4-0.34
			c-2.65-3.46,0.26-4.8-0.74-7.27l1.05,1.71c-0.96-4.08,0.52-4.33,1.22-6.67c-0.61,0.73-1.54,1.85-2.01,0.19
			c-0.21-1.22,1.18-0.69,1.53-1.85c-2.26-0.22-3.53-3.14-2.53-5.83c0.3,0,0.6,0.08,0.85,0.24c-0.38-0.67-0.96-1.01-0.46-2.21
			l2.54,0.63l-2.45-2.23c0.65-1.54-1.21-3.71,0.49-3.55l0.52,0.85l0.35-11.53l2.01-0.2c-2.8-1.08,0.96-6.3-2.54-5.84
			c1.83-2.22-1.53-8.53,2.4-7.34c0.13-7.58-3.71-11.58-2.02-20.84c3.24-3.35,1.92-12.31,2.19-18.25
			c-1.64-11.53-3.05-18.94-4.37-30.74c4.48-7.44-2.15-19.03-1.97-28.96l-2.44-2.15c1.07-7.27-6.26-16.28-11.97-25.82
			c-2.51-1.31-3.66-2.06-4.2-2.36c0.5,0.63,0.5,1.52,0,2.15c-1.66-2.73-7.22-5.21-5.66-6.88l0.78,0.22c1.6-2-8.4-3.66-10.52-6.36
			l0.67,2.95c-1.56-0.8-3.14-1.51-4.72-2.19h1.46c-8.27-0.5-16.51-1.49-24.66-2.97c-6.81-1.51-13.9-1.24-20.58,0.78
			c2.09-2.71-3.1,1.42-3.29-1.56c-3.97-3.74-7.35,0.8-10.57,1.79c0,0.2-0.08,0.39-0.22,0.54l-5.69-0.37
			c3.4-3.75-4.09,3.11-0.96-0.08c-14.81-2.88-34.15,0-51.3-1.34l0.76,0.96c-4.36,0.51-8.77,0.32-13.06-0.58
			c-3.29-1.55-7.21,2.44-8.49,2.58c-3.62,1.66-6.91-1.65-5.35-1.49c-3.84,0.46-7.51,3.84-12.88,2.4c-1.83-3.19-14.65,3.09-14.79-0.5
			l-0.07,0.31c-6.87-2.55-13.35,1.75-20.76-0.56c0.11-0.19,0.24-0.35,0.39-0.5l-15.08,10.85l4.27,11.99l13.04,9.75l35.39-2.04
			l28.23,3.84l68.74-1.16l4.92-2.69c13.66,4.8,31.03-1.11,38.99,5.22l0.88-2.16c2.54,0.73,1.76,2.02,2.09,2.62
			c17.04,0.44,14.68,53.53,13.86,85.16c-1.47,3.34-0.34,13.39-1.92,16.02c2.65,11.15,3.75,22.61,3.28,34.06l-0.26-0.42l0.56,5.25
			c-0.14,0.2-0.41,0.26-0.61,0.12c-0.01-0.01-0.02-0.01-0.03-0.02c1.33,7.47,1.22,15.13-0.31,22.56l-0.27-0.42
			c0.59,42.37,5.64,81.65,3.06,123.32c-0.91,6.93-2.24,13.79-4.01,20.56c-0.22,0.63-0.53,1.24-0.9,1.8
			c-0.53,0.68-1.23,1.19-2.03,1.5c-1.53,0.81-4.09,1.83-7.6,3.44c-4.12,1.92-8.02,4.26-11.64,6.99c-2.53,1.49-4.86,3.3-6.92,5.4
			c-0.82,0.8-1.69,1.55-2.59,2.25l0,0v0.09c-0.2,0,0.49,0.14-0.66,0.09c-1.71,0-4.99-0.59-8.3-1.02
			C688.06,460.37,683.88,460.04,679.68,460z"/>
		<path id="Path_495" class="st0" d="M609.91,457.91h0.18C610.09,456.91,609.82,457.28,609.91,457.91z"/>
		<path id="Path_496" class="st0" d="M703.9,493.47h-0.41l1.73,1.26L703.9,493.47z"/>
		<path id="Path_497" class="st0" d="M642.89,486.68c2.59,0.51,2.74,0.28,2.4-0.14C644.49,486.38,643.67,486.43,642.89,486.68z"/>
		<path id="Path_498" class="st0" d="M587.09,460.45c-1.47,0-0.87,0.56,0,1.16l2.53-0.31C588.79,461.1,587.95,460.64,587.09,460.45z
			"/>
		<path id="Path_499" class="st0" d="M593.62,473.46l-0.41,0.82C594.06,474.04,594.02,473.75,593.62,473.46z"/>
	</g>
	<path id="Path_500" class="st2" d="M758.14-466.2l-50.8-157.95L694.02-764.8l-29.88-24.73l-186.36,39.75l-222.94,43.87
		l15.29,163.68l48.61,115.77L758.14-466.2z"/>
	<g id="Group_107" transform="translate(65.89 -849.558)">
		<path id="Path_501" class="st0" d="M565.53,76.7C566.32,76.75,566.71,76.58,565.53,76.7z"/>
		<path id="Path_502" class="st0" d="M252.22,410.31l0.12,0.63c0.5,0.34,0.97,0.72,1.4,1.13L252.22,410.31z"/>
		<path id="Path_503" class="st0" d="M266.02,515.52v0.64C266.27,516.07,266.56,516.15,266.02,515.52z"/>
		<path id="Path_504" class="st0" d="M197.03,175.3c0.05-0.49-0.04-0.99-0.24-1.44C196.91,174.33,196.99,174.82,197.03,175.3z"/>
		<path id="Path_505" class="st0" d="M625.91,206.89l-0.07-0.47l-0.21,1.18L625.91,206.89z"/>
		<path id="Path_506" class="st0" d="M624.98,204.76c0.19-2.4,0.7,0.62,0.86,1.65c0.43-2.63,0.39-5.32-0.11-7.93
			C625.03,198.54,625.45,203.55,624.98,204.76z"/>
		<path id="Path_507" class="st0" d="M704.78,551.26l-0.52-0.9C704.4,550.67,704.58,550.97,704.78,551.26z"/>
		<path id="Path_508" class="st0" d="M162.26,187.41l-0.28-1.67C161.98,186.3,162.07,186.87,162.26,187.41z"/>
		<path id="Path_509" class="st0" d="M689.7,498.19l-1.27-0.3C689.03,498.31,689.41,498.34,689.7,498.19z"/>
		<path id="Path_510" class="st0" d="M253.75,412.07l0.57,0.69C254.16,412.51,253.97,412.28,253.75,412.07z"/>
		<path id="Path_511" class="st0" d="M286.49,608.75c-0.31,0.16-0.55,0.42-0.68,0.74l0.08,0.26L286.49,608.75z"/>
		<path id="Path_512" class="st0" d="M690.1,622.66c-0.09-0.15-0.21-0.28-0.36-0.38l-1.76,1.21
			C688.72,623.3,689.43,623.02,690.1,622.66z"/>
		<path id="Path_513" class="st0" d="M342.79,696.97c0.1-0.13,0.37-0.27,0.37-0.42c-2.06-0.35-7.22,0-13.26-1.03l-0.61,1.32
			C333.77,697.38,338.3,697.43,342.79,696.97z"/>
		<path id="Path_514" class="st0" d="M494.42,701.63c-5.39,0.96-10.81,1.53-16.09,1.97c18.87-5.96,37.22-13.44,54.88-22.36
			c14.29-6.88,28.98-12.88,44.01-17.95l-1.81,1.14c5.55-0.75,5.76-8.22,69.64-13.34l0.06,0.27c2.06-0.79,4.24-1.2,6.45-1.2
			l-11.05,0.54c6.58-2.52,13.29-4.69,20.1-6.49c1.92-0.08,2.61,0.37,2.88,0.78l20.86-4.8l6.79,0.44c3.12-1.15,3.68-2.51,5.81-3.78
			c5.22-2.25,10.71-3.8,16.33-4.61c-4.39,0.09-1.92-1.09,1.21-2.58c3.13-1.5,7.13-3.84,5.49-3.68c2.1-0.58,4.13-1.36,6.08-2.32
			c1.7-1.32,3.31-2.76,4.8-4.3c1.92-2.01,3.58-4.23,4.97-6.64c2.85-4.89,4.49-10.38,4.8-16.02c0.35-5.61-0.9-11.21-3.59-16.15
			c-1.93-3.5-4.75-6.43-8.17-8.49c0,0,0.96,0.84,2.42,2.44c1.96,2.27,3.48,4.87,4.51,7.68c2.54,7.54,1.82,15.81-2,22.8
			c-1.88,3.65-4.5,6.88-7.68,9.47c-2.78,2.15-5.86,3.86-9.15,5.09c-4.44,1.66-9.13,2.59-13.87,2.74c15-4.26,3.72-1.4,0.63-1.46
			l-0.79,0.96c-4.52,0.62-9.09,0.69-13.62,0.21c0,0.13,0.19,0.26,0.35,0.4l0.51-0.33c0.47,0.2,0.27,0.46-0.15,0.71
			c0.17,0.34-0.17,0.7-2.53,1.09l0.41-0.26c-3.54,0.96-9.8,2.02-12.49,2.47l-0.35-1.37c-5.82,3.97-43.66,4.93-52.24,6.62
			c-8.95,0.08-19.14,4.4-30.12,5.9c-17.29,3.51-9.06,0-18.02,0.96c-11.06,2.05,2.61,0.96-1.7,2.25c-4.48,0.51-8.97,1.15-13.45,1.92
			c7.46-2.5,3.15-2.04,1.59-2.15c-11.38,2.97-29.78,8.27-31.7,12.4c-14.64,5.48-15.01,4.55-20.95,7.22
			c2.17-0.48,6.27-1.92,6.56-1.47c-6.02,1.56-2.49,1.56-0.12,0.71c-8.1,4.15-16.63,7.41-25.43,9.73
			c-6.89,1.16-13.61,3.22-19.97,6.12l-0.14-0.54c-1.45,2.71,2.36,4.1-3.47,6.81l-4.34-0.12l-6.06,2.19c-4.37,0-2.39-0.96-2.44-1.23
			c-12.51,2.51-25.18,4.14-37.92,4.87l14.46,4.4c-10.93-0.14-31.15-0.1-33.01,2.45l-6.99-0.8c-22.66,0.96-14.62,5.21-23.39,5.89
			c-3.67,0-7.29,0-10.84-0.2c3.4-0.56,6.83-1.23,10.29-1.98c-7.47,1-15.04,1-22.51,0l-0.09,0.07c0.53,0.06,0.87,0.15,0.96,0.28
			l-1.34,0.14c-3.91,1.9-8.37,2.37-12.58,1.31c-4.42-0.69-8.75-1.84-12.93-3.43c-5.08-1.99-9.33-5.65-12.07-10.36
			c-1.27-0.31-2.51-0.71-3.72-1.19c-1.36-3.09-2.18-6.39-2.44-9.76l1.83-0.43c1.14,5.78,4.4,10.92,9.15,14.41
			c5.88,4.24,12.71,6.97,19.89,7.97l0.37-0.81c-6.93-0.75-13.56-3.23-19.29-7.2c-1.83-1.71-3.48-6.68-0.24-4.95
			c-1.25-0.41-2.47-0.92-3.64-1.53c-5.05-6.83-4.66-16.87-7.31-26.49c-2.16-9.48-5.61-18.18-9.74-33.81v3.01
			c-2.72-5.97-5.27-12.03-4.29-14.26c-5.32-17.09-8.56-34.76-9.65-52.62l-2.75-2.32c-0.82-4.15,1.26-11.05-2.15-12.49l-2.67-8.73
			c-1.42-5.18-2.29-10.48-2.61-15.84l0,0l0,0v-1.28c-0.07,0.02-0.13,0.05-0.17,0.11c-1.2-13.25-1.92,0.46-3.14-14.74
			c0.76-5.05-3.61-4.91-4.27-12.32l1.92-7.86c-0.24-13.64-3.71-15.44-6.72-34.89c-0.37-9.54,1.57-14.51,4.92-8.65
			c-2.84-4.49-4.8-9.49-5.76-14.72c0.88-1.92,1.34-0.78,2.81,1.57c-0.33-10.35-2.08-6.05-3.33-13.69c-2.6-1.83-6.59-3.75-7.18-6.19
			l-0.16,3.06c-2.9-8.43-4.79-17.17-5.63-26.04l1.17,0.12l-2.7-9.83l1.27-0.96c-1.21-4.7-2.34-9.42-3.68-14.07l0.1,2.03
			c-2.07-6.68-3.77-13.48-5.07-20.36h0.84c-2.18-18.04-9.46-31.27-15.24-51.09l2.3,2.18c-0.3-7.2-2.93-1.19-4.38-9.47l1.83-0.96
			c-4.43-6.39-1.92-9.31-2.22-14.41l-1.92,2.95l-1.81-9.31c-1.62-10.3,1.74-6.96,3.41-5.83l-3.65-6.35l1.92-1.86
			c-3.7-4.38-0.73-5.06-3.95-13.45c0.73-0.89,1.65,1.2,1.44-1.83c-2.05-4.56-4-9.14-5.84-13.76l2.93,8.41l-3.55-0.44
			c-4.11-8.65-1.76-12.37-3.54-18.71l1.61,4.32c-1.4-5.63-1.64-11.49-0.7-17.21c-0.44,1.92-1.08,4.8-1.92,0.59
			c-0.49-3.12,0.96-1.82,1.13-4.8c-1.15-0.26-2.15-2.26-2.79-5.08c-0.73-3.07-0.86-6.26-0.37-9.38c0.35,0.05,0.66,0.25,0.85,0.56
			c-0.63-1.29-0.7-2.78-0.19-4.12l2.39,1.35l-1.92-3.45c0.9-1.2,0.63-3.76,1.92-2.68c-0.05,0.32-0.05,0.64,0,0.96
			c4.59-4.47,10.43-7.41,16.75-8.43l0.96,1.83c1.58-3.42,15.79-2.88,13.96-5.98c5.84,0.44,21.76-5.83,19.21-1.35
			c18.14-4.62,36.56-8.04,55.15-10.25c9.33,1.98,33.87-2.88,50.42-6.25c31.77-8.65,51.06-16.54,81.35-27.56
			c19.82-1.75,44.96-16.61,65.14-19.21l4.86-3.21c13.55-0.42,32.66-8.2,51.09-6.96c2.53-0.74,5.09-1.35,7.68-1.83
			c-1.06,0.1-2.07-0.44-2.57-1.37c5.24,0.37,15.64-0.74,14.91,1.54l-1.3,0.28c-0.36,1.18,3.51,0.69,8.15,0.68
			c4.08-0.54,8.22-0.21,12.16,0.96c-0.63-0.99-1.38-1.9-2.22-2.72c3.5,0.45,3.28,0.62,4.29,1.11c-0.28,0.05-0.56,0.13-0.83,0.23
			c1.61-0.32,3.27,0.34,4.22,1.68c2.24,3.34,4.25,6.83,6.02,10.44c3.07,6.93,5.38,14.17,6.88,21.6c3.05,14.5,4.41,29.08,8.26,49.76
			c-3.07-5.35,1.97,8.12-1.01,8.89c-3.16,10.77,1.78,19.84,3.26,28.7c0.15,0,0.33,0.09,0.59,0.59l0.72,15.79
			c-4.51-9.17,4.02,11.16,0.14,2.73c0.74,23.53,4.89,46.83,12.32,69.16c7.32,23.62,16.33,46.76,22.43,68.7l0.33-2.19
			c3.92,10.74,6.72,21.85,8.33,33.17c1.25,7.27,3.36,14.36,6.28,21.13c2.79,9.16,0.1,18.25,0,14.13
			c2.76,11.48,4.53,23.18,5.28,34.97c-0.49,7.71,0.67,15.45,3.39,22.68c2.7,9.61,5.91,18.08,4.21,18.81l0.34,0.08
			c2.8,19.27,13.04,34.58,15.48,53.89c-0.28-0.25-0.53-0.54-0.74-0.85c6.96,11.7,12.32,24.29,15.94,37.42
			c4.11-3.89,7.96-8.04,11.53-12.44c2.07-12.99,2.91-26.16,2.51-39.31c-4.8-16.33-10.57-31.36-15.01-45.98
			c-4.55-14.21-7.6-28.86-9.08-43.71c-0.49-12.32-0.48-25.24-1.29-38.81c-0.86-13.75-2.71-27.42-5.53-40.91
			c-8.31-32.09-20.24-61.27-29.07-89.94c-4.49-13.92-7.98-28.14-10.43-42.55c-2.17-14.73-3.6-29.55-4.27-44.42l-3.35-13.16
			c1.46-21.21-0.1-42.51-4.64-63.28c-2.43-11.65-5.93-23.05-10.48-34.05c-2.07-5.65-4.94-10.9-7.45-16.33
			c-0.75-1.42-1.56-2.88-2.58-4.58c-1.26-2.01-2.66-3.94-4.18-5.76c-3.01-3.65-6.65-6.73-10.76-9.09l-2.4,1.41
			c-3.51-1.53-7.17-2.65-10.93-3.35c-2.75-0.54-3.64-0.77-4.71-1.08c-1.23-0.51-2.5-0.94-3.78-1.29
			c-27.92-1.27-55.87,1.52-82.99,8.29c-26.54,6.32-51.87,14.81-76.19,23.15c-24.31,8.34-48.03,16.42-71.23,22.38
			c-22.79,5.58-45.95,9.57-69.3,11.93c-9-0.27-36.29,4.7-43.8,4.47c-15.32,4.12-30.58,7.84-47.21,12.95
			c-10.3,2.95-19.81,8.14-27.86,15.21c-4.94,4.62-8.75,10.32-11.12,16.66c-1.95,5.58-2.97,11.45-3.01,17.36l-0.21-1.54
			c0.04,5.44,0.38,10.87,1.04,16.27c-0.15,0.65-0.42,0.76-0.62,0.28c3,16.97,5.18,43.5,9.02,63.61l-0.51-1.11
			c6.41,29.12,14.84,56.52,22.5,83.18c7.8,26.68,14.19,52.56,19.26,79.45c10.4,53.61,16.33,108.98,28.13,166.65
			c2.31,14.12,5.61,28.07,9.87,41.73c2.02,7.13,4.8,14.22,7.28,21.42c2.7,7.2,5.37,13.6,7.14,19.37c0.91,2.88,1.63,5.82,2.17,8.79
			c0.7,3.48,1.41,7.76,2.83,12.81c1.56,5.63,3.96,10.98,7.13,15.89c3.2,4.87,7.08,9.25,11.53,13.01
			c16.31,12.75,36.7,19.12,57.37,17.92c9.84,0.05,19.65-1.15,29.18-3.59c13.99-3.21,27.71-6.44,44.19-8.65
			c16.15-2.33,33.54-4.65,47.64-7.86C476.31,708.14,485.52,705.29,494.42,701.63z"/>
		<path id="Path_515" class="st0" d="M663.5,644.96l-0.47,0.11C663.25,646.02,663.87,645.51,663.5,644.96z"/>
		<path id="Path_516" class="st0" d="M414.41,686.77l0.81-0.09l-3.23-0.96L414.41,686.77z"/>
		<path id="Path_517" class="st0" d="M567.71,637.76c-7.4,1.82-7.68,2.23-6.51,2.26C563.42,639.44,565.6,638.69,567.71,637.76z"/>
		<path id="Path_518" class="st0" d="M726.65,624.62c4.7-3.6,2.52-2.59-0.53-1.04c-2.49,1.93-5.19,3.6-8.03,4.97
			C721.07,627.54,723.94,626.22,726.65,624.62z"/>
		<path id="Path_519" class="st0" d="M703.8,620.75l0.96-1.1C702.59,620.49,702.74,620.72,703.8,620.75z"/>
	</g>
	<g id="Group_108" transform="translate(79.242 -838.061)">
		<path id="Path_520" class="st0" d="M485.63,142.45c0.15,0.05,0.3,0.09,0.46,0.11C485.75,142.74,485.54,142.77,485.63,142.45z"/>
		<path id="Path_521" class="st0" d="M491.28,142c-1.65,0.63-3.44,0.82-5.19,0.55C487.26,141.96,490.18,139.7,491.28,142z"/>
		<path id="Path_522" class="st0" d="M484.29,138.57l1.92,0.25C485.39,139.77,485.25,138.56,484.29,138.57z"/>
		<path id="Path_523" class="st0" d="M485.55,140.67l0.16,0.96l-1.16-0.62L485.55,140.67z"/>
		<path id="Path_524" class="st0" d="M399.19,172.12c0.31,0.37,0.49,0.83,0.52,1.32L399.19,172.12z"/>
		<path id="Path_525" class="st0" d="M394.18,168.93c-0.29-0.05-0.59-0.07-0.88-0.06C393.55,168.75,393.78,168.8,394.18,168.93z"/>
		<path id="Path_526" class="st0" d="M402.78,170.88l-0.69,0.29C402.27,170.99,402.52,170.88,402.78,170.88z"/>
		<path id="Path_527" class="st0" d="M446.66,156.56l2.2,1.19C447.74,158.75,447.25,157.3,446.66,156.56z"/>
		<path id="Path_528" class="st0" d="M372.73,159.87v0.77C372.46,160.31,372.29,160.05,372.73,159.87z"/>
		<path id="Path_529" class="st0" d="M390.49,157.05c0.1,0.31,0.15,0.63,0.12,0.96l-0.24-0.13L390.49,157.05z"/>
		<path id="Path_530" class="st0" d="M405.28,168.71v-0.1l0.69,0.32C405.71,169.18,405.48,169.11,405.28,168.71z"/>
		<path id="Path_531" class="st0" d="M366.88,160.11c-0.41-0.44-0.76-0.92-1.05-1.45C366.43,158.9,366.84,159.46,366.88,160.11z"/>
		<path id="Path_532" class="st0" d="M393.22,168.91L393.22,168.91h0.12H393.22z"/>
		<path id="Path_533" class="st0" d="M396.48,156.57l-1.01-0.16C395.8,156.18,396.24,156.26,396.48,156.57z"/>
		<path id="Path_534" class="st0" d="M446.66,156.57l-0.7-0.4C446.23,156.07,446.45,156.25,446.66,156.57z"/>
		<path id="Path_535" class="st0" d="M481.45,145.37c-0.55,0.17-0.83-0.31-1.08-0.8C480.8,144.75,481.17,145.02,481.45,145.37z"/>
		<path id="Path_536" class="st0" d="M277.89,193.5h-0.22C277.74,193.46,277.82,193.46,277.89,193.5z"/>
		<path id="Path_537" class="st0" d="M300.11,191.69c0.15,0.16,0.29,0.34,0.39,0.53C300.34,192.45,300.19,192.09,300.11,191.69z"/>
		<path id="Path_538" class="st0" d="M316.9,170.3c-1.2,1.34-3.07-0.57-4.32-0.46l0.59,0.84l-1.38-0.53l0.26,1.3
			c-2.17-0.23-4.47,1.58-5.6-0.36l0.62,2.04l-2.48-1.25l1.5,1.18c-2.28,0.4-4.61,0.4-6.89,0l0.36,0.73c-0.33,0.47-0.73,0-1.2-0.16
			l0.53,1.1c-3.75,0.33-4.3,3.13-8.65,2.63c-1.08,0.48,0.68,0.26,0.82,0.96c-0.45,1.03-2.05,0.4-2.45-0.06
			c0.63,1.76,2.28,0.89,1.21,2.59c-1.1-0.73,0.96,1.56-0.79,1.5l-1.05-2.22c-0.85,0.56,0.13,1.85-1.36,1.87
			c-1.83-0.73,1.58-2.99-1.15-2.88c-1.32,0.38-1.92,5.88-4.72,5.05c-2.04,1.59,1.8,3.44-1.41,3.36l2.24,1.2
			c-0.4,0.75,0.12,1.86-1.31,1.58c-0.58-0.84-1.6-1.85-2.35-1.84c3.21,1.27-2.11,3.08,0.96,4.93l-1.03,0.09
			c0.15,0.11,0.22,0.3,0.17,0.48l-1.32,0.38c0.9,0.37,2.88,0.25,2.29,2.12l-1.92,0.77c0.73,1.2,0.11,1.86,0.39,2.88l6.17,1.54
			c-0.36-0.75-1.27-1.11-1.1-1.92c1.42-0.96,1.5,1.19,2.76-0.13l-0.82-0.96c0.17,0.37,0.4,0.46,0.12,0.64
			c-0.39,0.76-0.75,0-0.86-0.63c0.28-1.4,1.92-0.77,2.48,0.08c1.84-0.49,0-2.42,0.33-2.88c1.34,2.04,3.1-0.58,4.43,0.24l-0.96-1.29
			c1.12-1.92,2.63-0.79,3.55-0.42l-0.52-1.11c2.01-0.12,2.3-4.23,4.53-0.35l-0.35-0.74c0.74-0.51,1.82-1.59,2.81-0.5
			c-0.08-0.5,0-1.12,0.26-1.33c0.72,1.53,1.34,0.17,2.49-0.33c-0.86-0.28-0.96-2.38-1.92-2.75c1.46-2.44,2.1,2.02,3.63,1.71
			c0.74-1.23-1.04-0.96-1.39-1.75c2.58,0.69,4.02-5.66,6.27-1.81l-0.79,1.51c1.11,0.72,1.62,0.62,1.44,0.25
			c-0.28,0.19-0.46-0.18-0.63-0.55c2.47-2.65,5.02,2.22,7.76,0.85c-0.36-0.73-0.82-0.9-0.96-1.57c1.18-1.05,2.04,3.77,3.84,1.76
			l-0.59-0.82c0.61-0.68,1.38,0.51,1.34,0.8c-0.61-3.52,4.57-0.69,5.2-5.55c1.41,1.73,4.71,2.66,5.43,1.42
			c0.9-2.35-1.61-2.08-1.51-4.14c1.02-0.21,1.92,1.6,3.33,0.62c0.41,1.92-2.26,4.55,0.85,5.09l0.19-1.12
			c-0.27,0.19-0.61,0.67-1.08,0.51c-1.06-0.96,0.24-1.41,0.34-1.97h3.22c0.63,2.03-1.32,1.92-1.4,2.47
			c2.37-0.96,4.72-4.54,7.28-3.61l-0.37-0.74c3.27,1.19,0.96-4.12,3.92-1.27c1.11-0.79-0.87-2.1,0.96-2.64
			c0.52-0.12,0.37,0.73,0.34,1.01c2.41,0.27,0.59-2.17,3.06-0.69l-0.89-2.09c2.8,0.96,6.2,4.29,8.16,2.88
			c-0.48-1.65-1.78-1.22-2.57-2.4c3.54,2.46,7.06-1.09,10.1,0c-0.51,1.6,1.98,3.06,0.51,4.63c-0.9-2.09-1.41-0.49-2.38-0.53
			c2.5,4.44,5.76-3.63,7.09,0.39v-1.78c0.47,0.17,1.8,1.21,1.19,1.92l2.74-1.73c-1.33-1.05-4.15-3.5-4.45-1.54
			c-1.23-1.61,0.96-1.45-0.23-3.34c2.59,2.39,0.96-1.45,3.15-1.28c-0.4,2.63,2.77,2.88,2.88,4.05c0.58-0.6,2.32,0.2,3.08,0.89
			c1.24,0,3.54-2.59,5.64-2.17c-1.21-0.56-2.13-1.6-2.53-2.88c1.13,0.67,2.16,0.43,1.92-1.42c-4.04-2.57-0.15,4.38-3.63,2.88
			c-0.74-1.46-2.21-2.41-3.84-2.49c0.45-1.33,0-1.77,0-3.26c2.88,3.94,5-0.65,7.96,0.96c1.32,1.03,1.14,3.94,3.62,3.84l-1.74,1.79
			c1.92-1.7,0.82,1.16,2.77,1.22l-1.05-1.24c1.07-0.53,1.54-0.37,2.39,0.5l-1.45-1.92c0.55-0.41,1.6-0.96,1.92,0.34
			c0.04-0.46,0.01-0.92-0.09-1.36c0.19,0.34,0.54,0.5,1.23,0.27c-0.48-0.15-0.75,0-0.89-0.6c2.83-0.11,0.11-2.5,1.83-2.66
			c-0.38-0.45,0-1.18,0.5-1.58c0.74,3.44,4.17,3.13,5.49,4.8l0,0l2.58,0.84c-0.52-0.17-0.24-1.22,0.33-1.74h-0.11
			c0.6-0.7-1.71-3.53,0.67-3.04l1.37,0.75c-0.23-0.08-0.16-0.64-0.12-0.96l1.38,0.65c1.05-3.6,3.84,1.02,5.54-1.05
			c-0.54,0.41-1.54,0.39-1.37-0.74c0.31-0.49,1.02-0.25,1.46,0.17l-0.19-0.36l4.51,1.15c-0.6-1.08-2.88-0.62-2.17-2.17
			c0.21-1.7,1.76-0.33,2.51-0.37c0.12,0.96-1.01,2.04,0.45,2.2c0.06-0.48,1.1-1.72,0.36-2.23c1.88,0.34,3.68,1.01,5.33,1.97
			c0.3-0.49-0.41-0.71-0.64-0.79v0.28c-0.96-0.3-0.69-2.28-2.08-0.96c-0.85-2.93,2.14-1.38,3.46-2.14l-2.75-1.47
			c2.83-4.96,9.04-1.84,12.83-2.73c-0.87,1.2-2.02,0.55-1.32,2.82c1.53,0.32,3.12,0.32,4.65,0l-0.22-0.07
			c0.96-1.49,3.14,0.38,3.41-1.92c-0.85-1.13-1.42,1.62-2.09-0.96l3-0.54c-1.31-1.28-3,0.54-4.22,0.46
			c-0.78,0.35,1.72-0.06,1.76,1.72c-2.78,0.61-3.84-0.89-5.76-2.97c-1.26-1.58,0.76-2.11,1.26-2.25c1.91,2.29,5.27,2.71,7.68,0.96
			l0.96-2.33c1.81,1.42,2.11,5.04,4.44,3.98l-1.09-1.21c0.39-0.68,0.7-0.96,0.96-1.01c-1.32-0.79-2.75-1.69-3.98-2.56
			c0.63-3.31,4.35,0.46,6.55,0.53c-0.2-0.36-0.96-0.29-1.35-0.96c2.88-1.47,6.95,1.22,9.42,1.07c0.65-1.55-2.17-0.34-2.19-2.39
			c1.42,0.42,2.37-1.63,3.17,0.06c-1.2-2.4,2.79-0.96-0.19-2.69c4.67-1.58,9.68-1.91,14.51-0.96c-0.38-0.57-0.56-1.24-0.54-1.92
			c-1.84,0.59-3.85,0.12-5.24-1.22c0.64-1.58,2.82,1.1,2.88,0.25c-0.67-0.49-1.68-0.19-2.04-1.47c0.9-1.79,2.18,0,3.16,0l-0.32,0.78
			c3.3,0.96,2.77,4.01,5.61,2.5c0.67-1.84-0.37-1.27-0.89-3.18c0.96,0.56,2.63-2.14,3.94-0.33l-1.79,0.66
			c1.24-0.04,2.48,0.05,3.7,0.27c-0.2-0.39-0.39-0.79-0.71-0.87c1.19,0.34,2.45-0.18,3.31,0.96l-0.28-2.13
			c-0.36,1.08-2.12,1.74-2.74,0.69c-0.32-1.84,1.82-1.23,2.58-1.6c-3.7,0.41-4.61-2.75-7.24-0.61l0.68,0.5
			c-1.44,2.06-4.05,0-5.68,0.52c0.31-0.5,0.28-1.14-0.08-1.6c-3.18,2.57-7.05,2.33-10.91,4.38l-1.78-1.69l0.33,1.55
			c-1.83,1.21-0.96-2.05-2.26-1.55c0.49-0.14,0.47,0.14,0.67,0.5c-2.8-1.13-0.96,1.78-2.36,1.63c1.06,1.48,2.68-0.08,2.67,2.26
			c-2.8-1.13-6.18,0.79-7.48-2.83c-3.96,2.6-9.93,1.65-13.65,2.26c-0.34,0.78,0.44,0.43,0.38,0.96c-1.99-1.8-4.48,2.7-4.99,0.79
			c-0.41,0.85-0.61,1.8-0.57,2.75c-1.1-0.63-2.36-0.92-3.62-0.85l0.96,0.32v0.29l-1.41-0.45v-0.13c-3.12,0.81-6.39,0.81-9.51,0
			c1.83,0.88,0.17,2.42,1.09,3c-2.07-2.15-5.35-2.6-7.92-1.08c0.17,0.64,0.09,1.21,0.52,1.64l-1.83-0.89l0.38,0.72
			c-2.6,1.21-6.38-1.52-7.85,0.37c1.2,0.11,1.35,0.75,1.71,1.75c-2.07,0.53-4.23,0.66-6.35,0.38c0.17,0.16,0.29,0.36,0.36,0.59
			c-0.54,0.41-1.44-0.17-2.14-0.42l0.27,1.57c-1.34-0.45-2.67,0.68-4.35-0.23c-0.16,1.83-3.73-0.82-5.18,0.27
			c-0.7-0.23,1.74,1.47,0,1.77c-0.96-3.3-2.26,0.43-3.21-3.15l-1.21,1.65l-0.74-1.73c-0.53,3.65-2.29-1.09-3.96,0.4
			c0.18,0.37,0.42,0.45,0.38,0.73c-0.7-0.24-2.18-0.16-1.28-1.33c-1.01,0.24-4.66,0.16-2.68,1.73c-0.35-1.01,1.27-0.44,1.97-0.2
			c0.26,1.57-1.41,1.3-1.42,3.06c-0.17-0.22-0.35-0.42-0.55-0.61v1.01c-2.28-1.29-3.96,0.37-5.83-1.55c0.05,0.48-0.3,0.91-0.78,0.96
			c-0.06,0.01-0.12,0.01-0.18,0l-0.45-1.92l-2.03,0.47l1.56,2.62c-2.12,1.04-4.37-1.84-6.31-1.92c0.2,3.33-3.84-0.47-4.8,2.74
			l1.62,0.58c-3.2,0-3.28,2.09-6.38,1.57c2.06-1.05,3.88-2.52,5.34-4.3c-3.27,2.08-6.5-0.58-9.37,1.97
			c0.37,0.72,1.29,1.06,0.65,2.01c-0.96-1.54-3.05,0.69-2.96-1.36c-0.87,0.86-0.69,2.73-1.25,3.12l-3.84-1.72l0.17,0.37
			c-4.88,5.67-11.36-0.89-16.77,2.11l0.31,1.02l-1.74-1.25c1.33,0.81-0.24,1.4-0.17,2.32l-4.13-1.56
			C315.46,168.84,316.07,170.88,316.9,170.3z M365.89,161.36h0.9c0.16-0.15,0.41-0.15,0.58,0h-0.58
			C366.42,161.66,366.26,162.55,365.89,161.36L365.89,161.36z M447.21,146.1c0.64,0.79-0.53,0.43-0.8,0.63l1.48-0.13
			c0.09-0.57-0.42-0.41-0.66-0.5L447.21,146.1z M368.63,173.87l-0.21,1.41l-0.85-0.88L368.63,173.87z M356.14,176.63l1.4,0.5v0.28
			l-1.39-0.5L356.14,176.63z M340.11,168.94c0.1,0.06,0.2,0.13,0.29,0.21C340.29,169.1,340.19,169.03,340.11,168.94
			c-1.15-0.75-1.07,1.66-2.3-0.45c0.58-2.09,1.59-0.21,2.31,0.48L340.11,168.94z M362,164.4c0.47,0.16,0.7,0.24,0.96,0
			c-0.37-0.73-1.45-1.7-0.89-2.1c0.61,0.82,2.08,0.74,2.38,2.03c-1.53-1.06-1.6,2.77-2.44,0.11L362,164.4z M391.45,158.83l-0.28,0.2
			l1.37,0.75L391.45,158.83z M397.07,158.94c1.01,1.52,2.57,0.85,3.78,0.96c0-1.49-1.56-2.88-2.88-2.41
			C396.17,156.6,397.93,159.84,397.07,158.94L397.07,158.94z M352.96,168.91l0.56,1.1l-0.27,0.2l1.39,0.5
			c-1.3,1.92-3.06-0.81-4-1.14c0.75,0,3.3,2.41,2.32-0.62V168.91z M408.57,157.11c1.36,0.76,3.7,1.5,3.78,2.71
			c-0.17-1.46-1.36-2.59-2.82-2.68c-0.26,0.23-0.51,0.16-0.96,0V157.11z M409.48,161.25c-1.92-0.62-2.24-1.61-3.97-3.36
			c1.4-1.31,2.52,1.41,2.59,2.61c1.36,0.75,0.82-0.62,1.35-1.03L409.48,161.25z M406.32,155.49l-0.6,0.45
			c-0.58,1.1-0.16,3.62-1.85,1.39l1.85-1.39c0.11-0.23,0.34-0.39,0.6-0.4V155.49z M420.11,152.31l-0.85-0.59
			C419.93,151.63,420.09,151.94,420.11,152.31l0.71,0.5c-1.3,1.19-0.69,0.25-0.71-0.45V152.31z M409.76,155.42l-1.99,0.23
			c0.36,1.06,1.44,0.24,1.99-0.18L409.76,155.42z M420.15,154.35c-0.83,0.4-1.69,0.72-2.57,0.96c-0.08-1.18,1.95-1.43,2.57-0.91
			L420.15,154.35z M463.51,146.54l-1.24,0.21l0.17-1.7L463.51,146.54z M449.55,151.45l0.11-0.85l0.74-0.07L449.55,151.45z
			 M436.4,154.92c-0.03-0.39-0.15-0.76-0.36-1.1c-0.27-0.09-0.5-0.29-0.62-0.55c0.17,0,0.42,0.19,0.62,0.55
			c0.64,0.18,1.31-0.13,1.59-0.73c-0.4-0.71-1.18-0.37-1.62-0.8c0.75-2.11,4.8,2.65,2.74-2.39c0.66,0.51,2.76,1.43,2.38,2.5
			C439.29,152.62,437.61,153.52,436.4,154.92c0,0.29-0.06,0.54-0.28,0.64c0.05-0.22,0.15-0.43,0.29-0.61L436.4,154.92z
			 M418.88,160.42c-0.34,0.05-0.69-0.04-0.96-0.26c-0.59-0.3-0.98-0.89-1.04-1.55c1.2,0.38,0.67,1.14,1.04,1.55
			c0.29,0.19,0.63,0.29,0.97,0.3L418.88,160.42z M415.81,161.5l1.92,0.6l-1.1-0.96l2.98,1.55c-1.19,1.46-3.24,0.21-3.78-1.14
			L415.81,161.5z M415.47,162.65l-0.63-1.17l0.83,1.15h-0.18l0.15,0.26l-2.93-0.06L415.47,162.65z M386.65,166.67
			c-0.07,4.59,3.13,2.54,4.15,4.51c-0.21-1.48,0.33-3.97-2.36-3.3c2.01-1.99,2.1,2.48,2.66-1.48c-1.06,0.53-2.65-0.3-2.88-0.37
			l1.28-0.46c-1.33-2.48-1.67,1.83-2.82,1.15L386.65,166.67z M372.59,170.51l-1.76,0.28h1.72L372.59,170.51z M329.84,180.55
			c0.33,1.01-1.57,3.3-2.48,1.46c1.1-0.51,2.35-0.63,2.5-1.47L329.84,180.55z M311.24,183.74l2.13,0.52
			c0.06,2.42-1.78,0.22-2.61,0.81c-0.53-1.15,0.34-0.49,0.5-1.34L311.24,183.74z M298.46,186.03l-0.7-0.27l1.08,2.22L298.46,186.03z
			 M299.87,188.98c-0.21,1.12,1.22,1.37,1.52,1.19L299.87,188.98z M288.66,193.05l0.81-0.28l-1.1-1.92L288.66,193.05z
			 M289.55,190.39c0.45,1.46,0.71,3.49,2.43,2.15c-0.18-1.58-0.7-1.48-0.32-3.44c-0.69-0.27-1.09,0.49-1.37,0.67
			c0.47,0.17,0.86-0.57,1.15,0.45c-0.37,0.57-1.13,0.73-1.7,0.36c-0.08-0.05-0.15-0.11-0.22-0.18c-0.09-0.44-0.31-0.85-0.63-1.16
			c0.09,0.45,0.34,0.85,0.69,1.14L289.55,190.39z M296.11,187.51c0.22-0.2,0.38-0.47,0.45-0.76l0.18,0.37
			C296.6,187.85,296.35,187.73,296.11,187.51c-0.26,0.26-0.53,0.5-0.83,0.72c0,1.35,1.48,2.03,1.92,2.7
			c-0.69-0.27-1.45-1.47-2.12-0.52c0.17,0.37,0.12,0.65,0.62,0.54l-1.08,0.49c-1.61-1.6-0.48-2.39,0.61-3.21
			c-0.01-0.33,0.06-0.66,0.19-0.96c0.23-0.22,0.46,0.07,0.7,0.28L296.11,187.51z M286.51,186.15l0.68,0.27
			c0.4,0.46,0.29,1.02,0.47,1.39c-0.7,0.04-1.77-0.69-1.08-1.62L286.51,186.15z M323.4,179.01c-0.33,0.48,0.9,1.83,1.75,1.25
			l-0.12,2.05c-0.27-1.29-2.08-0.78-2.32-0.86c-0.61-1.71,0.27-1.08,0.75-2.4L323.4,179.01z M366.17,170.37
			c0.86,2.38,2.88,0.41,3.54,0.96c-1.03,0.78-3.68,1.93-3.46-0.96L366.17,170.37z M370.01,168.51c0.64-0.12,0.78-0.38,0.96,0.86
			c0.42,0.45,0.79-0.32,1.21,0.12c-1.01,1.35-1.35-0.62-2.19-0.96c-0.2,0.03-0.41,0.03-0.61,0c0.21-0.13,0.49-0.13,0.7,0
			L370.01,168.51z M345.04,173.56l-1.21-1.62l-1.3,0.43L345.04,173.56z M330.1,173.16c0.31,1.02-1.21,1.35-1.62,0.89
			c0.36,1.35,1.34,0.96,2.2,0.96c0.17,0.11,0.38,0.14,0.57,0.08c-0.18-0.07-0.37-0.09-0.57-0.08c-0.37-0.26-0.3-0.96-0.38-1.48
			l0.33-0.48l-1.2-0.15L330.1,173.16z M304.67,176.42c-0.72,1.23-0.89,0.86-1.58,0.6c0.19-0.56,0.94-0.85,1.63-0.6L304.67,176.42z
			 M337.44,170.49c-1.4,0.96,1.15,1.92,0.27,2.79l0.78-0.31c-1.02,1.71-1.23-1.35-2.07-0.77l0.56-0.39c0.22-1.4-1.12-0.7-1.44-1.71
			c0.68-0.68,2.52,0,1.97,0.37L337.44,170.49z M303.07,175.81c-1.28,1.6-1.51-1.18-2.47-1.25c1.06-1.42,1.32,1.09,2.53,1.25
			L303.07,175.81z M327.01,168.43v-0.27l-1.38-0.53v0.28L327.01,168.43z"/>
		<path id="Path_539" class="st0" d="M303.69,189.85c-0.23,0.19-0.54,0.26-0.84,0.19C303.12,189.91,303.4,189.85,303.69,189.85z"/>
		<path id="Path_540" class="st0" d="M375.82,176.95c-0.06-0.26,0.01-0.53,0.19-0.73C376.03,176.47,375.96,176.73,375.82,176.95z"/>
		<path id="Path_541" class="st0" d="M378.98,177.12h0.12l0.12,0.11L378.98,177.12z"/>
		<path id="Path_542" class="st0" d="M481.03,147.27c1.08,1.47-0.53,0.43-1.04,0.58C480.5,147.71,480.38,146.5,481.03,147.27z"/>
		<path id="Path_543" class="st0" d="M476.3,145.63c0.4,0.4,0.95,0.62,1.52,0.62C477.5,146.39,477.09,146.3,476.3,145.63z"/>
		<path id="Path_544" class="st0" d="M479.73,145.45c-0.53,0.48-1.21,0.77-1.92,0.81C478.28,146.03,478.56,145.28,479.73,145.45z"/>
		<path id="Path_545" class="st0" d="M465.7,148.98c0.56,0.45,1.36,0.45,1.92,0c-2.37,1.65,1.04,1.77,1.46,2.47
			C467.39,151.53,467.09,150.25,465.7,148.98z"/>
		<path id="Path_546" class="st0" d="M462.1,149.4c0.26-0.06,0.49-0.2,0.67-0.39C462.65,149.26,462.38,149.42,462.1,149.4z"/>
		<path id="Path_547" class="st0" d="M461.37,150.63c-0.96,0-1.59-1.06-2.24-1.83c0.88-1.11,2.07,0.54,2.96,0.6
			C461.45,149.58,460.79,149.62,461.37,150.63z"/>
		<path id="Path_548" class="st0" d="M434.7,163.37c0.24,0.08,0.75-0.06,0.96,0.58l-1.53,0.41
			C433.39,164.14,434.42,163.58,434.7,163.37z"/>
		<path id="Path_549" class="st0" d="M428.29,161.67c-1.25,0.2-0.2,1.7-0.96,1.48l-0.47-2.2L428.29,161.67z"/>
		<path id="Path_550" class="st0" d="M426.25,150.46l0.41,0.12h-0.43L426.25,150.46z"/>
		<path id="Path_551" class="st0" d="M422.92,165.28l1.44,2.23C423.18,167.14,422.69,165.21,422.92,165.28z"/>
		<path id="Path_552" class="st0" d="M418.65,168.05l0.9,0.58l-2.43-0.18L418.65,168.05z"/>
		<path id="Path_553" class="st0" d="M412.73,168.22l-0.08,0.57l-1.69-0.25L412.73,168.22z"/>
		<path id="Path_554" class="st0" d="M350.72,179.74c-0.66-2.02,1.99-1.66,2.59-2.34C353.37,180.1,351.19,176.93,350.72,179.74z"/>
		<path id="Path_555" class="st0" d="M305.68,188.5h2.46C306.45,189.69,307.62,188.65,305.68,188.5z"/>
	</g>
	<g id="Group_109" transform="translate(79.824 -830.857)">
		<path id="Path_556" class="st0" d="M442.96,204.5c0.12,0.06,0.25,0.1,0.37,0.13C443.05,204.78,442.9,204.78,442.96,204.5z"/>
		<path id="Path_557" class="st0" d="M447.39,204.46c-1.3,0.5-2.72,0.55-4.05,0.16C444.22,204.12,446.42,202.1,447.39,204.46z"/>
		<path id="Path_558" class="st0" d="M441.74,200.57l1.53,0.38C442.65,201.82,442.5,200.63,441.74,200.57z"/>
		<path id="Path_559" class="st0" d="M442.81,202.73l0.16,0.96l-0.96-0.69L442.81,202.73z"/>
		<path id="Path_560" class="st0" d="M376.39,228.1c0.26,0.4,0.42,0.85,0.46,1.33L376.39,228.1z"/>
		<path id="Path_561" class="st0" d="M372.35,224.66c-0.22-0.07-0.46-0.1-0.69-0.11C371.83,224.45,372.02,224.51,372.35,224.66z"/>
		<path id="Path_562" class="st0" d="M379.13,227.09l-0.53,0.25C378.73,227.17,378.93,227.08,379.13,227.09z"/>
		<path id="Path_563" class="st0" d="M412.94,215.71l1.78,1.32C413.88,217.91,413.44,216.46,412.94,215.71z"/>
		<path id="Path_564" class="st0" d="M355.27,214.5v0.76C355.04,214.96,354.9,214.65,355.27,214.5z"/>
		<path id="Path_565" class="st0" d="M368.99,212.7c0.09,0.31,0.13,0.64,0.13,0.96l-0.19-0.14L368.99,212.7z"/>
		<path id="Path_566" class="st0" d="M381.01,225.13v-0.1l0.55,0.36C381.36,225.58,381.18,225.5,381.01,225.13z"/>
		<path id="Path_567" class="st0" d="M350.67,214.4c-0.34-0.47-0.63-0.97-0.87-1.49C350.31,213.24,350.63,213.79,350.67,214.4z"/>
		<path id="Path_568" class="st0" d="M371.59,224.57L371.59,224.57h0.1H371.59z"/>
		<path id="Path_569" class="st0" d="M373.65,212.52l-0.8-0.21C373.11,212.07,373.41,212.23,373.65,212.52z"/>
		<path id="Path_570" class="st0" d="M412.93,215.66l-0.56-0.45C412.57,215.17,412.76,215.37,412.93,215.66z"/>
		<path id="Path_571" class="st0" d="M439.78,207.03c-0.42,0.12-0.65-0.37-0.86-0.86C439.26,206.39,439.56,206.68,439.78,207.03z"/>
		<path id="Path_572" class="st0" d="M282.62,243.45h-0.17C282.5,243.41,282.57,243.41,282.62,243.45z"/>
		<path id="Path_573" class="st0" d="M299.84,242.55c0.13,0.17,0.24,0.35,0.33,0.54C300.05,243.31,299.91,242.98,299.84,242.55z"/>
		<path id="Path_574" class="st0" d="M312.16,222.04c-0.88,1.27-2.41-0.7-3.38-0.64l0.49,0.85l-1.1-0.59l0.25,1.3
			c-1.69-0.33-3.42,1.37-4.36-0.59l0.55,2.05l-1.97-1.35l1.21,1.23c-1.81,0.78-4.96-0.33-5.35-0.25l0.3,0.75
			c-0.23,0.45-0.57,0-0.96-0.21l0.45,1.12c-2.88,0.17-3.23,2.93-6.61,2.25c-0.83,0.43,0.54,0.3,0.67,0.96
			c-0.32,0.96-1.58,0.31-1.92-0.16c0.56,1.78,1.82,0.96,1.05,2.62c-0.87-0.77,0.78,1.59-0.56,1.46l-0.89-2.25
			c-0.63,0.53,0.17,1.85-0.96,1.81c-1.45-0.81,1.12-2.88-0.96-2.88c-0.96,0.33-1.26,5.76-3.48,4.8c-1.54,1.51,1.52,3.48-0.96,3.28
			l1.79,1.27c-0.28,0.73,0.16,1.85-0.96,1.54c-0.48-0.85-1.31-1.92-1.92-1.92c2.54,1.39-1.54,2.99,0.96,4.94h-0.8
			c0.13,0.13,0.19,0.31,0.15,0.49l-1.01,0.34c0.72,0.4,2.28,0.37,1.86,2.2l-1.44,0.68c0.61,1.22,0.15,1.85,0.41,2.88l4.8,1.76
			c-0.3-0.75-1.03-1.15-0.96-1.97c1.08-0.87,1.21,1.24,2.13,0l-0.65-0.96c0.15,0.37,0.33,0.48,0.11,0.65
			c-0.28,0.73-0.58,0-0.69-0.67c0.17-1.37,1.44-0.68,1.92,0.17c1.41-0.41-0.11-2.41,0.15-2.88c1.11,2.07,2.39-0.46,3.46,0.41
			l-0.82-1.33c0.8-1.92,2.02-0.66,2.75-0.27l-0.45-1.12c1.56,0,1.63-4.1,3.52-0.15l-0.3-0.75c0.56-0.48,1.35-1.51,2.17-0.37
			c-0.07-0.5-0.07-1.12,0.16-1.31c0.61,1.55,1.06,0.22,1.92-0.22c-0.68-0.31-0.85-2.41-1.58-2.8c1.04-2.36,1.7,2.08,2.88,1.84
			c0.52-1.19-0.85-1.04-1.15-1.79c2.04,0.81,2.88-5.45,4.8-1.53l-0.55,1.46c0.88,0.77,1.28,0.68,1.12,0.32
			c-0.2,0.17-0.36-0.2-0.51-0.57c1.82-2.54,3.99,2.41,6.07,1.18c-0.31-0.75-0.67-0.96-0.81-1.58c0.87-0.96,1.73,3.84,3.09,1.92
			l-0.5-0.85c0.46-0.63,1.1,0.58,1.08,0.85c-0.6-3.53,3.54-0.48,3.84-5.27c1.17,1.78,3.78,2.88,4.28,1.65
			c0.61-2.29-1.34-2.14-1.33-4.17c0.8-0.17,1.58,1.68,2.63,0.78c0.38,1.92-1.59,4.41,0.85,5.09l0.12-1.1
			c-0.19,0.17-0.44,0.63-0.82,0.44c-0.86-1.03,0.14-1.37,0.18-1.92l2.51,0.14c0.57,2.04-0.96,1.83-0.96,2.38
			c1.82-0.81,3.52-4.28,5.54-3.24l-0.32-0.75c2.58,1.34,0.57-4.04,3-1.07c0.85-0.73-0.77-2.13,0.62-2.57
			c0.4-0.09,0.32,0.75,0.3,1.02c1.92,0.39,0.38-2.11,2.36-0.53l-0.78-2.12c2.22,1.13,5,4.57,6.46,3.3
			c-0.44-1.67-1.43-1.31-2.09-2.52c2.88,2.62,5.47-0.71,7.87,0.51c-0.33,1.57,1.67,3.14,0.58,4.61c-0.79-2.12-1.12-0.55-1.92-0.64
			c2.13,4.53,4.35-3.3,5.55,0.76v-1.76c0.37,0.18,1.45,1.3,0.96,1.92l2.07-1.56c-1.07-1.11-3.37-3.69-3.54-1.77
			c-1.02-1.66,0.7-1.37-0.31-3.31c2.12,2.5,0.7-1.38,2.41-1.1c-0.21,2.58,2.27,2.98,2.44,4.18c0.43-0.56,1.83,0.33,2.44,1.07
			c0.96,0,2.67-2.38,4.32-1.84c-1.05-0.72-1.79-1.8-2.08-3.04c0.9,0.73,1.7,0.54,1.45-1.3c-3.27-2.77,0.06,4.32-2.72,2.68
			c-0.49-1.37-1.65-2.38-3.07-2.67c0.14-1.08,0.1-2.17-0.12-3.24c2.37,4.05,3.84-0.37,6.25,1.38c1.08,1.1,1.05,3.95,2.98,4.03
			l-1.29,1.66c1.47-1.57,0.68,1.2,2.22,1.37l-0.86-1.29c0.82-0.47,1.18-0.29,1.92,0.63l-1.21-2.02c0.41-0.37,1.22-0.85,1.52,0.45
			c0.01-0.46-0.04-0.92-0.13-1.36c0.15,0.35,0.56,0.51,0.91,0.36c0.02-0.01,0.03-0.02,0.05-0.02c-0.37-0.17-0.58,0-0.73-0.63
			c2.22,0.07,0-2.47,1.33-2.54c-0.26-0.53-0.13-1.17,0.33-1.55c0.71,3.44,3.38,3.33,4.49,5.09v-0.06l2.06,0.96
			c-0.42-0.19-0.24-1.22,0.18-1.69h-0.08c0.44-0.65-1.49-3.58,0.4-2.95l1.1,0.82c-0.17-0.09-0.15-0.64-0.12-0.96l1.11,0.73
			c0.67-3.51,3.01,1.22,4.29-0.7c-0.41,0.37-1.18,0.29-1.1-0.83c0.22-0.46,0.79-0.18,1.14,0.26l-0.17-0.37l3.58,1.41
			c-0.52-1.1-2.26-0.79-1.79-2.27c0.11-1.66,1.36-0.21,1.92-0.21c0.13,0.96-0.72,1.92,0.43,2.2c0-0.47,0.81-1.62,0.18-2.17
			c1.55,0.48,3,1.25,4.27,2.27c0.2-0.47-0.36-0.73-0.54-0.83v0.28c-0.75-0.36-0.62-2.3-1.66-1.08c-0.79-2.94,1.61-1.23,2.62-1.92
			l-2.22-1.61c2.02-4.73,7.01-1.25,9.94-1.92c-0.64,1.12-1.56,0.41-0.96,2.7c2.08,0.69,1.73,0.23,3.64,0.28l-0.17-0.09
			c0.65-1.4,2.48,0.58,2.59-1.63c-0.71-1.19-1.05,1.51-1.68-1.07l2.33-0.35c-1.09-1.34-2.33,0.35-3.29,0.18
			c-0.6,0.29,1.34,0.06,1.45,1.82c-2.16,0.41-3.04-1.13-4.65-3.3c-1.06-1.63,0.5-2.04,0.88-2.14c1.98,2.34,4.27,3.12,6.08,1.41
			l0.69-2.24c1.47,1.53,1.86,5.12,3.64,4.23l-0.89-1.26c0.28-0.65,0.51-0.89,0.71-0.96c-1.07-0.86-2.23-1.85-3.23-2.78
			c0.36-3.24,3.43,0.73,5.16,0.96c-0.17-0.37-0.76-0.35-1.1-1.08c2.18-1.26,5.49,1.67,7.43,1.69c0.45-1.5-1.72-0.5-1.82-2.52
			c1.13,0.51,1.8-1.46,2.5,0.27c-1.05-2.45,2.14-0.73-0.27-2.66c3.16-1.92,7.51-0.55,11.35,0c-0.33-0.59-0.5-1.25-0.51-1.92
			c-1.58,0.4-3.24-0.23-4.17-1.58c0.44-1.5,2.26,1.29,2.28,0.47c-0.55-0.53-1.33-0.32-1.66-1.59c0.64-1.69,1.72,0.2,2.49,0.27
			l-0.21,0.74c2.63,1.19,2.33,4.15,4.51,2.88c0.45-1.78-0.34-1.28-0.84-3.2c0.74,0.62,1.98-1.92,3.07,0l-1.37,0.52
			c1.13,0.29,2.07,0,2.88,0.53c-0.17-0.39-0.35-0.81-0.6-0.9c0.96,0.41,1.92,0,2.64,1.17l-0.31-2.12c-0.23,1.04-1.59,1.56-2.13,0.48
			c-0.33-1.83,1.38-1.09,1.92-1.38c-2.88,0.13-3.74-3.05-5.71-1.12l0.55,0.53c-1.05,1.92-3.19-0.27-4.43,0.12
			c0.22-0.52,0.17-1.11-0.13-1.58c-2.38,2.32-5.44,1.81-8.39,3.56l-1.47-1.8l0.33,1.56c-1.39,1.07-0.87-2.09-1.84-1.69
			c0.37-0.11,0.37,0.18,0.54,0.54c-2.24-1.31-0.64,1.68-1.79,1.45c0.88,1.54,2.1,0.11,2.19,2.41c-2.24-1.31-4.8,0.36-5.98-3.3
			c-2.99,2.3-7.68,0.96-10.61,1.33c-0.22,0.74,0.37,0.46,0.35,1.01c-1.63-1.92-3.39,2.38-3.84,0.46c-0.29,0.86-0.41,1.77-0.34,2.68
			c-0.82-0.66-1.83-1.04-2.88-1.07l0.8,0.38v0.28l-1.12-0.53v-0.13c-2.39,0-4.91,1.05-7.44-0.55c1.47,0.96,0.23,2.39,0.96,3.03
			c-1.28-2.15-4.05-2.85-6.2-1.58c-0.01,0.01-0.02,0.01-0.03,0.02c0.04,0.58,0.2,1.14,0.47,1.65l-1.46-0.96l0.33,0.74
			c-1.99,1.04-5.05-1.92-6.13-0.12c0.96,0.18,1.1,0.83,1.41,1.83c-1.62,0.4-3.32,0.4-4.95,0c0.14,0.18,0.24,0.38,0.3,0.61
			c-0.41,0.37-1.13-0.26-1.69-0.53l0.27,1.56c-1.06-0.53-2.06,0.53-3.4-0.49c-0.06,1.81-2.95-1.01-4.03,0
			c-0.56-0.28,1.41,1.55,0.06,1.75c-0.9-3.31-1.75,0.29-2.62-3.3l-0.87,1.58l-0.64-1.75c-0.27,3.59-1.83-1.2-3.07,0.17
			c0.16,0.37,0.34,0.47,0.32,0.74c-0.55-0.27-1.7-0.27-1.05-1.38c-0.78,0.18-3.62-0.1-2.03,1.57c-0.31-1.02,0.96-0.37,1.54-0.1
			c0.26,1.57-1.05,1.21-0.96,2.95c-0.13-0.22-0.29-0.43-0.45-0.62v0.96c-1.83-1.4-3.07,0.15-4.61-1.84c0,0.5-0.15,0.96-0.68,0.96
			l-0.42-1.92l-1.56,0.36l1.31,2.68c-1.6,0.96-3.48-2.05-5-2.25c0.29,3.32-3.01-0.65-3.66,2.47l1.29,0.65
			c-2.49-0.12-2.48,1.92-4.91,1.24c1.65-1.46,1.81-0.82,4-4.01c-2.47,1.92-5.09-0.89-7.23,1.48c0.32,0.74,1.05,1.12,0.59,2.04
			c-0.82-1.58-2.34,0.53-2.36-1.51c-0.64,0.83-0.43,2.67-0.85,3.03l-3.08-1.92l0.16,0.37c-3.59,5.38-8.89-1.44-12.98,1.31l0.27,1.02
			l-1.4-1.33c1.07,0.85-0.13,1.38,0,2.31l-3.28-1.74C310.93,220.53,311.49,222.58,312.16,222.04z M350.01,215.59h0.7
			c0.12-0.13,0.25-0.17,0.45,0h-0.45c-0.34,0.34-0.43,1.2-0.75,0H350.01z M413,205.41c0.54,0.82-0.4,0.38-0.6,0.57h1.15
			c-0.02-0.59-0.41-0.48-0.6-0.57H413z M352.62,228.14l-0.12,1.38l-0.7-0.96L352.62,228.14z M343.02,230.21l1.11,0.56v0.28
			l-1.23-0.53L343.02,230.21z M330.23,221.82c0.09,0.06,0.16,0.14,0.23,0.22C330.37,221.98,330.29,221.9,330.23,221.82
			c-0.96-0.81-0.77,1.58-1.82-0.56c0.29-2.08,1.15-0.15,1.74,0.57L330.23,221.82z M347.12,218.43c0.37,0.18,0.56,0.28,0.77,0.1
			c-0.33-0.74-1.21-1.75-0.79-2.12c0.51,0.84,1.65,0.85,1.92,2.13c-1.32-1.2-1.24,2.58-1.98-0.11H347.12z M369.89,214.58l-0.2,0.18
			l1.1,0.83L369.89,214.58z M374.28,215.02c0.85,1.56,2.04,0.96,2.99,1.16c-0.1-1.48-1.34-2.93-2.32-2.56
			c-1.56-1.05-0.05,2.27-0.75,1.35L374.28,215.02z M340.24,222.48l0.48,1.11l-0.2,0.17l1.1,0.56c-0.96,1.84-2.42-0.96-3.16-1.32
			c0.49-0.03,2.58,2.49,1.7-0.57L340.24,222.48z M383.2,213.89c1.1,0.83,2.95,1.7,3.07,2.88c-0.44-2.22-1.92-2.88-2.32-2.82
			c-0.28,0.16-0.47,0.08-0.84-0.1L383.2,213.89z M384.07,218.03c-1.5-0.72-1.82-1.73-3.24-3.56c1.05-1.21,2.02,1.55,2.13,2.74
			c1.1,0.83,0.61-0.56,1.02-0.96L384.07,218.03z M381.38,212.16l-0.46,0.41c-0.4,1.05,0,3.57-1.38,1.27l1.38-1.27
			c0.02-0.31,0.16-0.45,0.4-0.45L381.38,212.16z M392.04,209.87l-0.69-0.63C391.87,209.23,392.01,209.51,392.04,209.87l0.58,0.54
			c-1.01,1.01-0.61,0.12-0.65-0.59L392.04,209.87z M384.06,212.32l-1.56,0.12c0.25,0.96,1.08,0.21,1.49-0.16L384.06,212.32z
			 M392.15,211.89c-0.6,0.29-2.17,0.96-1.97,0.77c-0.21-1.23,1.35-1.35,1.89-0.81L392.15,211.89z M425.82,207.03l-0.96,0.12
			l0.07-1.65L425.82,207.03z M415.07,210.88v-0.84h0.58L415.07,210.88z M404.9,213.43c-0.04-0.38-0.15-0.75-0.32-1.1
			c-0.23-0.13-0.42-0.33-0.52-0.58c0.14,0,0.34,0.22,0.52,0.58c0.46,0.19,0.98-0.03,1.17-0.49c0.02-0.04,0.03-0.09,0.04-0.14
			c-0.35-0.72-0.96-0.43-1.31-0.87c0.51-2.04,3.9,2.88,2.05-2.19c0.54,0.55,2.23,1.59,1.97,2.61
			C407.03,211.39,405.69,212.19,404.9,213.43c-0.01,0.3-0.01,0.53-0.19,0.61c0-0.21,0.04-0.42,0.12-0.61H404.9z M391.39,217.76
			c-0.28,0-0.54-0.11-0.73-0.32c-0.5-0.38-0.82-0.96-0.87-1.58c0.96,0.45,0.57,1.17,0.87,1.58c0.19,0.16,0.42,0.27,0.66,0.32
			L391.39,217.76z M389.04,218.64l1.49,0.7l-0.89-0.96l2.4,1.71c-0.93,1.28-2.57-0.08-3.03-1.44L389.04,218.64z M388.82,219.75
			l-0.54-1.2l0.69,1.19L388.82,219.75l0.13,0.26l-2.3-0.23L388.82,219.75z M366.45,222.03c0.13,4.53,2.56,2.68,3.42,4.69
			c-0.22-1.48,0.1-3.92-1.98-3.41c1.5-1.86,1.74,2.57,2.03-1.31c-0.81,0.47-2.08-0.45-2.27-0.53l0.96-0.37
			c-1.2-2.57-1.33,1.67-2.23,0.94L366.45,222.03z M355.61,225l-1.36,0.18l1.34,0.1L355.61,225z M322.66,232.78
			c0.29,1.02-1.1,3.21-1.92,1.34c0.8-0.43,1.77-0.5,1.85-1.32L322.66,232.78z M308.25,235.1l1.67,0.61c0.13,2.4-1.37,0.14-2.01,0.68
			c-0.48-1.07,0.22-0.43,0.31-1.27L308.25,235.1z M298.39,236.84l-0.55-0.3l0.96,2.24L298.39,236.84z M299.59,239.83
			c-0.12,1.1,0.96,1.42,1.22,1.23L299.59,239.83z M291.02,243.41l0.61-0.25l-0.96-1.97L291.02,243.41z M291.62,240.82
			c0.4,1.47,0.67,3.49,1.97,2.23c-0.21-1.58-0.61-1.5-0.37-3.43c-0.55-0.3-0.84,0.43-1.05,0.61c0.37,0.19,0.64-0.53,0.9,0.5
			c-0.18,0.42-0.67,0.61-1.09,0.42C291.83,241.07,291.7,240.96,291.62,240.82c-0.09-0.43-0.27-0.84-0.55-1.18
			c0.07,0.44,0.25,0.85,0.52,1.2L291.62,240.82z M296.62,238.26c0.17-0.21,0.28-0.47,0.32-0.74l0.16,0.38
			C297.01,238.62,296.82,238.48,296.62,238.26c-0.19,0.24-0.39,0.46-0.61,0.67c0.07,1.35,1.22,2.07,1.61,2.77
			c-0.54-0.3-1.18-1.52-1.67-0.61c0.15,0.37,0.12,0.65,0.52,0.57l-0.83,0.44c-1.31-1.67-0.46-2.4,0.37-3.17
			c-0.02-0.33,0.02-0.65,0.12-0.96c0.09-0.22,0.29,0.1,0.47,0.31L296.62,238.26z M289.13,236.5l0.53,0.31
			c0.34,0.47,0.27,1.02,0.42,1.39c-0.65-0.04-1.14-0.6-1.09-1.24c0.01-0.15,0.05-0.3,0.12-0.44L289.13,236.5z M317.58,231
			c-0.24,0.46,0.78,1.87,1.41,1.33v2.03c-0.26-1.3-1.65-0.86-1.83-0.96c-0.63-1.75,0.07-1.09,0.39-2.37L317.58,231z M350.59,224.52
			c0.76,2.4,2.26,0.56,2.8,1.12c-0.88,0.74-2.87,1.76-2.8-1.11L350.59,224.52z M353.48,222.88c0.51-0.07,0.59-0.33,0.8,0.96
			c0.35,0.47,0.6-0.28,0.96,0.18c-0.74,1.28-1.09-0.69-1.75-1.1c-0.16,0.03-0.32,0.03-0.48,0c0.14-0.1,0.32-0.1,0.46-0.02
			L353.48,222.88z M334.18,226.6l-1.01-1.67l-0.96,0.36L334.18,226.6z M322.53,225.49c0.16,0.38-0.03,0.82-0.41,0.98
			c-0.28,0.11-0.61,0.05-0.82-0.17c0.33,1.35,1.09,1.03,1.75,1.05c0.12,0.12,0.29,0.16,0.45,0.11c-0.14-0.07-0.3-0.1-0.45-0.11
			c-0.3-0.27-0.27-0.96-0.36-1.48l0.23-0.46l-0.96-0.2L322.53,225.49z M302.85,227.57c-0.52,1.19-0.66,0.82-1.21,0.52
			c0.06-0.42,0.45-0.71,0.87-0.65c0.13,0.02,0.26,0.07,0.36,0.15L302.85,227.57z M328.14,223.19c-1.06,0.89,0.96,1.92,0.32,2.77
			l0.59-0.26c-0.73,1.64-1.01-1.41-1.64-0.86l0.42-0.37c0.13-1.37-0.89-0.75-1.18-1.77c0.47-0.62,1.93,0.13,1.51,0.51L328.14,223.19
			z M301.58,226.89c-0.96,1.55-1.21-1.23-1.92-1.35c0.69-1.34,0.97,1.14,1.93,1.37L301.58,226.89z M319.93,220.64v-0.27l-1.1-0.59
			v0.28L319.93,220.64z"/>
		<path id="Path_575" class="st0" d="M302.55,240.87c-0.16,0.18-0.41,0.24-0.63,0.15C302.11,240.91,302.33,240.85,302.55,240.87z"/>
		<path id="Path_576" class="st0" d="M358.29,231.56c-0.06-0.25-0.01-0.5,0.13-0.71C358.46,231.09,358.41,231.34,358.29,231.56z"/>
		<path id="Path_577" class="st0" d="M360.78,231.92h0.1l0.11,0.11L360.78,231.92z"/>
		<path id="Path_578" class="st0" d="M439.54,208.9c0.96,1.53-0.4,0.39-0.79,0.5C439.13,209.29,438.99,208.09,439.54,208.9z"/>
		<path id="Path_579" class="st0" d="M435.75,206.95c0.29,0.39,0.73,0.65,1.21,0.72C436.72,207.78,436.4,207.68,435.75,206.95z"/>
		<path id="Path_580" class="st0" d="M438.48,207c-0.38,0.43-0.92,0.67-1.49,0.65C437.35,207.48,437.52,206.76,438.48,207z"/>
		<path id="Path_581" class="st0" d="M427.57,209.5c0.28,0.45,0.87,0.59,1.32,0.31c0.08-0.05,0.15-0.11,0.21-0.18
			c-1.79,1.46,0.88,1.82,1.25,2.54C429,212.11,428.67,210.84,427.57,209.5z"/>
		<path id="Path_582" class="st0" d="M424.74,209.66c0.21-0.04,0.4-0.16,0.52-0.34C425.13,209.63,424.95,209.68,424.74,209.66z"/>
		<path id="Path_583" class="st0" d="M424.24,210.83c-0.77-0.07-1.3-1.16-1.84-1.92c0.64-1.04,1.64,0.66,2.34,0.79
			C424.26,209.8,423.74,209.79,424.24,210.83z"/>
		<path id="Path_584" class="st0" d="M403.88,221.63c0.18,0.09,0.58,0,0.74,0.62l-1.18,0.31
			C402.84,222.27,403.64,221.82,403.88,221.63z"/>
		<path id="Path_585" class="st0" d="M398.75,219.54c-0.96,0.12-0.1,1.67-0.66,1.4l-0.45-2.21L398.75,219.54z"/>
		<path id="Path_586" class="st0" d="M396.69,208.33l0.33,0.15h-0.34L396.69,208.33z"/>
		<path id="Path_587" class="st0" d="M394.7,222.78l1.21,2.28C395.17,224.53,394.72,223.68,394.7,222.78z"/>
		<path id="Path_588" class="st0" d="M391.45,225.23l0.73,0.62l-1.92-0.33L391.45,225.23z"/>
		<path id="Path_589" class="st0" d="M386.82,225.05v0.55l-1.34-0.35L386.82,225.05z"/>
		<path id="Path_590" class="st0" d="M338.82,233.03c-0.59-2.04,1.5-1.55,1.92-2.2C340.89,233.54,339.07,230.26,338.82,233.03z"/>
		<path id="Path_591" class="st0" d="M304.05,239.63l1.92,0.14C304.69,240.84,305.58,239.85,304.05,239.63z"/>
	</g>
	<g id="Group_110" transform="translate(80.989 -825.967)">
		<path id="Path_592" class="st0" d="M446.68,246.51c0.11,0.05,0.23,0.09,0.36,0.12C446.79,246.79,446.61,246.81,446.68,246.51z"/>
		<path id="Path_593" class="st0" d="M450.89,246.36c-1.21,0.53-2.57,0.63-3.84,0.28C447.85,246.11,449.84,244.04,450.89,246.36z"/>
		<path id="Path_594" class="st0" d="M445.31,242.65l1.47,0.34C446.24,243.86,446.03,242.69,445.31,242.65z"/>
		<path id="Path_595" class="st0" d="M446.45,244.78l0.2,0.9l-0.96-0.66L446.45,244.78z"/>
		<path id="Path_596" class="st0" d="M382.91,270c0.2,0.43,0.29,0.91,0.27,1.38L382.91,270z"/>
		<path id="Path_597" class="st0" d="M379.54,266.03c-0.21-0.09-0.42-0.16-0.64-0.2C379.08,265.75,379.25,265.83,379.54,266.03z"/>
		<path id="Path_598" class="st0" d="M385.66,269.39l-0.54,0.17C385.26,269.41,385.47,269.35,385.66,269.39z"/>
		<path id="Path_599" class="st0" d="M418.86,258.73l1.78,1.23C419.91,260.93,419.38,259.5,418.86,258.73z"/>
		<path id="Path_600" class="st0" d="M364.04,254.01v0.76C363.81,254.45,363.69,254.14,364.04,254.01z"/>
		<path id="Path_601" class="st0" d="M377.88,253.73c0.04,0.32,0.04,0.64,0,0.96l-0.17-0.17L377.88,253.73z"/>
		<path id="Path_602" class="st0" d="M387.74,267.68v-0.09l0.49,0.42C388,268.18,387.83,268.06,387.74,267.68z"/>
		<path id="Path_603" class="st0" d="M359.38,253.69c-0.33-0.48-0.6-0.99-0.83-1.52C359.06,252.51,359.37,253.08,359.38,253.69z"/>
		<path id="Path_604" class="st0" d="M378.83,265.84L378.83,265.84h0.09H378.83z"/>
		<path id="Path_605" class="st0" d="M382.27,254.21l-0.71-0.33C381.83,253.68,382.09,253.88,382.27,254.21z"/>
		<path id="Path_606" class="st0" d="M418.85,258.74l-0.57-0.42C418.48,258.27,418.67,258.49,418.85,258.74z"/>
		<path id="Path_607" class="st0" d="M443.84,249.16c-0.39,0.14-0.64-0.34-0.87-0.84C443.31,248.54,443.61,248.83,443.84,249.16z"/>
		<path id="Path_608" class="st0" d="M293.41,280.56h-0.17C293.28,280.52,293.36,280.52,293.41,280.56z"/>
		<path id="Path_609" class="st0" d="M310.63,282.09c0.11,0.18,0.21,0.37,0.29,0.57C310.79,282.87,310.68,282.54,310.63,282.09z"/>
		<path id="Path_610" class="st0" d="M322.36,261.95c-0.78,1.26-2.23-0.71-3.09-0.65l0.47,0.84l-0.96-0.58l0.25,1.29
			c-1.53-0.35-3.05,1.29-3.91-0.69l0.51,2.07l-1.75-1.41l1.07,1.27c-1.61,0.7-4.36-0.59-4.71-0.52l0.24,0.76
			c-0.22,0.45-0.5,0-0.81-0.28l0.36,1.15c-2.51-0.1-2.99,2.73-5.88,1.61c-0.75,0.33,0.44,0.36,0.5,1.02
			c-0.37,0.96-1.41,0.12-1.64-0.39c0.3,1.83,1.5,1.21,0.64,2.73c-0.7-0.87,0.54,1.68-0.64,1.38l-0.55-2.33
			c-0.62,0.44-0.07,1.92-1.1,1.65c-1.17-1.03,1.32-2.69-0.51-3.03c-0.86,0.15-1.92,5.51-3.77,4.2c-1.65,1.15,0.75,3.73-1.51,3.01
			l1.42,1.62c-0.4,0.64-0.19,1.84-1.21,1.29c-0.29-0.96-0.85-2.14-1.37-2.28c2.09,1.92-2.11,2.58-0.17,5l-0.8-0.12
			c0.08,0.16,0.08,0.34,0,0.5l-1.08,0.12c0.61,0.54,2.19,0.85,1.34,2.55l-1.62,0.36c0.33,1.33-0.31,1.84-0.3,2.88l4.8,2.78
			c-0.17-0.8-0.86-1.35-0.58-2.13c1.32-0.62,1.04,1.49,2.27,0.39l-0.52-1.04c0.1,0.39,0.26,0.53,0,0.65
			c-0.43,0.68-0.6-0.12-0.59-0.78c0.45-1.33,1.61-0.44,1.98,0.49c1.56-0.18,0.31-2.4,0.65-2.8c0.81,2.21,2.55,0,3.5,0.9l-0.65-1.4
			c1.07-1.82,2.12-0.43,2.83,0l-0.38-1.1c1.59,0.14,2.02-3.84,3.55,0.18l-0.23-0.77c0.6-0.44,1.46-1.41,2.2-0.22
			c0-0.5,0-1.12,0.23-1.29c0.52,1.58,1.05,0.32,1.92-0.12c-0.65-0.35-0.72-2.44-1.41-2.88c1.11-2.3,1.55,2.16,2.74,1.92
			c0.55-1.16-0.8-1.07-1.06-1.83c1.98,0.87,2.88-5.29,4.68-1.35l-0.54,1.46c0.85,0.78,1.23,0.69,1.09,0.32
			c-0.2,0.17-0.35-0.19-0.49-0.57c1.75-2.52,3.84,2.49,5.91,1.2c-0.32-0.74-0.67-0.96-0.82-1.58c0.83-0.96,1.76,3.84,3.05,1.92
			l-0.5-0.84c0.42-0.64,1.09,0.57,1.07,0.85c-0.69-3.5,3.41-0.56,3.5-5.34c1.2,1.75,3.74,2.72,4.17,1.52
			c0.48-2.31-1.38-2.09-1.48-4.12c0.75-0.18,1.59,1.63,2.55,0.7c0.49,1.92-1.3,4.44,1.09,5.05v-1.11c-0.18,0.18-0.39,0.65-0.76,0.48
			c-0.88-1.01,0.06-1.38,0.08-1.92h2.39c0.65,2.02-0.82,1.85-0.84,2.41c1.69-0.85,3.12-4.38,5.08-3.4l-0.34-0.74
			c2.52,1.25,0.34-4.04,2.8-1.15c0.75-0.74-0.85-2.1,0.46-2.58c0.37-0.1,0.34,0.74,0.33,1.01c1.82,0.36,0.27-2.12,2.23-0.58
			l-0.83-2.1c2.16,1.07,4.88,4.5,6.22,3.22c-0.45-1.66-1.37-1.3-2.04-2.5c2.76,2.57,5.14-0.67,7.42,0.57
			c-0.3,1.55,1.54,3.19,0.54,4.62c-0.74-2.13-1.04-0.58-1.74-0.69c1.97,4.54,3.98-3.14,5.04,0.96v-1.75
			c0.34,0.2,1.27,1.36,0.86,1.98l1.92-1.41c-0.9-1.21-2.96-3.91-3.15-1.97c-0.96-1.7,0.67-1.35-0.21-3.32
			c1.92,2.57,0.69-1.36,2.3-0.96c-0.3,2.57,1.92,3.14,2.06,4.34c0.41-0.52,1.62,0.47,2.13,1.25c0.85,0.13,2.56-2.09,4.02-1.36
			c-0.9-0.87-1.47-2.02-1.62-3.26c0.78,0.83,1.52,0.74,1.47-1.12c-2.78-3.11-0.36,4.3-2.75,2.35c-0.77-2.01-1.44-2.48-2.65-2.88
			c0.21-1.07,0.24-2.17,0.11-3.25c1.92,4.25,3.73,0,5.76,2.03c0.88,1.23,0.57,4.05,2.33,4.38l-1.36,1.49
			c1.52-1.36,0.5,1.27,1.87,1.64l-0.64-1.39c0.79-0.35,1.12-0.12,1.66,0.88l-0.87-2.17c0.42-0.31,1.22-0.65,1.34,0.65
			c0.07-0.45,0.09-0.91,0.06-1.36c0.07,0.35,0.41,0.57,0.76,0.5c0.04-0.01,0.07-0.02,0.11-0.03c-0.34-0.23-0.54-0.07-0.6-0.73
			c2.05,0.37,0.28-2.45,1.55-2.32c-0.18-0.55,0.03-1.15,0.51-1.48c0.23,3.51,2.76,3.78,3.58,5.67v-0.06l1.84,1.27
			c-0.37-0.26-0.09-1.24,0.39-1.65h-0.08c0.5-0.59-0.96-3.74,0.75-2.88l0.96,0.96c-0.17-0.12-0.07-0.66,0-0.96l0.96,0.85
			c1.03-3.39,2.79,1.58,4.26-0.21c-0.44,0.33-1.19,0.17-0.96-0.96c0.26-0.44,0.79-0.12,1.1,0.37l-0.13-0.37l3.42,1.72
			c-0.44-1.13-2.2-0.96-1.59-2.41c0.23-1.64,1.35-0.11,1.92-0.07c0.08,0.96-0.85,1.92,0.29,2.23c0.06-0.46,0.9-1.58,0.33-2.16
			c1.24,0.81,2.88,0.96,4.07,2.34c0.22-0.47-0.31-0.73-0.49-0.82v0.28c-0.72-0.35-0.53-2.32-1.58-1.06
			c-0.63-2.96,1.59-1.28,2.58-1.97l-2.07-1.59c1.99-4.8,6.63-1.38,9.48-2.07c-0.59,1.13-1.5,0.44-0.85,2.72
			c2.03,0.65,1.68,0.2,3.56,0.21l-0.22-0.02c0.61-1.42,2.45,0.53,2.5-1.69c-0.73-1.16-0.96,1.53-1.67-1.03l2.25-0.38
			c-1.1-1.33-2.24,0.38-3.18,0.24c-0.57,0.3,1.3,0,1.46,1.78c-2.09,0.47-2.98-1.06-4.57-3.22c-1.03-1.62,0.44-2.05,0.81-2.16
			c1.92,2.32,4.19,3.05,5.87,1.32l0.54-2.22c1.5,1.49,2.09,5.03,3.84,4.12l-0.96-1.23c0.23-0.65,0.44-0.89,0.62-0.96
			c-1.09-0.83-2.28-1.79-3.28-2.69c0.13-3.18,3.32,0.67,4.99,0.79c-0.18-0.35-0.74-0.3-1.12-1.01c1.98-1.36,5.34,1.41,7.19,1.35
			c0.32-1.5-1.67-0.41-1.92-2.43c1.12,0.47,1.61-1.52,2.39,0.17c-1.16-2.39,1.99-0.82-0.43-2.64c2.88-2.07,7.11-0.85,10.8-0.41
			c-0.35-0.59-0.55-1.24-0.6-1.92c-1.52,0.43-3.15-0.14-4.06-1.42c0.33-1.52,2.24,1.2,2.21,0.37c-0.56-0.5-1.28-0.27-1.68-1.53
			c0.51-1.71,1.64,0.14,2.38,0.17l-0.16,0.75c2.58,1.09,2.48,4.04,4.46,2.68c0.33-1.78-0.39-1.26-0.96-3.15
			c0.75,0.59,1.78-1.99,2.93-0.14l-1.28,0.56c1.1,0.25,1.97,0,2.81,0.44c-0.19-0.39-0.37-0.79-0.61-0.88
			c0.96,0.38,1.83-0.07,2.58,1.09l-0.41-2.09c-0.17,1.03-1.43,1.59-2,0.53c-0.41-1.83,1.25-1.12,1.8-1.44
			c-2.75,0.22-3.74-2.88-5.51-0.96l0.56,0.51c-0.88,1.92-3.05-0.16-4.23,0.27c0.18-0.53,0.1-1.1-0.2-1.57
			c-2.14,2.38-5.09,1.97-7.78,3.84l-1.52-1.73l0.41,1.55c-1.25,1.12-0.96-2.05-1.87-1.6c0.36-0.12,0.37,0.16,0.56,0.52
			c-2.23-1.2-0.52,1.7-1.6,1.52c0.96,1.5,2.01,0,2.24,2.31c-2.22-1.2-4.56,0.56-5.93-3.03c-2.74,2.51-7.24,1.22-9.83,1.54
			c-0.17,0.74,0.36,0.45,0.37,0.96c-1.58-1.92-3.01,2.39-3.52,0.48c-0.24,0.87-0.32,1.78-0.22,2.68c-0.74-0.64-1.67-1.01-2.65-1.05
			l0.72,0.37v0.28l-1.04-0.53v-0.13c-2.18,0-4.47,1.1-6.72-0.51c1.3,0.96,0.17,2.42,0.83,3.05c-0.95-2.03-3.36-2.91-5.39-1.96
			c-0.03,0.01-0.05,0.02-0.08,0.04c0,0.58,0.11,1.15,0.32,1.68l-1.23-1.14l0.24,0.77c-1.87,0.84-4.33-2.44-5.49-0.85
			c0.84,0.3,0.9,0.96,1.09,2c-1.55,0.18-3.12-0.05-4.54-0.67c0.11,0.2,0.18,0.41,0.2,0.63c-0.42,0.31-1.02-0.42-1.51-0.77l0.06,1.58
			c-0.96-0.66-2,0.24-3.14-0.96c-0.28,1.77-2.69-1.41-3.84-0.57c-0.51-0.35,1.18,1.72-0.16,1.74c-0.48-3.4-1.74,0.07-2.18-3.61
			l-1.07,1.46l-0.44-1.82c-0.67,3.55-1.71-1.38-3.16-0.12c0.13,0.38,0.31,0.5,0.26,0.77c-0.54-0.33-1.74-0.42-0.96-1.47
			c-0.84,0.11-3.77-0.32-2.24,1.43c-0.23-1.04,1.05-0.31,1.59,0c0.13,1.58-1.18,1.13-1.24,2.88c-0.12-0.23-0.26-0.45-0.42-0.65v0.96
			c-1.77-1.52-3.13,0-4.59-2.07c0,0.5-0.17,0.9-0.72,0.88l-0.36-1.92l-1.61,0.32l1.26,2.71c-1.64,0.86-3.46-2.1-5-2.3
			c0.3,3.31-3.05-0.67-3.64,2.49l1.28,0.63c-2.46-0.08-2.4,1.92-4.8,1.33c1.57-1.05,2.88-2.45,3.84-4.08
			c-2.42,1.92-5.11-0.8-7.11,1.64c0.35,0.73,1.07,1.09,0.65,2.02c-0.86-1.55-2.27,0.59-2.36-1.44c-0.59,0.84-0.29,2.67-0.68,3.05
			l-3.05-1.78l0.17,0.37c-3.15,5.48-8.52-1.14-12.12,1.64l0.31,1.02l-1.34-1.3c1.01,0.85-0.07,1.37,0.07,2.29l-3.05-1.72
			C321.24,260.45,321.8,262.49,322.36,261.95z M358.62,254.86h0.71c0.12-0.13,0.26-0.17,0.45,0h-0.45
			C359.03,255.21,358.91,256.07,358.62,254.86z M418.18,248.53c0.58,0.8-0.36,0.4-0.52,0.6l1.1-0.09c-0.06-0.55-0.42-0.42-0.61-0.51
			H418.18z M360.89,267.48l-0.13,1.37l-0.63-0.96L360.89,267.48z M351.84,269.41l1.07,0.55v0.28l-1.06-0.55L351.84,269.41z
			 M339.29,261.31c0.08,0.06,0.16,0.13,0.23,0.21C339.44,261.46,339.36,261.39,339.29,261.31c-0.96-0.77-0.65,1.61-1.76-0.49
			c0.21-2.1,1.13-0.22,1.72,0.47L339.29,261.31z M355.63,257.66c0.37,0.18,0.54,0.28,0.75,0.11c-0.31-0.75-1.17-1.77-0.75-2.13
			c0.5,0.83,1.65,0.86,1.92,2.17c-1.24-1.27-1.21,2.52-1.91-0.16L355.63,257.66z M378.42,255.69l-0.22,0.16l0.96,0.96L378.42,255.69
			z M382.48,256.72c0.61,1.66,1.79,1.26,2.64,1.57c0.09-1.48-0.89-3.09-1.85-2.88c-1.23-1.18-0.24,2.3-0.78,1.3L382.48,256.72z
			 M348.93,261.68l0.49,1.1l-0.18,0.19l1.08,0.54c-0.85,1.85-2.35-0.96-3.09-1.27c0.58-0.04,2.66,2.41,1.72-0.6L348.93,261.68z
			 M390.81,256.75c0.96,0.96,2.58,1.99,2.62,3.19c-0.27-2.23-1.58-3.09-1.92-3.04c-0.21,0.14-0.37,0.07-0.69-0.18L390.81,256.75z
			 M391.29,260.96c-1.34-0.87-1.55-1.92-2.68-3.9c1.07-1.08,1.72,1.76,1.72,2.96c0.96,0.96,0.62-0.5,1.03-0.83L391.29,260.96z
			 M389.31,254.83l-0.44,0.37c-0.47,0.96-0.33,3.53-1.39,1.09l1.39-1.09c0.11-0.26,0.25-0.41,0.44-0.39L389.31,254.83z
			 M398.92,253.2l-0.61-0.63C398.79,252.57,398.9,252.83,398.92,253.2l0.52,0.53c-0.84,1.05-0.46,0.14-0.49-0.6L398.92,253.2z
			 M391.7,255.27l-1.4-0.06c0.24,1.02,1.08,0.37,1.43,0.03L391.7,255.27z M399.01,255.27c-0.54,0.3-2,0.96-1.82,0.81
			c-0.12-0.57,0.24-1.13,0.81-1.25c0.39-0.08,0.8,0.06,1.05,0.38L399.01,255.27z M430.42,249.64l-0.96,0.17v-1.66L430.42,249.64z
			 M420.45,253.95v-0.84h0.54L420.45,253.95z M410.93,256.72c-0.06-0.38-0.18-0.75-0.36-1.1c-0.23-0.12-0.41-0.32-0.51-0.56
			c0.13,0,0.33,0.21,0.51,0.56c0.41,0.18,0.88-0.01,1.06-0.41c0.03-0.07,0.05-0.14,0.06-0.21c-0.36-0.72-0.9-0.42-1.27-0.86
			c0.37-2.03,3.84,2.88,1.81-2.18c0.54,0.53,2.19,1.57,2.02,2.58C412.85,254.67,411.61,255.49,410.93,256.72
			c0.01,0.3,0.01,0.54-0.15,0.62c0-0.24,0.06-0.47,0.17-0.68L410.93,256.72z M398.21,261.26c-0.26,0.01-0.51-0.1-0.67-0.31
			c-0.48-0.4-0.76-0.98-0.78-1.59c0.87,0.45,0.51,1.18,0.78,1.59c0.2,0.16,0.44,0.24,0.69,0.24L398.21,261.26z M395.94,262.08
			l1.4,0.81l-0.83-1.06l2.23,1.76c-0.83,1.31-2.4-0.17-2.79-1.58L395.94,262.08z M395.67,263.18l-0.46-1.23l0.6,1.23h-0.12
			l0.12,0.28l-2.21-0.42L395.67,263.18z M374.23,262.68c-0.39,4.51,2.08,3,2.65,5.11c0-1.5,0.57-3.84-1.44-3.65
			c1.61-1.63,1.31,2.79,2.06-1.01c-0.82,0.35-1.92-0.73-2.07-0.84l0.96-0.24c-0.74-2.78-1.34,1.4-2.13,0.56L374.23,262.68z
			 M363.71,264.6l-1.31,0.1l1.28,0.17L363.71,264.6z M332.62,272.57c0.33,0.96-0.88,3.24-1.72,1.39c0.79-0.57,1.72-0.65,1.75-1.48
			L332.62,272.57z M319,275.08l1.6,0.62c0.14,2.4-1.33,0.13-1.92,0.65c-0.42-1.21,0.25-0.54,0.35-1.35L319,275.08z M309.52,276.4
			l-0.51-0.34l0.73,2.31L309.52,276.4z M310.48,279.47c-0.18,1.09,0.9,1.49,1.14,1.32L310.48,279.47z M301.66,282.17l0.64-0.15
			l-0.64-2.09V282.17z M302.62,279.67c0.19,1.51,0.22,3.54,1.67,2.45c-0.23-1.14-0.23-2.31,0-3.45c-0.5-0.37-0.85,0.34-1.08,0.49
			c0.34,0.23,0.68-0.46,0.83,0.59c-0.22,0.39-0.71,0.52-1.1,0.3c-0.15-0.09-0.27-0.22-0.34-0.38c-0.02-0.43-0.15-0.85-0.37-1.23
			c0.04,0.41,0.19,0.8,0.42,1.14L302.62,279.67z M307.73,277.69c0.18-0.2,0.31-0.45,0.37-0.71l0.12,0.39
			C308.08,278.07,307.9,277.93,307.73,277.69c-0.2,0.23-0.41,0.44-0.64,0.63c-0.06,1.35,1.01,2.16,1.34,2.88
			c-0.52-0.35-1.03-1.58-1.59-0.75c0.12,0.39,0.06,0.67,0.45,0.62l-0.86,0.35c-1.13-1.81-0.2-2.42,0.65-3.09
			c0-0.33,0.06-0.65,0.18-0.96c0.17-0.3,0.33,0.02,0.53,0.24L307.73,277.69z M300.82,275.06l0.46,0.38c0.14,0.47,0.2,0.96,0.2,1.45
			c-0.64-0.17-1.02-0.82-0.86-1.47c0.04-0.17,0.12-0.32,0.23-0.46L300.82,275.06z M327.72,270.92c-0.21,0.47,0.82,1.85,1.39,1.3
			l0.08,2.02c-0.31-1.28-1.61-0.83-1.8-0.96c-0.57-1.8,0.12-1.14,0.39-2.45L327.72,270.92z M358.94,263.9
			c0.69,2.43,2.15,0.64,2.63,1.22c-0.73,0.61-2.65,1.55-2.56-1.31L358.94,263.9z M361.82,262.36c0.49,0,0.59-0.29,0.73,0.96
			c0.32,0.49,0.59-0.23,0.9,0.25C362.7,264.8,362.45,262.8,361.82,262.36c-0.15,0.04-0.31,0.04-0.46,0.01
			c0.12-0.15,0.33-0.2,0.5-0.1L361.82,262.36z M343.33,266.02l-1.04-1.63l-0.96,0.38L343.33,266.02z M332.2,265.28
			c0.32,1.01-0.78,1.3-1.13,0.84c0.38,1.35,1.09,0.96,1.71,1.01c0.12,0.1,0.28,0.14,0.43,0.09c-0.13-0.07-0.28-0.1-0.43-0.09
			c-0.3-0.27-0.31-0.96-0.41-1.48l0.19-0.46l-0.89-0.17L332.2,265.28z M314.02,267.41c-0.48,1.15-0.61,0.78-1.1,0.46
			c-0.03-0.37,0.25-0.69,0.62-0.72c0.19-0.01,0.38,0.05,0.51,0.18L314.02,267.41z M337.39,262.82c-0.96,0.96,1.02,1.92,0.45,2.75
			l0.55-0.28c-0.61,1.66-1.04-1.36-1.6-0.81l0.38-0.37c0-1.37-0.89-0.72-1.22-1.73c0.42-0.73,1.85-0.01,1.48,0.36L337.39,262.82z
			 M312.89,266.66c-0.87,1.5-1.07-1.29-1.73-1.45c0.71-1.39,0.91,1.12,1.77,1.37L312.89,266.66z M329.5,260.52v-0.27l-1.06-0.55
			v0.28L329.5,260.52z"/>
		<path id="Path_611" class="st0" d="M313.42,280.57c-0.16,0.17-0.42,0.22-0.63,0.12C312.98,280.59,313.2,280.54,313.42,280.57z"/>
		<path id="Path_612" class="st0" d="M365.99,271.23c-0.04-0.24,0.02-0.49,0.15-0.69C366.16,270.78,366.11,271.02,365.99,271.23z"/>
		<path id="Path_613" class="st0" d="M368.18,271.79h0.08l0.08,0.12L368.18,271.79z"/>
		<path id="Path_614" class="st0" d="M443.67,251.02c0.96,1.49-0.36,0.4-0.72,0.52C443.32,251.4,443.11,250.21,443.67,251.02z"/>
		<path id="Path_615" class="st0" d="M439.96,249.14c0.3,0.37,0.73,0.62,1.2,0.67C440.93,249.97,440.62,249.88,439.96,249.14z"/>
		<path id="Path_616" class="st0" d="M442.53,249.14c-0.32,0.44-0.83,0.7-1.37,0.7C441.5,249.66,441.63,248.93,442.53,249.14z"/>
		<path id="Path_617" class="st0" d="M432.33,252.01c0.32,0.42,0.93,0.5,1.35,0.18c0.04-0.03,0.09-0.07,0.12-0.11
			c-1.6,1.52,0.96,1.77,1.35,2.47C433.87,254.56,433.47,253.3,432.33,252.01z"/>
		<path id="Path_618" class="st0" d="M429.67,252.26c0.2-0.05,0.37-0.18,0.47-0.36C430.02,252.21,429.85,252.29,429.67,252.26z"/>
		<path id="Path_619" class="st0" d="M429.27,253.45c-0.73,0-1.31-1.1-1.92-1.92c0.55-1.07,1.6,0.59,2.29,0.68
			C429.22,252.42,428.72,252.44,429.27,253.45z"/>
		<path id="Path_620" class="st0" d="M410.18,264.86c0.19,0.09,0.57,0,0.75,0.62l-1.16,0.34
			C409.22,265.55,410.02,265.03,410.18,264.86z"/>
		<path id="Path_621" class="st0" d="M405.25,262.87c-0.96,0.13-0.09,1.67-0.63,1.41l-0.43-2.21L405.25,262.87z"/>
		<path id="Path_622" class="st0" d="M403.23,251.63l0.3,0.15h-0.31L403.23,251.63z"/>
		<path id="Path_623" class="st0" d="M401.31,266.21l1.13,2.28C401.73,267.94,401.32,267.1,401.31,266.21z"/>
		<path id="Path_624" class="st0" d="M398.05,268.76l0.71,0.65l-1.92-0.42L398.05,268.76z"/>
		<path id="Path_625" class="st0" d="M393.38,268.22l-0.09,0.55L392,268.3L393.38,268.22z"/>
		<path id="Path_626" class="st0" d="M348.04,272.25c-0.64-2.02,1.34-1.58,1.74-2.23C350.01,272.68,348.15,269.48,348.04,272.25z"/>
		<path id="Path_627" class="st0" d="M314.93,279.38l1.92,0.22C315.54,280.62,316.42,279.66,314.93,279.38z"/>
	</g>
	<g id="Group_111" transform="translate(57.199 -827.193)">
		<path id="Path_628" class="st0" d="M769.33,708.72l-0.83,0.09c-0.49,0.48-1.02,0.93-1.58,1.34L769.33,708.72z"/>
		<path id="Path_629" class="st0" d="M633.98,717.59l-0.84-0.07C633.27,717.81,633.12,718.09,633.98,717.59z"/>
		<path id="Path_630" class="st0" d="M844.94,437.68c0.24,0.73,0.44,1.48,0.6,2.23C845.46,439.14,845.26,438.39,844.94,437.68z"/>
		<path id="Path_631" class="st0" d="M266.9,304.37h0.59l-1.46-0.28L266.9,304.37z"/>
		<path id="Path_632" class="st0" d="M267.49,304.32c3.28,0.6,6.62,0.74,9.93,0.41c0-0.62-4.52-0.63-6.8-0.96
			C271.12,304.03,268.57,304.25,267.49,304.32z"/>
		<path id="Path_633" class="st0" d="M812.75,458.74c-0.27-0.61-0.46-1.26-0.56-1.92C812.37,457.33,812.56,458.09,812.75,458.74z"/>
		<path id="Path_634" class="st0" d="M508.45,725.03c-0.12-0.37-0.38-0.67-0.72-0.85h-0.37L508.45,725.03z"/>
		<path id="Path_635" class="st0" d="M336.64,715.07c-0.15,0.14-0.55,0.26-0.58,0.41c2.88,0.35,10.57,0.33,20.24,0.38l0.61-1.39
			C350.23,714.58,343.42,714.8,336.64,715.07z"/>
		<path id="Path_636" class="st0" d="M873.41,615.74c-0.56-2.8-1.21-5.51-1.78-8.41c-1.31-5.71-2.53-11.68-3.64-18.25l2.15,3.18
			c0.18-9.25-2.88-2.06-3.84-12.8l1.92-0.85c-4.21-8.96-1.5-12.24-1.5-18.88l-2.15,3.47l-1.4-12.24c-1.4-13.45,1.87-8.7,3.55-7.01
			l-3.46-8.79l1.92-2.16c-3.74-6.17-0.65-6.72-4.02-18.13c0.75-1.11,1.68,1.78,1.4-2.25l-6.36-18.69l3.36,11.31l-3.64-0.84
			c-2.28-8.13-3.82-16.46-4.58-24.87l1.92,5.76c-1.83-7.52-2.65-15.24-2.43-22.98c-0.18,2.53-0.47,6.44-1.87,0.84
			c-0.85-4.21,0.85-2.53,0.56-6.54c-2.43-0.56-5.24-10.46-5.7-19.81c0.44,0.1,0.8,0.41,0.96,0.84c-1.03-2.39-1.57-4.97-1.58-7.57
			l2.88,1.97l-3.64-7.4c-0.18-5.33-3.28-12.71-1.5-12.24l1.03,2.8l-5.89-39.63l1.87-0.85c-3.36-3.45-2.43-21.68-5.61-19.81
			c0.56-7.86-6.17-29.16-1.58-25.42c-1.92-13-4.49-22.91-6.92-33.47c-1.12-5.33-2.33-10.85-3.46-16.92
			c-0.18-1.58-0.47-3.18-0.75-4.8l-0.47-2.71c-0.28-1.31-0.47-2.71-0.85-4.11c-1.61-6.02-4.37-11.67-8.13-16.64
			c-3.46-5.81-8.48-10.54-14.49-13.64c-3.97-2.16-8.26-3.67-12.71-4.49c-2.41-0.44-4.84-0.69-7.29-0.75h-5.14
			c-11.78,0.18-24.58,0.47-34.86,0.75c-39.9,2.25-65.79,3.84-106.63,5.05c-24.58-4.58-61.4,1.39-87.85-1.59l-7.29,1.69
			c-4.85-0.84-9.75-1.32-14.67-1.41l-8.41-0.28c-1.03,0-3.64,0-6.07,0.18c-2.39,0.22-4.77,0.63-7.1,1.21
			c-20.45,5.59-34.67,24.13-34.76,45.33c1.03,6.27,1.31,5.24,1.68,6.37c0.28,0.64,0.47,1.21,0.56,1.49
			c-0.02-0.74,0.56-1.37,1.31-1.39c-0.28,3.07,2.06,10.09-0.65,8.03l-0.37-0.84c-1.4-0.85-0.75,1.11,0.1,3.84
			c-0.47,0.76-2.15,0.85-3.18-0.1c0.64,0.93,1.39,1.78,2.24,2.53l-3.74-0.47l0.28-0.18c-0.18,0-0.1,0-0.47,0.1l-1.31,0.1
			c-1.78,0.1-3.46,0.28-5.14,0.37c-3.46,0.28-6.72,0.48-9.9,0.66c-6.45,0.28-12.43,0.46-18.25,0.46
			c-11.53,0.1-21.87-0.18-32.25-0.55c-22.73-1.18-45.52-0.8-68.2,1.11c7.19-2.71-10.75,1.41-11.53-1.58
			c-13.74-3.73-25.51,0.85-36.82,1.78c0,0.18-0.1,0.28-0.75,0.56l-19.82-0.37c1.06-0.27,2.09-0.65,3.08-1.11
			c-1.12,0-14.86,3.45-6.45,1.02c-25.7-1.39-55.42-1.49-86.07-1.3c-7.68,0.1-15.42,0.1-23.18,0.18h-14.43l-4.39,0.27
			c-2.99,0.31-5.94,0.96-8.79,1.92c-11.58,3.72-21.01,12.22-25.89,23.36c-2.32,5.47-3.53,11.35-3.55,17.29
			c0,3.94,0.1,7.75,0.1,11.53l0.96-2.61c0.18,15.14,1.87,33.93,0.65,45.42c-0.04,9.92,1.12,19.8,3.46,29.44
			c1.44,6.59,1.18,13.44-0.75,19.9c0.75,10.65,3.18,20.93,3.55,34.21c-1.4,17.47-4.58,41.78-4.3,49.35
			c-0.37,13.14-0.03,26.28,1.03,39.38c0.96,22.44-1.31,11.31-1.68,22.72c0.28,14.11,1.31-3.09,1.92,2.6
			c-0.18,5.7-0.28,11.32-0.28,17.01c-1.21-9.72-1.5-4.39-1.87-2.53c0.65,7.39,1.21,16.92,2.15,25.24
			c0.31,6.03,1.91,11.92,4.67,17.29c1.1,6.85,2.85,13.58,5.24,20.1c0.8,2.13,1.83,4.17,3.08,6.07c1.28,1.81,2.68,3.53,4.21,5.15
			c-1.03-1.59-2.61-3.28-3.93-5.52c-0.85-1.33-1.49-2.78-1.92-4.3c2.61,5.25,3.64,5.98,3.46,5.34c-0.18-0.37-1.12-2.43-2.06-4.3
			c3.54,4.7,7.58,8.99,12.06,12.8c6.21,5.12,13.06,9.43,20.37,12.8c9.18,5,19.35,7.9,29.78,8.5l-0.1,0.57
			c3.28-1.92-0.96-4.8,7.76-4.67c1.87,0.64,3.74,1.21,5.51,1.77c2.89,0.1,5.78,0.1,8.65,0c5.61,1.31,2.8,1.68,2.71,1.92
			c14.02,0.37,33.28,2.15,50,2.53l-17.57-6.53c13.93,1.92,39.39,4.48,42.06,2.43l8.41,1.86c28.22,3.36,19.53-2.24,30.74-1.31
			l14.11,1.92l-14.02,0.37c14.02,0.75,19.63,1.31,30.65,2.71l0.1-0.1c-0.45-0.02-0.89-0.11-1.31-0.28l1.92-0.09
			c5.98-1.84,12.26-2.51,18.5-1.97c15.62-0.28,31.23,0.88,46.64,3.46l5.7-1.92l16.72,2.33l-0.1,1.86
			c-16.54-0.75-47.67-2.99-67.85-2.99l-0.37,0.85c12.24,0.1,25.79,0.19,34.3,0.96c3.46,0.56,11.68,2.61,8.65,3.64l5.76-0.96
			c42.06,2.33,42.06,2.33,86.72,4.8l-3.84-0.96c6.65-1.1,13.44-1.1,20.1,0c26.72-0.76,53.79-1.32,71.09-0.18l3.55-2.43
			c5.51-0.29,14.11,2.43,16.54-0.85l11.78-1.87c6.87-0.97,13.81-1.43,20.75-1.39h0.1c0.56,0,1.03,0.09,1.68,0.09l-0.18-0.17
			c17.19-0.37-0.28-1.92,19.35-2.24c6.45,1.02,6.72-3.37,16.33-3.65l9.82,2.33c17.39,0.28,20.1-3.08,45.15-5.33
			c12.06,0,18.13,2.15,10.37,5.33c6.07-2.71,12.54-4.41,19.15-5.04c2.33,0.96,0.85,1.32-2.25,2.71c12.99,0.18,7.85-1.78,17.57-2.61
			c2.61-2.53,5.51-6.36,8.65-6.82l-3.84-0.37c10.99-2.41,22.21-3.66,33.46-3.74l-0.37,1.12c1.87-0.18,4.67-0.74,7.29-1.21
			c2.61-0.5,5.18-1.18,7.68-2.06l1.4,1.22c7.32-2.41,14.23-5.94,20.47-10.46l-2.88,1.39c4.07-2.73,7.86-5.87,11.31-9.35
			c4.29-4.3,8.16-9,11.58-14.02l0.56,0.75c8.12-11.4,12.02-25.28,11.03-39.24C874.46,622.67,874.06,619.19,873.41,615.74z
			 M838.37,635.1c-2.29,11.66-9.94,21.56-20.65,26.71c-2.66,1.26-5.45,2.22-8.32,2.88l-4.67,0.76l-6.64,0.64l-26.36,2.71
			c-70.37,7.2-140.84,13.74-213.46,16.92c-16.82,0.18-34.58,0.85-52.15,1.4c-17.57,0.55-35.79,0.56-54.49,0.1
			c-18.69-0.46-37.67-1.31-57.01-2.6l-14.58-1.04c-5.12-0.38-10.26-0.66-15.42-0.85c-10-0.28-20-0.64-30.1-0.96
			c-7.29-1.32-50.85,0.37-92.71,0.96c-19.06,0.32-38.13-0.46-57.1-2.33c-9.71-0.94-19.34-2.56-28.82-4.86
			c4.86,2.46,9.85,4.65,14.96,6.55c-11.02-1.52-21.7-4.91-31.58-10.01c-3.4-1.85-6.48-4.21-9.15-7.01l-0.85-0.96l-0.65-0.64
			l-0.1-0.1l-0.1-0.1v-0.18l-0.1-0.29l-0.28-0.28c-0.68-1.49-1.27-3.02-1.78-4.58c-1.49-4.4-2.67-8.89-3.55-13.45l6.92-37.39
			l-5.61-122.91l0.96-98.32l-0.96-29.78c-0.56-13.45-0.56-11.31,0.96-13.83c0.66-0.88,1.57-1.53,2.61-1.87
			c0.5-0.2,1.04-0.29,1.59-0.28c0.93-0.1,1.87-0.13,2.8-0.1h3.74l29.9-0.18l119.44-0.47l17.1-2.71
			c46.92,4.8,107.19-0.55,157.76,2.88c0.37-0.84,0.65-1.58,1.03-2.33c10.56-0.4,21.14,0.19,31.58,1.78l11.68-0.09h5.89
			c0.28-0.1,1.31,0.27,1.03-0.18l-0.18-1.32l-0.47-2.53l-3.74-20.47l-3.74-20.46l-1.87-10.19c-0.1-0.47-0.37-1.78-0.37-1.92v-0.47
			c-0.08-0.31-0.11-0.64-0.1-0.96c-0.01-2.43,1.14-4.72,3.08-6.18c1-0.73,2.15-1.21,3.36-1.4c0.31-0.12,0.63-0.18,0.96-0.18h1.87
			l6.26,0.1c33.46,0.29,66.82,0.29,99.72,0.1l97.29-1.12c15.89-0.28,31.5-0.55,47.01-0.74l11.58-0.18h4.11
			c0.61,0.07,1.21,0.22,1.78,0.46c2.23,0.76,4.03,2.43,4.96,4.59c-0.01,0.5,0.02,1,0.1,1.49c-0.05,0.41-0.02,0.82,0.1,1.21
			c0.1,1.12,0.28,2.33,0.47,3.55c0.65,5.05,1.5,10.75,2.33,16.33c1.58,11.12,3.18,22.09,3.18,26.64
			c9.07,37.76,15.61,78.32,21.58,116.73l-0.47-1.5l3.36,18.04c-0.1,0.75-0.28,0.96-0.56,0.37c5.35,25.59,9.28,51.45,11.78,77.47
			l-0.47-1.39c2.99,18.12,5.95,36.13,8.88,54.02c1.5,8.97,2.99,17.84,4.49,26.72l1.12,6.45c0.22,1.45,0.35,2.92,0.37,4.39
			c0.14,2.93-0.05,5.87-0.58,8.76L838.37,635.1z"/>
		<path id="Path_637" class="st1" d="M838.91,626.35c0.14,2.91-0.05,5.83-0.56,8.7c-2.29,11.66-9.94,21.56-20.65,26.71
			c-2.66,1.26-5.45,2.22-8.32,2.88l-4.67,0.76l-6.64,0.64l-26.36,2.71c-70.37,7.2-140.84,13.74-213.46,16.92
			c-16.82,0.18-34.58,0.85-52.15,1.4c-17.57,0.55-35.79,0.56-54.49,0.1c-18.69-0.46-37.67-1.31-57.01-2.6l-14.58-1.04
			c-5.12-0.37-10.26-0.65-15.42-0.85c-10-0.28-20-0.64-30.1-0.96c-7.29-1.32-50.85,0.37-92.71,0.96
			c-19.06,0.32-38.13-0.46-57.1-2.33c-9.71-0.94-19.34-2.56-28.82-4.86c4.86,2.46,9.85,4.65,14.96,6.55
			c-11.02-1.52-21.7-4.91-31.58-10.01c-3.4-1.85-6.48-4.21-9.15-7.01l-0.85-0.96l-0.65-0.64l-0.1-0.1l-0.1-0.1v-0.18l-0.1-0.29
			l-0.28-0.28c-0.68-1.49-1.27-3.02-1.78-4.58c-1.49-4.4-2.67-8.89-3.55-13.45l6.92-37.39l-5.61-122.91l0.96-98.32l-0.96-29.78
			c-0.56-13.45-0.56-11.31,0.96-13.83c0.66-0.88,1.57-1.53,2.61-1.87c0.5-0.2,1.04-0.29,1.59-0.28c0.93-0.1,1.87-0.13,2.8-0.1h3.74
			l29.9-0.18l119.44-0.47l17.1-2.71c46.92,4.8,107.19-0.55,157.76,2.88c0.37-0.84,0.65-1.58,1.03-2.33
			c10.56-0.4,21.14,0.2,31.58,1.78l11.68-0.09h5.89c0.28-0.1,1.31,0.27,1.03-0.18l-0.18-1.32l-0.47-2.53l-3.74-20.47l-3.74-20.46
			l-1.87-10.19c-0.1-0.47-0.37-1.78-0.37-1.92v-0.47c-0.08-0.31-0.11-0.64-0.1-0.96c-0.01-2.43,1.14-4.72,3.08-6.18
			c1-0.73,2.15-1.21,3.36-1.4c0.31-0.12,0.63-0.18,0.96-0.18h1.87l6.26,0.1c33.46,0.29,66.82,0.29,99.72,0.1l97.29-1.12
			c15.89-0.28,31.5-0.55,47.01-0.74l11.58-0.18h4.11c0.61,0.07,1.21,0.22,1.78,0.46c2.23,0.76,4.03,2.43,4.96,4.59
			c-0.01,0.5,0.02,1,0.1,1.49c-0.05,0.41-0.02,0.82,0.1,1.21c0.1,1.12,0.28,2.33,0.47,3.55c0.65,5.05,1.5,10.75,2.33,16.33
			c1.58,11.12,3.18,22.09,3.18,26.64c9.07,37.76,15.61,78.32,21.58,116.73l-0.47-1.5l3.36,18.04c-0.1,0.75-0.28,0.96-0.56,0.37
			s-0.37-1.4-0.56-1.92c0.1,0.66,0.28,1.31,0.56,1.92c5.35,25.59,9.28,51.45,11.78,77.47l-0.47-1.39
			c2.99,18.12,5.95,36.13,8.88,54.02c1.5,8.97,2.99,17.84,4.49,26.72l1.12,6.45C838.77,623.39,838.89,624.87,838.91,626.35z"/>
		<path id="Path_638" class="st0" d="M242.56,714.18h-1.04l3.91,1.37L242.56,714.18z"/>
		<path id="Path_639" class="st0" d="M89.84,612.9c-0.21-2.87-0.61-5.73-1.2-8.55C89.27,613.86,89.59,614.27,89.84,612.9z"/>
	</g>
</g>
<!-- Code injected by live-server -->
<script type="text/javascript">
	// <![CDATA[  <-- For SVG support
	if ('WebSocket' in window) {
		(function () {
			function refreshCSS() {
				var sheets = [].slice.call(document.getElementsByTagName("link"));
				var head = document.getElementsByTagName("head")[0];
				for (var i = 0; i < sheets.length; ++i) {
					var elem = sheets[i];
					var parent = elem.parentElement || head;
					parent.removeChild(elem);
					var rel = elem.rel;
					if (elem.href && typeof rel != "string" || rel.length == 0 || rel.toLowerCase() == "stylesheet") {
						var url = elem.href.replace(/(&|\?)_cacheOverride=\d+/, '');
						elem.href = url + (url.indexOf('?') >= 0 ? '&' : '?') + '_cacheOverride=' + (new Date().valueOf());
					}
					parent.appendChild(elem);
				}
			}
			var protocol = window.location.protocol === 'http:' ? 'ws://' : 'wss://';
			var address = protocol + window.location.host + window.location.pathname + '/ws';
			var socket = new WebSocket(address);
			socket.onmessage = function (msg) {
				if (msg.data == 'reload') window.location.reload();
				else if (msg.data == 'refreshcss') refreshCSS();
			};
			if (sessionStorage && !sessionStorage.getItem('IsThisFirstTime_Log_From_LiveServer')) {
				console.log('Live reload enabled.');
				sessionStorage.setItem('IsThisFirstTime_Log_From_LiveServer', true);
			}
		})();
	}
	else {
		console.error('Upgrade your browser. This Browser is NOT supported WebSocket for Live-Reloading.');
	}
	// ]]>
</script></svg>
