<svg id="Group_79" data-name="Group 79" xmlns="http://www.w3.org/2000/svg" width="23.699" height="19.255" viewBox="0 0 23.699 19.255">
  <g id="Group_78" data-name="Group 78" transform="translate(0 0)">
    <path id="Path_138" data-name="Path 138" d="M23.7,50.279a10.129,10.129,0,0,1-2.8.767,4.831,4.831,0,0,0,2.137-2.685,9.709,9.709,0,0,1-3.081,1.176,4.858,4.858,0,0,0-8.4,3.322,5,5,0,0,0,.113,1.108A13.752,13.752,0,0,1,1.65,48.886a4.86,4.86,0,0,0,1.493,6.493,4.8,4.8,0,0,1-2.2-.6v.053A4.881,4.881,0,0,0,4.84,59.608a4.849,4.849,0,0,1-1.274.16,4.3,4.3,0,0,1-.92-.083,4.9,4.9,0,0,0,4.54,3.384,9.762,9.762,0,0,1-6.024,2.072A9.1,9.1,0,0,1,0,65.075a13.678,13.678,0,0,0,7.453,2.18A13.733,13.733,0,0,0,21.281,53.43c0-.215-.007-.422-.018-.628A9.692,9.692,0,0,0,23.7,50.279Z" transform="translate(0 -48)" fill="#a2b0ba"/>
  </g>
</svg>
