<svg xmlns="http://www.w3.org/2000/svg" width="22.993" height="21.594" viewBox="0 0 22.993 21.594">
  <g id="Group_36" data-name="Group 36" transform="translate(-1041.432 653.44)">
    <path id="Path_79" data-name="Path 79" d="M1049.429-648.24v-3.525a.675.675,0,0,1,.675-.675h5.65a.675.675,0,0,1,.675.675v3.525" transform="translate(0)" fill="none" stroke="#fcb813" stroke-linecap="square" stroke-width="2"/>
    <path id="Path_80" data-name="Path 80" d="M1043.832-648.242h18.193a1.4,1.4,0,0,1,1.4,1.4v7h-20.993v-7A1.4,1.4,0,0,1,1043.832-648.242Z" transform="translate(0 0)" fill="none" stroke="#fcb813" stroke-linecap="square" stroke-width="2"/>
    <path id="Path_81" data-name="Path 81" d="M1061.321-639.842v5.6a1.349,1.349,0,0,1-1.292,1.4h-14.2a1.35,1.35,0,0,1-1.292-1.4v-5.6" transform="translate(0 0)" fill="none" stroke="#fcb813" stroke-linecap="square" stroke-width="2"/>
  </g>
</svg>
