<?xml version="1.0" encoding="utf-8"?>
<!-- Generator: Adobe Illustrator 24.0.3, SVG Export Plug-In . SVG Version: 6.00 Build 0)  -->
<svg version="1.1" id="Group_182" xmlns="http://www.w3.org/2000/svg" xmlns:xlink="http://www.w3.org/1999/xlink" x="0px" y="0px"
	 viewBox="0 0 16 16" style="enable-background:new 0 0 16 16;" xml:space="preserve">
<style type="text/css">
	.st0{fill:#FCB813;}
</style>
<g transform="translate(0, 0)">
	<path class="st0" d="M11.33,1.33c0-0.4-0.27-0.67-0.67-0.67H5.33c-0.4,0-0.67,0.27-0.67,0.67V4H3.33v11.33h9.33V4h-1.33V1.33z M6,2
		h4v2H6V2z"/>
	<path class="st0" d="M15.33,4H14v11.33h1.33c0.4,0,0.67-0.27,0.67-0.67v-10C16,4.27,15.73,4,15.33,4z"/>
	<path class="st0" d="M0,4.67v10c0,0.4,0.27,0.67,0.67,0.67H2V4H0.67C0.27,4,0,4.27,0,4.67z"/>
</g>
</svg>
