<?xml version="1.0" encoding="utf-8"?>
<!-- Generator: Adobe Illustrator 24.0.1, SVG Export Plug-In . SVG Version: 6.00 Build 0)  -->
<svg version="1.1" id="Layer_1" xmlns="http://www.w3.org/2000/svg" xmlns:xlink="http://www.w3.org/1999/xlink" x="0px" y="0px"
	 viewBox="0 0 170.32 36.98" style="enable-background:new 0 0 170.32 36.98;" xml:space="preserve">
<style type="text/css">
	.st0{fill:#A2B0BA;}
</style>
<g id="Group_75" transform="translate(-3495.843 68.405)">
	<path id="Path_104" class="st0" d="M3582.92-65.78v8.26h4.83v-1.4h-3.28v-6.86L3582.92-65.78z"/>
	<path id="Path_105" class="st0" d="M3594.98-58.49c-0.39,0.42-0.87,0.74-1.41,0.95c-0.46,0.16-0.95,0.24-1.44,0.23
		c-1.09,0.04-2.14-0.43-2.83-1.28c-0.74-0.84-1.13-1.93-1.1-3.06c0-0.54,0.08-1.08,0.25-1.6c0.49-1.64,2.01-2.76,3.72-2.75
		c1.12-0.01,2.19,0.47,2.93,1.31c0.71,0.85,1.08,1.93,1.03,3.03C3596.15-60.48,3595.74-59.36,3594.98-58.49 M3594.08-63.48
		c-0.39-0.69-1.13-1.1-1.92-1.09c-0.37,0-0.73,0.08-1.05,0.25c-0.9,0.56-1.41,1.58-1.31,2.63c-0.05,1.01,0.38,1.97,1.17,2.6
		c0.36,0.23,0.79,0.35,1.22,0.35c0.33,0,0.65-0.07,0.95-0.2c0.95-0.48,1.51-1.48,1.44-2.54
		C3594.61-62.18,3594.43-62.88,3594.08-63.48"/>
	<path id="Path_106" class="st0" d="M3603.89-59.2c-0.27,0.83-1.22,1.9-3.24,1.9c-0.97,0.06-1.93-0.29-2.62-0.98
		c-0.24-0.26-0.42-0.56-0.53-0.89c-0.13-0.55-0.17-1.12-0.13-1.69v-4.92h1.56v5.08c-0.03,0.31,0,0.62,0.08,0.91
		c0.15,0.49,0.6,0.98,1.7,0.98c0.2,0,1.33,0,1.67-0.94c0.1-0.34,0.13-0.69,0.1-1.04v-5h1.54v4.76
		C3604.08-60.41,3604.03-59.8,3603.89-59.2"/>
	<rect id="Rectangle_552" x="3605.67" y="-65.78" class="st0" width="1.52" height="8.26"/>
	<path id="Path_107" class="st0" d="M3614.74-58.16c-0.78,0.58-1.73,0.88-2.7,0.85c-1.2,0.05-2.36-0.4-3.22-1.23
		c-0.15-0.16-0.29-0.34-0.4-0.54l1.3-0.9c0.57,0.85,1.55,1.32,2.56,1.24c0.21,0,0.41-0.02,0.61-0.06c0.17-0.03,0.98-0.26,0.98-1.03
		c0-0.18-0.05-0.35-0.15-0.49c-0.28-0.37-1.03-0.48-1.44-0.57l-0.98-0.22c-0.43-0.07-0.85-0.2-1.25-0.39
		c-0.74-0.35-1.2-1.1-1.18-1.92c0-0.43,0.11-0.85,0.32-1.22c0.67-0.95,1.79-1.47,2.95-1.36c1.32-0.04,2.58,0.59,3.33,1.67
		l-1.27,0.95c-0.43-0.77-1.26-1.25-2.14-1.23c-0.08,0-1.12-0.01-1.46,0.63c-0.06,0.11-0.09,0.24-0.09,0.38
		c0,0.13,0.04,0.26,0.1,0.37c0.2,0.34,0.66,0.45,1.42,0.61l0.85,0.19c0.83,0.11,1.6,0.47,2.2,1.05c0.34,0.38,0.52,0.88,0.48,1.39
		C3615.58-59.27,3615.28-58.6,3614.74-58.16"/>
	<rect id="Rectangle_553" x="3616.9" y="-65.78" class="st0" width="1.52" height="8.26"/>
	<path id="Path_108" class="st0" d="M3625.17-57.52l-0.48-1.62h-3.1l-0.48,1.62h-1.66l2.8-8.26h1.75l2.82,8.26L3625.17-57.52z
		 M3623.15-64.29l-1.15,3.8h2.28L3623.15-64.29z"/>
	<path id="Path_109" class="st0" d="M3632.93-57.52l-3.62-5.79l0.09,5.79h-1.51v-8.26h1.39l3.66,5.83l-0.19-5.83h1.52v8.26
		L3632.93-57.52z"/>
	<path id="Path_110" class="st0" d="M3641.02-57.52l-0.48-1.62h-3.1l-0.48,1.62h-1.66l2.8-8.26h1.75l2.82,8.26L3641.02-57.52z
		 M3639-64.29l-1.15,3.8h2.28L3639-64.29z"/>
	<path id="Path_111" class="st0" d="M3582.88-45.81v-8.27h5.88v1.38h-4.35v1.94h3.99v1.33h-3.99v2.21h4.65v1.39L3582.88-45.81z"/>
	<path id="Path_112" class="st0" d="M3596.53-47c-0.71,0.91-1.8,1.43-2.95,1.4c-0.57,0-1.14-0.12-1.66-0.35
		c-1.48-0.77-2.35-2.35-2.2-4.01c-0.03-0.96,0.23-1.91,0.76-2.72c0.71-1.03,1.9-1.64,3.16-1.6c1.09-0.06,2.14,0.43,2.79,1.31
		c0.25,0.38,0.44,0.8,0.57,1.24l-1.53,0.4c-0.03-0.23-0.1-0.45-0.21-0.65c-0.32-0.57-0.94-0.91-1.59-0.88
		c-0.33,0-0.66,0.07-0.96,0.22c-0.91,0.55-1.42,1.58-1.31,2.64c-0.01,0.68,0.16,1.36,0.49,1.96c0.16,0.24,0.36,0.45,0.6,0.61
		c0.35,0.24,0.77,0.37,1.2,0.37c0.6,0.01,1.17-0.27,1.52-0.75c0.12-0.16,0.23-0.33,0.33-0.5c0.06-0.13,0.11-0.27,0.15-0.41
		l1.46,0.61C3596.99-47.71,3596.78-47.34,3596.53-47"/>
	<path id="Path_113" class="st0" d="M3604.67-46.78c-0.39,0.42-0.87,0.75-1.41,0.95c-0.46,0.16-0.95,0.24-1.44,0.23
		c-1.09,0.04-2.14-0.43-2.83-1.28c-0.74-0.84-1.13-1.93-1.1-3.05c0-0.54,0.08-1.08,0.25-1.6c0.49-1.64,2.01-2.76,3.72-2.75
		c1.12-0.01,2.19,0.47,2.93,1.31c0.71,0.85,1.08,1.93,1.03,3.03C3605.84-48.78,3605.43-47.65,3604.67-46.78 M3603.77-51.78
		c-0.39-0.69-1.13-1.1-1.92-1.09c-0.37,0-0.73,0.08-1.05,0.25c-0.9,0.56-1.41,1.58-1.31,2.63c-0.05,1,0.38,1.97,1.17,2.6
		c0.36,0.23,0.79,0.35,1.22,0.35c0.33,0,0.65-0.07,0.95-0.2c0.95-0.48,1.52-1.48,1.44-2.54
		C3604.29-50.48,3604.12-51.17,3603.77-51.78"/>
	<path id="Path_114" class="st0" d="M3612.35-45.81l-3.62-5.79l0.09,5.79h-1.51v-8.27h1.39l3.66,5.83l-0.19-5.83h1.52v8.26
		L3612.35-45.81z"/>
	<path id="Path_115" class="st0" d="M3621.99-46.78c-0.39,0.42-0.87,0.74-1.41,0.95c-0.46,0.16-0.95,0.24-1.44,0.23
		c-1.09,0.04-2.14-0.43-2.83-1.28c-0.74-0.84-1.13-1.93-1.1-3.05c0-0.54,0.08-1.08,0.25-1.6c0.49-1.64,2.01-2.76,3.72-2.75
		c1.12-0.01,2.19,0.47,2.93,1.31c0.71,0.85,1.08,1.93,1.03,3.03C3623.16-48.78,3622.75-47.65,3621.99-46.78 M3621.09-51.78
		c-0.39-0.69-1.13-1.1-1.92-1.09c-0.37,0-0.73,0.08-1.05,0.25c-0.9,0.56-1.41,1.58-1.31,2.63c-0.05,1,0.38,1.97,1.17,2.6
		c0.36,0.23,0.79,0.35,1.22,0.35c0.33,0,0.65-0.07,0.95-0.2c0.95-0.48,1.51-1.48,1.44-2.54
		C3621.61-50.48,3621.44-51.17,3621.09-51.78"/>
	<path id="Path_116" class="st0" d="M3630.74-45.81l0.15-6.79l-1.79,6.79h-1.39l-1.79-6.79l0.15,6.79h-1.51v-8.27h2.25l1.61,6.13
		l1.59-6.13h2.24v8.26L3630.74-45.81z"/>
	<rect id="Rectangle_554" x="3633.88" y="-54.07" class="st0" width="1.52" height="8.26"/>
	<path id="Path_117" class="st0" d="M3643.61-47c-0.7,0.91-1.8,1.43-2.95,1.4c-0.57,0-1.14-0.12-1.66-0.35
		c-1.48-0.77-2.35-2.35-2.2-4.01c-0.03-0.96,0.23-1.91,0.76-2.72c0.71-1.04,1.9-1.64,3.16-1.6c1.09-0.06,2.13,0.43,2.78,1.31
		c0.25,0.38,0.44,0.8,0.57,1.24l-1.53,0.4c-0.03-0.23-0.1-0.45-0.21-0.65c-0.32-0.57-0.94-0.91-1.59-0.88
		c-0.33,0-0.66,0.07-0.96,0.22c-0.91,0.55-1.43,1.58-1.31,2.64c-0.01,0.68,0.16,1.36,0.49,1.96c0.16,0.24,0.36,0.45,0.6,0.61
		c0.35,0.24,0.77,0.37,1.2,0.37c0.6,0.01,1.17-0.27,1.52-0.75c0.12-0.16,0.23-0.32,0.33-0.5c0.06-0.13,0.11-0.27,0.15-0.41
		l1.46,0.61C3644.07-47.71,3643.86-47.34,3643.61-47"/>
	<path id="Path_118" class="st0" d="M3587.45-34.33c-0.66,0.19-1.34,0.26-2.03,0.22h-2.63v-8.26h2.96c0.4,0,0.8,0.03,1.19,0.09
		c0.79,0.16,1.5,0.6,1.99,1.24c0.59,0.84,0.89,1.84,0.85,2.87C3589.79-36.52,3589.16-34.87,3587.45-34.33 M3587.36-40.43
		c-0.25-0.21-0.55-0.36-0.86-0.44c-0.44-0.1-0.89-0.13-1.33-0.09h-0.82v5.48h0.41c0.57,0.02,1.14-0.01,1.7-0.07
		c0.47-0.06,0.9-0.28,1.22-0.64c0.35-0.59,0.52-1.28,0.49-1.97C3588.24-39,3587.95-39.83,3587.36-40.43"/>
	<path id="Path_119" class="st0" d="M3591.16-34.1v-8.26h5.88v1.38h-4.35v1.94h3.99v1.33h-3.99v2.21h4.65v1.39H3591.16z"/>
	<path id="Path_120" class="st0" d="M3602.18-34.1h-2.08l-2.43-8.26h1.63l1.85,6.52l1.8-6.52h1.59L3602.18-34.1z"/>
	<path id="Path_121" class="st0" d="M3605.55-34.1v-8.26h5.88v1.38h-4.35v1.94h3.99v1.33h-3.99v2.21h4.65v1.39H3605.55z"/>
	<path id="Path_122" class="st0" d="M3612.91-34.1v-8.26h1.56v6.86h3.28v1.4H3612.91z"/>
	<path id="Path_123" class="st0" d="M3624.97-35.08c-0.39,0.42-0.87,0.75-1.4,0.95c-0.46,0.16-0.95,0.24-1.44,0.23
		c-1.09,0.04-2.14-0.43-2.83-1.27c-0.74-0.84-1.13-1.94-1.1-3.06c0-0.54,0.08-1.08,0.25-1.6c0.63-2.06,2.82-3.21,4.87-2.58
		c0.69,0.21,1.3,0.61,1.77,1.14c0.71,0.84,1.08,1.93,1.03,3.03C3626.15-37.07,3625.74-35.95,3624.97-35.08 M3624.08-40.07
		c-0.39-0.69-1.13-1.1-1.92-1.09c-0.37,0-0.73,0.08-1.05,0.25c-0.9,0.56-1.41,1.58-1.31,2.63c-0.05,1.01,0.38,1.97,1.17,2.6
		c0.36,0.23,0.79,0.35,1.22,0.35c0.33,0,0.65-0.07,0.95-0.2c0.95-0.48,1.52-1.48,1.44-2.54
		C3624.6-38.77,3624.43-39.46,3624.08-40.07"/>
	<path id="Path_124" class="st0" d="M3632.66-37.38c-0.7,0.38-1.5,0.54-2.29,0.47h-1.21v2.81h-1.54v-8.26h2.79c0.2,0,0.4-0.01,0.6,0
		c0.82,0.01,1.59,0.36,2.14,0.96c0.42,0.5,0.64,1.14,0.62,1.79C3633.82-38.73,3633.4-37.88,3632.66-37.38 M3631.99-40.44
		c-0.35-0.61-1.04-0.61-1.64-0.61h-1.18v2.87h1.11c0.1,0,0.22-0.01,0.33-0.01c0.8-0.03,1.15-0.28,1.35-0.61
		c0.15-0.27,0.22-0.56,0.22-0.87C3632.18-39.93,3632.12-40.2,3631.99-40.44"/>
	<path id="Path_125" class="st0" d="M3641.04-34.1l0.15-6.79l-1.79,6.79h-1.39l-1.79-6.79l0.15,6.79h-1.51v-8.26h2.25l1.61,6.13
		l1.59-6.13h2.24v8.26H3641.04z"/>
	<path id="Path_126" class="st0" d="M3643.93-34.1v-8.26h5.88v1.38h-4.35v1.94h3.99v1.33h-3.99v2.21h4.65v1.39H3643.93z"/>
	<path id="Path_127" class="st0" d="M3656.32-34.1l-3.62-5.8l0.09,5.8h-1.51v-8.26h1.39l3.66,5.83l-0.19-5.83h1.52v8.26H3656.32z"/>
	<path id="Path_128" class="st0" d="M3662.67-40.97v6.87h-1.55v-6.87h-2.25v-1.39h6.07v1.39L3662.67-40.97z"/>
	<path id="Path_129" class="st0" d="M3497.05-65.99v32.2h19.28l4.39-7.8h-13.68v-24.4H3497.05z"/>
	<path id="Path_130" class="st0" d="M3566.12-64.13c-2.63-1.34-5.57-1.98-8.52-1.87h-14.43v22.9h4.57l-5.04,9.3h14.54
		c2.48,0,7.95-0.14,12.08-4.7c2.79-3.26,4.27-7.43,4.17-11.72C3573.49-55.92,3571.27-61.3,3566.12-64.13 M3561.23-43.42
		c-1.95,2.05-4.29,2.15-6.73,2.15h-1.55v-17.25h1.95c2.62,0,5,0.5,6.56,2.33c1.43,1.76,2.19,3.98,2.13,6.25
		C3563.72-47.54,3562.87-45.18,3561.23-43.42"/>
	<path id="Path_131" class="st0" d="M3528.54-41.5v-4.88h7.05l2.73-7.58h-9.77v-4.38h10.4l3.07-7.71h-23.37v22.96h4.64l-5.2,9.3
		h22.88l4.22-7.71L3528.54-41.5z"/>
	<rect id="Rectangle_555" x="3577.82" y="-66" class="st0" width="0.82" height="32.2"/>
</g>
</svg>
